solid OpenSCAD_Model
  facet normal -1 0 0
    outer loop
      vertex -2.5 -2.5 0
      vertex -2.5 109.82 3.2
      vertex -2.5 109.82 0
    endloop
  endfacet
  facet normal -1 -0 0
    outer loop
      vertex -2.5 109.82 3.2
      vertex -2.5 -2.5 0
      vertex -2.5 -2.5 3.2
    endloop
  endfacet
  facet normal 0 0 1
    outer loop
      vertex 183.66 109.82 3.2
      vertex 181.41 107.57 3.2
      vertex 183.66 -2.5 3.2
    endloop
  endfacet
  facet normal 0 0 1
    outer loop
      vertex 183.66 109.82 3.2
      vertex 160.89 107.57 3.2
      vertex 181.41 107.57 3.2
    endloop
  endfacet
  facet normal 0 0 1
    outer loop
      vertex 160.89 107.57 3.2
      vertex 158.39 107.57 3.2
      vertex 160.89 -0.25 3.2
    endloop
  endfacet
  facet normal 0 0 1
    outer loop
      vertex 183.66 109.82 3.2
      vertex 158.39 107.57 3.2
      vertex 160.89 107.57 3.2
    endloop
  endfacet
  facet normal 0 0 1
    outer loop
      vertex 183.66 109.82 3.2
      vertex 137.87 107.57 3.2
      vertex 158.39 107.57 3.2
    endloop
  endfacet
  facet normal 0 0 1
    outer loop
      vertex 137.87 107.57 3.2
      vertex 135.37 107.57 3.2
      vertex 137.87 -0.25 3.2
    endloop
  endfacet
  facet normal 0 0 1
    outer loop
      vertex 183.66 109.82 3.2
      vertex 135.37 107.57 3.2
      vertex 137.87 107.57 3.2
    endloop
  endfacet
  facet normal 0 0 1
    outer loop
      vertex 183.66 109.82 3.2
      vertex 114.85 107.57 3.2
      vertex 135.37 107.57 3.2
    endloop
  endfacet
  facet normal 0 0 1
    outer loop
      vertex 114.85 107.57 3.2
      vertex 112.35 107.57 3.2
      vertex 114.85 -0.25 3.2
    endloop
  endfacet
  facet normal 0 0 1
    outer loop
      vertex 183.66 109.82 3.2
      vertex 112.35 107.57 3.2
      vertex 114.85 107.57 3.2
    endloop
  endfacet
  facet normal 0 0 1
    outer loop
      vertex 183.66 109.82 3.2
      vertex 91.83 107.57 3.2
      vertex 112.35 107.57 3.2
    endloop
  endfacet
  facet normal 0 0 1
    outer loop
      vertex 91.83 107.57 3.2
      vertex 89.33 107.57 3.2
      vertex 91.83 -0.25 3.2
    endloop
  endfacet
  facet normal 0 0 1
    outer loop
      vertex 183.66 109.82 3.2
      vertex 89.33 107.57 3.2
      vertex 91.83 107.57 3.2
    endloop
  endfacet
  facet normal 0 0 1
    outer loop
      vertex 183.66 109.82 3.2
      vertex 68.81 107.57 3.2
      vertex 89.33 107.57 3.2
    endloop
  endfacet
  facet normal 0 0 1
    outer loop
      vertex 68.81 107.57 3.2
      vertex 66.31 107.57 3.2
      vertex 68.81 -0.25 3.2
    endloop
  endfacet
  facet normal -0 0 1
    outer loop
      vertex -2.5 109.82 3.2
      vertex 68.81 107.57 3.2
      vertex 183.66 109.82 3.2
    endloop
  endfacet
  facet normal 0 0 1
    outer loop
      vertex 68.81 107.57 3.2
      vertex -2.5 109.82 3.2
      vertex 66.31 107.57 3.2
    endloop
  endfacet
  facet normal 0 0 1
    outer loop
      vertex 45.79 107.57 3.2
      vertex 43.29 107.57 3.2
      vertex 45.79 -0.25 3.2
    endloop
  endfacet
  facet normal 0 0 1
    outer loop
      vertex 66.31 107.57 3.2
      vertex -2.5 109.82 3.2
      vertex 45.79 107.57 3.2
    endloop
  endfacet
  facet normal 0 0 1
    outer loop
      vertex 45.79 107.57 3.2
      vertex -2.5 109.82 3.2
      vertex 43.29 107.57 3.2
    endloop
  endfacet
  facet normal 0 0 1
    outer loop
      vertex 22.77 107.57 3.2
      vertex 20.27 107.57 3.2
      vertex 22.77 -0.25 3.2
    endloop
  endfacet
  facet normal 0 0 1
    outer loop
      vertex 43.29 107.57 3.2
      vertex -2.5 109.82 3.2
      vertex 22.77 107.57 3.2
    endloop
  endfacet
  facet normal 0 0 1
    outer loop
      vertex 22.77 107.57 3.2
      vertex -2.5 109.82 3.2
      vertex 20.27 107.57 3.2
    endloop
  endfacet
  facet normal 0 0 1
    outer loop
      vertex -0.25 107.57 3.2
      vertex -2.5 109.82 3.2
      vertex -0.25 -0.25 3.2
    endloop
  endfacet
  facet normal 0 0 1
    outer loop
      vertex 20.27 107.57 3.2
      vertex -2.5 109.82 3.2
      vertex -0.25 107.57 3.2
    endloop
  endfacet
  facet normal -0 0 1
    outer loop
      vertex 181.41 -0.25 3.2
      vertex 183.66 -2.5 3.2
      vertex 181.41 107.57 3.2
    endloop
  endfacet
  facet normal -0 0 1
    outer loop
      vertex 160.89 -0.25 3.2
      vertex 183.66 -2.5 3.2
      vertex 181.41 -0.25 3.2
    endloop
  endfacet
  facet normal 0 0 1
    outer loop
      vertex 158.39 -0.25 3.2
      vertex 160.89 -0.25 3.2
      vertex 158.39 107.57 3.2
    endloop
  endfacet
  facet normal -0 0 1
    outer loop
      vertex 158.39 -0.25 3.2
      vertex 183.66 -2.5 3.2
      vertex 160.89 -0.25 3.2
    endloop
  endfacet
  facet normal -0 0 1
    outer loop
      vertex 137.87 -0.25 3.2
      vertex 183.66 -2.5 3.2
      vertex 158.39 -0.25 3.2
    endloop
  endfacet
  facet normal 0 0 1
    outer loop
      vertex 135.37 -0.25 3.2
      vertex 137.87 -0.25 3.2
      vertex 135.37 107.57 3.2
    endloop
  endfacet
  facet normal -0 0 1
    outer loop
      vertex 135.37 -0.25 3.2
      vertex 183.66 -2.5 3.2
      vertex 137.87 -0.25 3.2
    endloop
  endfacet
  facet normal -0 0 1
    outer loop
      vertex 114.85 -0.25 3.2
      vertex 183.66 -2.5 3.2
      vertex 135.37 -0.25 3.2
    endloop
  endfacet
  facet normal 0 0 1
    outer loop
      vertex 112.35 -0.25 3.2
      vertex 114.85 -0.25 3.2
      vertex 112.35 107.57 3.2
    endloop
  endfacet
  facet normal -0 0 1
    outer loop
      vertex 112.35 -0.25 3.2
      vertex 183.66 -2.5 3.2
      vertex 114.85 -0.25 3.2
    endloop
  endfacet
  facet normal -0 0 1
    outer loop
      vertex 91.83 -0.25 3.2
      vertex 183.66 -2.5 3.2
      vertex 112.35 -0.25 3.2
    endloop
  endfacet
  facet normal 0 0 1
    outer loop
      vertex 89.33 -0.25 3.2
      vertex 91.83 -0.25 3.2
      vertex 89.33 107.57 3.2
    endloop
  endfacet
  facet normal -0 0 1
    outer loop
      vertex 89.33 -0.25 3.2
      vertex 183.66 -2.5 3.2
      vertex 91.83 -0.25 3.2
    endloop
  endfacet
  facet normal -0 0 1
    outer loop
      vertex 68.81 -0.25 3.2
      vertex 183.66 -2.5 3.2
      vertex 89.33 -0.25 3.2
    endloop
  endfacet
  facet normal 0 0 1
    outer loop
      vertex 66.31 -0.25 3.2
      vertex 68.81 -0.25 3.2
      vertex 66.31 107.57 3.2
    endloop
  endfacet
  facet normal 0 0 1
    outer loop
      vertex -2.5 -2.5 3.2
      vertex 68.81 -0.25 3.2
      vertex 66.31 -0.25 3.2
    endloop
  endfacet
  facet normal 0 0 1
    outer loop
      vertex -2.5 -2.5 3.2
      vertex 66.31 -0.25 3.2
      vertex 45.79 -0.25 3.2
    endloop
  endfacet
  facet normal 0 0 1
    outer loop
      vertex 43.29 -0.25 3.2
      vertex 45.79 -0.25 3.2
      vertex 43.29 107.57 3.2
    endloop
  endfacet
  facet normal 0 0 1
    outer loop
      vertex -2.5 -2.5 3.2
      vertex 45.79 -0.25 3.2
      vertex 43.29 -0.25 3.2
    endloop
  endfacet
  facet normal 0 0 1
    outer loop
      vertex -2.5 -2.5 3.2
      vertex 43.29 -0.25 3.2
      vertex 22.77 -0.25 3.2
    endloop
  endfacet
  facet normal 0 0 1
    outer loop
      vertex 20.27 -0.25 3.2
      vertex 22.77 -0.25 3.2
      vertex 20.27 107.57 3.2
    endloop
  endfacet
  facet normal 0 0 1
    outer loop
      vertex -2.5 -2.5 3.2
      vertex 22.77 -0.25 3.2
      vertex 20.27 -0.25 3.2
    endloop
  endfacet
  facet normal 0 0 1
    outer loop
      vertex -2.5 -2.5 3.2
      vertex 20.27 -0.25 3.2
      vertex -0.25 -0.25 3.2
    endloop
  endfacet
  facet normal 0 0 1
    outer loop
      vertex 68.81 -0.25 3.2
      vertex -2.5 -2.5 3.2
      vertex 183.66 -2.5 3.2
    endloop
  endfacet
  facet normal 0 0 1
    outer loop
      vertex -2.5 -2.5 3.2
      vertex -0.25 -0.25 3.2
      vertex -2.5 109.82 3.2
    endloop
  endfacet
  facet normal 0 1 -0
    outer loop
      vertex 183.66 109.82 0
      vertex -2.5 109.82 3.2
      vertex 183.66 109.82 3.2
    endloop
  endfacet
  facet normal 0 1 0
    outer loop
      vertex -2.5 109.82 3.2
      vertex 183.66 109.82 0
      vertex -2.5 109.82 0
    endloop
  endfacet
  facet normal 0 0 -1
    outer loop
      vertex -0.25 89.32 0
      vertex 20.27 107.26 0
      vertex 20.27 89.32 0
    endloop
  endfacet
  facet normal -0 0 -1
    outer loop
      vertex 20.27 107.26 0
      vertex -0.25 89.32 0
      vertex -0.25 107.26 0
    endloop
  endfacet
  facet normal 0 0 -1
    outer loop
      vertex -0.25 44.66 0
      vertex 20.27 62.66 0
      vertex 20.27 44.66 0
    endloop
  endfacet
  facet normal -0 0 -1
    outer loop
      vertex 20.27 62.66 0
      vertex -0.25 44.66 0
      vertex -0.25 62.66 0
    endloop
  endfacet
  facet normal 0 0 -1
    outer loop
      vertex 22.77 89.32 0
      vertex 43.29 107.26 0
      vertex 43.29 89.32 0
    endloop
  endfacet
  facet normal -0 0 -1
    outer loop
      vertex 43.29 107.26 0
      vertex 22.77 89.32 0
      vertex 22.77 107.26 0
    endloop
  endfacet
  facet normal 0 0 -1
    outer loop
      vertex 22.77 44.66 0
      vertex 43.29 62.66 0
      vertex 43.29 44.66 0
    endloop
  endfacet
  facet normal -0 0 -1
    outer loop
      vertex 43.29 62.66 0
      vertex 22.77 44.66 0
      vertex 22.77 62.66 0
    endloop
  endfacet
  facet normal 0 0 -1
    outer loop
      vertex 45.79 89.32 0
      vertex 66.31 107.26 0
      vertex 66.31 89.32 0
    endloop
  endfacet
  facet normal -0 0 -1
    outer loop
      vertex 66.31 107.26 0
      vertex 45.79 89.32 0
      vertex 45.79 107.26 0
    endloop
  endfacet
  facet normal 0 0 -1
    outer loop
      vertex 45.79 44.66 0
      vertex 66.31 62.66 0
      vertex 66.31 44.66 0
    endloop
  endfacet
  facet normal -0 0 -1
    outer loop
      vertex 66.31 62.66 0
      vertex 45.79 44.66 0
      vertex 45.79 62.66 0
    endloop
  endfacet
  facet normal 0 0 -1
    outer loop
      vertex 68.81 89.32 0
      vertex 89.33 107.26 0
      vertex 89.33 89.32 0
    endloop
  endfacet
  facet normal -0 0 -1
    outer loop
      vertex 89.33 107.26 0
      vertex 68.81 89.32 0
      vertex 68.81 107.26 0
    endloop
  endfacet
  facet normal 0 0 -1
    outer loop
      vertex 68.81 44.66 0
      vertex 89.33 62.66 0
      vertex 89.33 44.66 0
    endloop
  endfacet
  facet normal -0 0 -1
    outer loop
      vertex 89.33 62.66 0
      vertex 68.81 44.66 0
      vertex 68.81 62.66 0
    endloop
  endfacet
  facet normal 0 0 -1
    outer loop
      vertex 91.83 89.32 0
      vertex 112.35 107.26 0
      vertex 112.35 89.32 0
    endloop
  endfacet
  facet normal -0 0 -1
    outer loop
      vertex 112.35 107.26 0
      vertex 91.83 89.32 0
      vertex 91.83 107.26 0
    endloop
  endfacet
  facet normal 0 0 -1
    outer loop
      vertex 91.83 44.66 0
      vertex 112.35 62.66 0
      vertex 112.35 44.66 0
    endloop
  endfacet
  facet normal -0 0 -1
    outer loop
      vertex 112.35 62.66 0
      vertex 91.83 44.66 0
      vertex 91.83 62.66 0
    endloop
  endfacet
  facet normal 0 0 -1
    outer loop
      vertex 114.85 89.32 0
      vertex 135.37 107.26 0
      vertex 135.37 89.32 0
    endloop
  endfacet
  facet normal -0 0 -1
    outer loop
      vertex 135.37 107.26 0
      vertex 114.85 89.32 0
      vertex 114.85 107.26 0
    endloop
  endfacet
  facet normal 0 0 -1
    outer loop
      vertex 114.85 44.66 0
      vertex 135.37 62.66 0
      vertex 135.37 44.66 0
    endloop
  endfacet
  facet normal -0 0 -1
    outer loop
      vertex 135.37 62.66 0
      vertex 114.85 44.66 0
      vertex 114.85 62.66 0
    endloop
  endfacet
  facet normal 0 0 -1
    outer loop
      vertex 137.87 89.32 0
      vertex 158.39 107.26 0
      vertex 158.39 89.32 0
    endloop
  endfacet
  facet normal -0 0 -1
    outer loop
      vertex 158.39 107.26 0
      vertex 137.87 89.32 0
      vertex 137.87 107.26 0
    endloop
  endfacet
  facet normal 0 0 -1
    outer loop
      vertex 137.87 44.66 0
      vertex 158.39 62.66 0
      vertex 158.39 44.66 0
    endloop
  endfacet
  facet normal -0 0 -1
    outer loop
      vertex 158.39 62.66 0
      vertex 137.87 44.66 0
      vertex 137.87 62.66 0
    endloop
  endfacet
  facet normal 0 0 -1
    outer loop
      vertex 160.89 89.32 0
      vertex 181.41 107.26 0
      vertex 181.41 89.32 0
    endloop
  endfacet
  facet normal -0 0 -1
    outer loop
      vertex 181.41 107.26 0
      vertex 160.89 89.32 0
      vertex 160.89 107.26 0
    endloop
  endfacet
  facet normal 0 0 -1
    outer loop
      vertex 160.89 44.66 0
      vertex 181.41 62.66 0
      vertex 181.41 44.66 0
    endloop
  endfacet
  facet normal -0 0 -1
    outer loop
      vertex 181.41 62.66 0
      vertex 160.89 44.66 0
      vertex 160.89 62.66 0
    endloop
  endfacet
  facet normal 0 0 -1
    outer loop
      vertex 181.41 44.66 0
      vertex 183.66 -2.5 0
      vertex 181.41 17.25 0
    endloop
  endfacet
  facet normal 0 0 -1
    outer loop
      vertex 183.66 -2.5 0
      vertex 160.89 17.25 0
      vertex 181.41 17.25 0
    endloop
  endfacet
  facet normal 0 0 -1
    outer loop
      vertex 158.39 44.66 0
      vertex 160.89 44.66 0
      vertex 160.89 17.25 0
    endloop
  endfacet
  facet normal 0 0 -1
    outer loop
      vertex 160.89 44.66 0
      vertex 158.39 44.66 0
      vertex 160.89 62.66 0
    endloop
  endfacet
  facet normal 0 0 -1
    outer loop
      vertex 160.89 62.66 0
      vertex 158.39 62.66 0
      vertex 160.89 89.32 0
    endloop
  endfacet
  facet normal 0 0 -1
    outer loop
      vertex 158.39 89.32 0
      vertex 160.89 89.32 0
      vertex 158.39 62.66 0
    endloop
  endfacet
  facet normal 0 0 -1
    outer loop
      vertex 158.39 44.66 0
      vertex 160.89 17.25 0
      vertex 158.39 17.25 0
    endloop
  endfacet
  facet normal 0 0 -1
    outer loop
      vertex 183.66 -2.5 0
      vertex 158.39 17.25 0
      vertex 160.89 17.25 0
    endloop
  endfacet
  facet normal 0 0 -1
    outer loop
      vertex 183.66 -2.5 0
      vertex 137.87 17.25 0
      vertex 158.39 17.25 0
    endloop
  endfacet
  facet normal 0 0 -1
    outer loop
      vertex 135.37 44.66 0
      vertex 137.87 44.66 0
      vertex 137.87 17.25 0
    endloop
  endfacet
  facet normal 0 0 -1
    outer loop
      vertex 137.87 44.66 0
      vertex 135.37 44.66 0
      vertex 137.87 62.66 0
    endloop
  endfacet
  facet normal 0 0 -1
    outer loop
      vertex 137.87 62.66 0
      vertex 135.37 62.66 0
      vertex 137.87 89.32 0
    endloop
  endfacet
  facet normal 0 0 -1
    outer loop
      vertex 135.37 89.32 0
      vertex 137.87 89.32 0
      vertex 135.37 62.66 0
    endloop
  endfacet
  facet normal 0 0 -1
    outer loop
      vertex 135.37 44.66 0
      vertex 137.87 17.25 0
      vertex 135.37 17.25 0
    endloop
  endfacet
  facet normal 0 0 -1
    outer loop
      vertex 183.66 -2.5 0
      vertex 135.37 17.25 0
      vertex 137.87 17.25 0
    endloop
  endfacet
  facet normal 0 0 -1
    outer loop
      vertex 183.66 -2.5 0
      vertex 114.85 17.25 0
      vertex 135.37 17.25 0
    endloop
  endfacet
  facet normal 0 0 -1
    outer loop
      vertex 112.35 44.66 0
      vertex 114.85 44.66 0
      vertex 114.85 17.25 0
    endloop
  endfacet
  facet normal 0 0 -1
    outer loop
      vertex 114.85 44.66 0
      vertex 112.35 44.66 0
      vertex 114.85 62.66 0
    endloop
  endfacet
  facet normal 0 0 -1
    outer loop
      vertex 114.85 62.66 0
      vertex 112.35 62.66 0
      vertex 114.85 89.32 0
    endloop
  endfacet
  facet normal 0 0 -1
    outer loop
      vertex 112.35 89.32 0
      vertex 114.85 89.32 0
      vertex 112.35 62.66 0
    endloop
  endfacet
  facet normal 0 0 -1
    outer loop
      vertex 112.35 44.66 0
      vertex 114.85 17.25 0
      vertex 112.35 17.25 0
    endloop
  endfacet
  facet normal 0 0 -1
    outer loop
      vertex 183.66 -2.5 0
      vertex 112.35 17.25 0
      vertex 114.85 17.25 0
    endloop
  endfacet
  facet normal 0 0 -1
    outer loop
      vertex 183.66 -2.5 0
      vertex 91.83 17.25 0
      vertex 112.35 17.25 0
    endloop
  endfacet
  facet normal 0 0 -1
    outer loop
      vertex 89.33 44.66 0
      vertex 91.83 44.66 0
      vertex 91.83 17.25 0
    endloop
  endfacet
  facet normal 0 0 -1
    outer loop
      vertex 91.83 44.66 0
      vertex 89.33 44.66 0
      vertex 91.83 62.66 0
    endloop
  endfacet
  facet normal 0 0 -1
    outer loop
      vertex 91.83 62.66 0
      vertex 89.33 62.66 0
      vertex 91.83 89.32 0
    endloop
  endfacet
  facet normal 0 0 -1
    outer loop
      vertex 89.33 89.32 0
      vertex 91.83 89.32 0
      vertex 89.33 62.66 0
    endloop
  endfacet
  facet normal 0 0 -1
    outer loop
      vertex 89.33 44.66 0
      vertex 91.83 17.25 0
      vertex 89.33 17.25 0
    endloop
  endfacet
  facet normal 0 0 -1
    outer loop
      vertex 183.66 -2.5 0
      vertex 89.33 17.25 0
      vertex 91.83 17.25 0
    endloop
  endfacet
  facet normal 0 0 -1
    outer loop
      vertex -2.5 -2.5 0
      vertex 89.33 17.25 0
      vertex 183.66 -2.5 0
    endloop
  endfacet
  facet normal 0 0 -1
    outer loop
      vertex 66.31 44.66 0
      vertex 68.81 44.66 0
      vertex 68.81 17.25 0
    endloop
  endfacet
  facet normal 0 0 -1
    outer loop
      vertex 68.81 44.66 0
      vertex 66.31 44.66 0
      vertex 68.81 62.66 0
    endloop
  endfacet
  facet normal 0 0 -1
    outer loop
      vertex 68.81 62.66 0
      vertex 66.31 62.66 0
      vertex 68.81 89.32 0
    endloop
  endfacet
  facet normal 0 0 -1
    outer loop
      vertex 66.31 89.32 0
      vertex 68.81 89.32 0
      vertex 66.31 62.66 0
    endloop
  endfacet
  facet normal 0 0 -1
    outer loop
      vertex 66.31 44.66 0
      vertex 68.81 17.25 0
      vertex 66.31 17.25 0
    endloop
  endfacet
  facet normal -0 0 -1
    outer loop
      vertex 89.33 17.25 0
      vertex -2.5 -2.5 0
      vertex 68.81 17.25 0
    endloop
  endfacet
  facet normal -0 0 -1
    outer loop
      vertex 68.81 17.25 0
      vertex -2.5 -2.5 0
      vertex 66.31 17.25 0
    endloop
  endfacet
  facet normal 0 0 -1
    outer loop
      vertex 43.29 44.66 0
      vertex 45.79 44.66 0
      vertex 45.79 17.25 0
    endloop
  endfacet
  facet normal 0 0 -1
    outer loop
      vertex 45.79 44.66 0
      vertex 43.29 44.66 0
      vertex 45.79 62.66 0
    endloop
  endfacet
  facet normal 0 0 -1
    outer loop
      vertex 45.79 62.66 0
      vertex 43.29 62.66 0
      vertex 45.79 89.32 0
    endloop
  endfacet
  facet normal 0 0 -1
    outer loop
      vertex 43.29 89.32 0
      vertex 45.79 89.32 0
      vertex 43.29 62.66 0
    endloop
  endfacet
  facet normal 0 0 -1
    outer loop
      vertex 43.29 44.66 0
      vertex 45.79 17.25 0
      vertex 43.29 17.25 0
    endloop
  endfacet
  facet normal -0 0 -1
    outer loop
      vertex 66.31 17.25 0
      vertex -2.5 -2.5 0
      vertex 45.79 17.25 0
    endloop
  endfacet
  facet normal -0 0 -1
    outer loop
      vertex 45.79 17.25 0
      vertex -2.5 -2.5 0
      vertex 43.29 17.25 0
    endloop
  endfacet
  facet normal 0 0 -1
    outer loop
      vertex 20.27 44.66 0
      vertex 22.77 44.66 0
      vertex 22.77 17.25 0
    endloop
  endfacet
  facet normal 0 0 -1
    outer loop
      vertex 22.77 44.66 0
      vertex 20.27 44.66 0
      vertex 22.77 62.66 0
    endloop
  endfacet
  facet normal 0 0 -1
    outer loop
      vertex 22.77 62.66 0
      vertex 20.27 62.66 0
      vertex 22.77 89.32 0
    endloop
  endfacet
  facet normal 0 0 -1
    outer loop
      vertex 20.27 89.32 0
      vertex 22.77 89.32 0
      vertex 20.27 62.66 0
    endloop
  endfacet
  facet normal 0 0 -1
    outer loop
      vertex 20.27 44.66 0
      vertex 22.77 17.25 0
      vertex 20.27 17.25 0
    endloop
  endfacet
  facet normal -0 0 -1
    outer loop
      vertex 43.29 17.25 0
      vertex -2.5 -2.5 0
      vertex 22.77 17.25 0
    endloop
  endfacet
  facet normal -0 0 -1
    outer loop
      vertex 22.77 17.25 0
      vertex -2.5 -2.5 0
      vertex 20.27 17.25 0
    endloop
  endfacet
  facet normal 0 0 -1
    outer loop
      vertex -2.5 -2.5 0
      vertex -0.25 44.66 0
      vertex -0.25 17.25 0
    endloop
  endfacet
  facet normal -0 0 -1
    outer loop
      vertex -0.25 44.66 0
      vertex -2.5 -2.5 0
      vertex -0.25 62.66 0
    endloop
  endfacet
  facet normal 0 0 -1
    outer loop
      vertex -0.25 62.66 0
      vertex -2.5 109.82 0
      vertex -0.25 89.32 0
    endloop
  endfacet
  facet normal 0 0 -1
    outer loop
      vertex -0.25 89.32 0
      vertex -2.5 109.82 0
      vertex -0.25 107.26 0
    endloop
  endfacet
  facet normal -0 0 -1
    outer loop
      vertex -0.25 62.66 0
      vertex -2.5 -2.5 0
      vertex -2.5 109.82 0
    endloop
  endfacet
  facet normal -0 0 -1
    outer loop
      vertex 20.27 17.25 0
      vertex -2.5 -2.5 0
      vertex -0.25 17.25 0
    endloop
  endfacet
  facet normal 0 0 -1
    outer loop
      vertex 183.66 -2.5 0
      vertex 181.41 44.66 0
      vertex 183.66 109.82 0
    endloop
  endfacet
  facet normal 0 0 -1
    outer loop
      vertex 181.41 62.66 0
      vertex 183.66 109.82 0
      vertex 181.41 44.66 0
    endloop
  endfacet
  facet normal 0 0 -1
    outer loop
      vertex 181.41 89.32 0
      vertex 183.66 109.82 0
      vertex 181.41 62.66 0
    endloop
  endfacet
  facet normal 0 0 -1
    outer loop
      vertex 181.41 107.26 0
      vertex 183.66 109.82 0
      vertex 181.41 89.32 0
    endloop
  endfacet
  facet normal 0 0 -1
    outer loop
      vertex 181.41 107.57 0
      vertex 183.66 109.82 0
      vertex 181.41 107.26 0
    endloop
  endfacet
  facet normal 0 0 -1
    outer loop
      vertex 160.89 107.57 0
      vertex 183.66 109.82 0
      vertex 181.41 107.57 0
    endloop
  endfacet
  facet normal -0 0 -1
    outer loop
      vertex 160.89 62.66 0
      vertex 158.39 44.66 0
      vertex 158.39 62.66 0
    endloop
  endfacet
  facet normal 0 0 -1
    outer loop
      vertex 160.89 89.32 0
      vertex 158.39 89.32 0
      vertex 160.89 107.26 0
    endloop
  endfacet
  facet normal 0 0 -1
    outer loop
      vertex 158.39 107.26 0
      vertex 160.89 107.26 0
      vertex 158.39 89.32 0
    endloop
  endfacet
  facet normal 0 0 -1
    outer loop
      vertex 160.89 107.26 0
      vertex 158.39 107.26 0
      vertex 160.89 107.57 0
    endloop
  endfacet
  facet normal 0 0 -1
    outer loop
      vertex 158.39 107.57 0
      vertex 160.89 107.57 0
      vertex 158.39 107.26 0
    endloop
  endfacet
  facet normal 0 0 -1
    outer loop
      vertex 158.39 107.57 0
      vertex 183.66 109.82 0
      vertex 160.89 107.57 0
    endloop
  endfacet
  facet normal 0 0 -1
    outer loop
      vertex 137.87 107.57 0
      vertex 183.66 109.82 0
      vertex 158.39 107.57 0
    endloop
  endfacet
  facet normal -0 0 -1
    outer loop
      vertex 137.87 62.66 0
      vertex 135.37 44.66 0
      vertex 135.37 62.66 0
    endloop
  endfacet
  facet normal 0 0 -1
    outer loop
      vertex 137.87 89.32 0
      vertex 135.37 89.32 0
      vertex 137.87 107.26 0
    endloop
  endfacet
  facet normal 0 0 -1
    outer loop
      vertex 135.37 107.26 0
      vertex 137.87 107.26 0
      vertex 135.37 89.32 0
    endloop
  endfacet
  facet normal 0 0 -1
    outer loop
      vertex 137.87 107.26 0
      vertex 135.37 107.26 0
      vertex 137.87 107.57 0
    endloop
  endfacet
  facet normal 0 0 -1
    outer loop
      vertex 135.37 107.57 0
      vertex 137.87 107.57 0
      vertex 135.37 107.26 0
    endloop
  endfacet
  facet normal 0 0 -1
    outer loop
      vertex 135.37 107.57 0
      vertex 183.66 109.82 0
      vertex 137.87 107.57 0
    endloop
  endfacet
  facet normal 0 0 -1
    outer loop
      vertex 114.85 107.57 0
      vertex 183.66 109.82 0
      vertex 135.37 107.57 0
    endloop
  endfacet
  facet normal -0 0 -1
    outer loop
      vertex 114.85 62.66 0
      vertex 112.35 44.66 0
      vertex 112.35 62.66 0
    endloop
  endfacet
  facet normal 0 0 -1
    outer loop
      vertex 114.85 89.32 0
      vertex 112.35 89.32 0
      vertex 114.85 107.26 0
    endloop
  endfacet
  facet normal 0 0 -1
    outer loop
      vertex 112.35 107.26 0
      vertex 114.85 107.26 0
      vertex 112.35 89.32 0
    endloop
  endfacet
  facet normal 0 0 -1
    outer loop
      vertex 114.85 107.26 0
      vertex 112.35 107.26 0
      vertex 114.85 107.57 0
    endloop
  endfacet
  facet normal 0 0 -1
    outer loop
      vertex 112.35 107.57 0
      vertex 114.85 107.57 0
      vertex 112.35 107.26 0
    endloop
  endfacet
  facet normal 0 0 -1
    outer loop
      vertex 112.35 107.57 0
      vertex 183.66 109.82 0
      vertex 114.85 107.57 0
    endloop
  endfacet
  facet normal 0 0 -1
    outer loop
      vertex 91.83 107.57 0
      vertex 183.66 109.82 0
      vertex 112.35 107.57 0
    endloop
  endfacet
  facet normal -0 0 -1
    outer loop
      vertex 91.83 62.66 0
      vertex 89.33 44.66 0
      vertex 89.33 62.66 0
    endloop
  endfacet
  facet normal 0 0 -1
    outer loop
      vertex 91.83 89.32 0
      vertex 89.33 89.32 0
      vertex 91.83 107.26 0
    endloop
  endfacet
  facet normal 0 0 -1
    outer loop
      vertex 89.33 107.26 0
      vertex 91.83 107.26 0
      vertex 89.33 89.32 0
    endloop
  endfacet
  facet normal 0 0 -1
    outer loop
      vertex 91.83 107.26 0
      vertex 89.33 107.26 0
      vertex 91.83 107.57 0
    endloop
  endfacet
  facet normal 0 0 -1
    outer loop
      vertex 89.33 107.57 0
      vertex 91.83 107.57 0
      vertex 89.33 107.26 0
    endloop
  endfacet
  facet normal 0 0 -1
    outer loop
      vertex 89.33 107.57 0
      vertex 183.66 109.82 0
      vertex 91.83 107.57 0
    endloop
  endfacet
  facet normal 0 0 -1
    outer loop
      vertex 68.81 107.57 0
      vertex 183.66 109.82 0
      vertex 89.33 107.57 0
    endloop
  endfacet
  facet normal -0 0 -1
    outer loop
      vertex 68.81 62.66 0
      vertex 66.31 44.66 0
      vertex 66.31 62.66 0
    endloop
  endfacet
  facet normal 0 0 -1
    outer loop
      vertex 68.81 89.32 0
      vertex 66.31 89.32 0
      vertex 68.81 107.26 0
    endloop
  endfacet
  facet normal 0 0 -1
    outer loop
      vertex 66.31 107.26 0
      vertex 68.81 107.26 0
      vertex 66.31 89.32 0
    endloop
  endfacet
  facet normal 0 0 -1
    outer loop
      vertex 68.81 107.26 0
      vertex 66.31 107.26 0
      vertex 68.81 107.57 0
    endloop
  endfacet
  facet normal 0 0 -1
    outer loop
      vertex 66.31 107.57 0
      vertex 68.81 107.57 0
      vertex 66.31 107.26 0
    endloop
  endfacet
  facet normal 0 0 -1
    outer loop
      vertex -2.5 109.82 0
      vertex 68.81 107.57 0
      vertex 66.31 107.57 0
    endloop
  endfacet
  facet normal 0 0 -1
    outer loop
      vertex -2.5 109.82 0
      vertex 66.31 107.57 0
      vertex 45.79 107.57 0
    endloop
  endfacet
  facet normal -0 0 -1
    outer loop
      vertex 45.79 62.66 0
      vertex 43.29 44.66 0
      vertex 43.29 62.66 0
    endloop
  endfacet
  facet normal 0 0 -1
    outer loop
      vertex 45.79 89.32 0
      vertex 43.29 89.32 0
      vertex 45.79 107.26 0
    endloop
  endfacet
  facet normal 0 0 -1
    outer loop
      vertex 43.29 107.26 0
      vertex 45.79 107.26 0
      vertex 43.29 89.32 0
    endloop
  endfacet
  facet normal 0 0 -1
    outer loop
      vertex 45.79 107.26 0
      vertex 43.29 107.26 0
      vertex 45.79 107.57 0
    endloop
  endfacet
  facet normal 0 0 -1
    outer loop
      vertex 43.29 107.57 0
      vertex 45.79 107.57 0
      vertex 43.29 107.26 0
    endloop
  endfacet
  facet normal 0 0 -1
    outer loop
      vertex -2.5 109.82 0
      vertex 45.79 107.57 0
      vertex 43.29 107.57 0
    endloop
  endfacet
  facet normal 0 0 -1
    outer loop
      vertex -2.5 109.82 0
      vertex 43.29 107.57 0
      vertex 22.77 107.57 0
    endloop
  endfacet
  facet normal -0 0 -1
    outer loop
      vertex 22.77 62.66 0
      vertex 20.27 44.66 0
      vertex 20.27 62.66 0
    endloop
  endfacet
  facet normal 0 0 -1
    outer loop
      vertex 22.77 89.32 0
      vertex 20.27 89.32 0
      vertex 22.77 107.26 0
    endloop
  endfacet
  facet normal 0 0 -1
    outer loop
      vertex 20.27 107.26 0
      vertex 22.77 107.26 0
      vertex 20.27 89.32 0
    endloop
  endfacet
  facet normal 0 0 -1
    outer loop
      vertex 22.77 107.26 0
      vertex 20.27 107.26 0
      vertex 22.77 107.57 0
    endloop
  endfacet
  facet normal 0 0 -1
    outer loop
      vertex 20.27 107.57 0
      vertex 22.77 107.57 0
      vertex 20.27 107.26 0
    endloop
  endfacet
  facet normal 0 0 -1
    outer loop
      vertex -2.5 109.82 0
      vertex 22.77 107.57 0
      vertex 20.27 107.57 0
    endloop
  endfacet
  facet normal 0 0 -1
    outer loop
      vertex -2.5 109.82 0
      vertex 20.27 107.57 0
      vertex -0.25 107.57 0
    endloop
  endfacet
  facet normal 0 0 -1
    outer loop
      vertex 68.81 107.57 0
      vertex -2.5 109.82 0
      vertex 183.66 109.82 0
    endloop
  endfacet
  facet normal 0 0 -1
    outer loop
      vertex -0.25 107.26 0
      vertex -2.5 109.82 0
      vertex -0.25 107.57 0
    endloop
  endfacet
  facet normal 0 -1 0
    outer loop
      vertex -2.5 -2.5 0
      vertex 183.66 -2.5 3.2
      vertex -2.5 -2.5 3.2
    endloop
  endfacet
  facet normal 0 -1 -0
    outer loop
      vertex 183.66 -2.5 3.2
      vertex -2.5 -2.5 0
      vertex 183.66 -2.5 0
    endloop
  endfacet
  facet normal 1 0 0
    outer loop
      vertex -0.25 107.57 3.2
      vertex -0.25 107.26 1.6
      vertex -0.25 107.57 0
    endloop
  endfacet
  facet normal 1 0 0
    outer loop
      vertex -0.25 107.57 3.2
      vertex -0.25 89.32 1.6
      vertex -0.25 107.26 1.6
    endloop
  endfacet
  facet normal 1 0 0
    outer loop
      vertex -0.25 89.32 1.6
      vertex -0.25 62.66 1.6
      vertex -0.25 89.32 0
    endloop
  endfacet
  facet normal 1 0 0
    outer loop
      vertex -0.25 107.57 3.2
      vertex -0.25 62.66 1.6
      vertex -0.25 89.32 1.6
    endloop
  endfacet
  facet normal 1 0 0
    outer loop
      vertex -0.25 107.57 3.2
      vertex -0.25 44.66 1.6
      vertex -0.25 62.66 1.6
    endloop
  endfacet
  facet normal 1 0 0
    outer loop
      vertex -0.25 44.66 1.6
      vertex -0.25 17.25 1.6
      vertex -0.25 44.66 0
    endloop
  endfacet
  facet normal 1 -0 0
    outer loop
      vertex -0.25 -0.25 3.2
      vertex -0.25 44.66 1.6
      vertex -0.25 107.57 3.2
    endloop
  endfacet
  facet normal 1 0 0
    outer loop
      vertex -0.25 44.66 1.6
      vertex -0.25 -0.25 3.2
      vertex -0.25 17.25 1.6
    endloop
  endfacet
  facet normal 1 0 0
    outer loop
      vertex -0.25 17.25 1.6
      vertex -0.25 -0.25 3.2
      vertex -0.25 -0.25 1.6
    endloop
  endfacet
  facet normal 1 0 0
    outer loop
      vertex -0.25 107.57 0
      vertex -0.25 107.26 1.6
      vertex -0.25 107.26 0
    endloop
  endfacet
  facet normal 1 0 0
    outer loop
      vertex -0.25 89.32 0
      vertex -0.25 62.66 1.6
      vertex -0.25 62.66 0
    endloop
  endfacet
  facet normal 1 0 0
    outer loop
      vertex -0.25 44.66 0
      vertex -0.25 17.25 1.6
      vertex -0.25 17.25 0
    endloop
  endfacet
  facet normal -1 0 0
    outer loop
      vertex 20.27 44.66 0
      vertex 20.27 17.25 0
      vertex 20.27 44.66 1.6
    endloop
  endfacet
  facet normal -1 0 0
    outer loop
      vertex 20.27 89.32 0
      vertex 20.27 62.66 0
      vertex 20.27 89.32 1.6
    endloop
  endfacet
  facet normal -1 0 0
    outer loop
      vertex 20.27 107.26 1.6
      vertex 20.27 107.57 0
      vertex 20.27 107.26 0
    endloop
  endfacet
  facet normal -1 0 0
    outer loop
      vertex 20.27 107.57 0
      vertex 20.27 107.26 1.6
      vertex 20.27 107.57 3.2
    endloop
  endfacet
  facet normal -1 0 0
    outer loop
      vertex 20.27 89.32 1.6
      vertex 20.27 107.57 3.2
      vertex 20.27 107.26 1.6
    endloop
  endfacet
  facet normal -1 0 0
    outer loop
      vertex 20.27 62.66 1.6
      vertex 20.27 89.32 1.6
      vertex 20.27 62.66 0
    endloop
  endfacet
  facet normal -1 0 0
    outer loop
      vertex 20.27 89.32 1.6
      vertex 20.27 62.66 1.6
      vertex 20.27 107.57 3.2
    endloop
  endfacet
  facet normal -1 0 0
    outer loop
      vertex 20.27 44.66 1.6
      vertex 20.27 107.57 3.2
      vertex 20.27 62.66 1.6
    endloop
  endfacet
  facet normal -1 0 0
    outer loop
      vertex 20.27 17.25 1.6
      vertex 20.27 44.66 1.6
      vertex 20.27 17.25 0
    endloop
  endfacet
  facet normal -1 0 0
    outer loop
      vertex 20.27 -0.25 3.2
      vertex 20.27 44.66 1.6
      vertex 20.27 17.25 1.6
    endloop
  endfacet
  facet normal -1 0 0
    outer loop
      vertex 20.27 -0.25 3.2
      vertex 20.27 17.25 1.6
      vertex 20.27 -0.25 1.6
    endloop
  endfacet
  facet normal -1 0 0
    outer loop
      vertex 20.27 44.66 1.6
      vertex 20.27 -0.25 3.2
      vertex 20.27 107.57 3.2
    endloop
  endfacet
  facet normal 0 -1 0
    outer loop
      vertex -0.25 107.57 0
      vertex 20.27 107.57 3.2
      vertex -0.25 107.57 3.2
    endloop
  endfacet
  facet normal 0 -1 -0
    outer loop
      vertex 20.27 107.57 3.2
      vertex -0.25 107.57 0
      vertex 20.27 107.57 0
    endloop
  endfacet
  facet normal 0 1 -0
    outer loop
      vertex 20.27 -0.25 1.6
      vertex -0.25 -0.25 3.2
      vertex 20.27 -0.25 3.2
    endloop
  endfacet
  facet normal 0 1 0
    outer loop
      vertex -0.25 -0.25 3.2
      vertex 20.27 -0.25 1.6
      vertex -0.25 -0.25 1.6
    endloop
  endfacet
  facet normal -0 0 1
    outer loop
      vertex -0.25 17.25 1.6
      vertex 20.27 -0.25 1.6
      vertex 20.27 17.25 1.6
    endloop
  endfacet
  facet normal 0 0 1
    outer loop
      vertex 20.27 -0.25 1.6
      vertex -0.25 17.25 1.6
      vertex -0.25 -0.25 1.6
    endloop
  endfacet
  facet normal 0 1 -0
    outer loop
      vertex 20.27 17.25 0
      vertex -0.25 17.25 1.6
      vertex 20.27 17.25 1.6
    endloop
  endfacet
  facet normal 0 1 0
    outer loop
      vertex -0.25 17.25 1.6
      vertex 20.27 17.25 0
      vertex -0.25 17.25 0
    endloop
  endfacet
  facet normal -0 0 1
    outer loop
      vertex -0.25 62.66 1.6
      vertex 20.27 44.66 1.6
      vertex 20.27 62.66 1.6
    endloop
  endfacet
  facet normal 0 0 1
    outer loop
      vertex 20.27 44.66 1.6
      vertex -0.25 62.66 1.6
      vertex -0.25 44.66 1.6
    endloop
  endfacet
  facet normal 0 1 -0
    outer loop
      vertex 20.27 62.66 0
      vertex -0.25 62.66 1.6
      vertex 20.27 62.66 1.6
    endloop
  endfacet
  facet normal 0 1 0
    outer loop
      vertex -0.25 62.66 1.6
      vertex 20.27 62.66 0
      vertex -0.25 62.66 0
    endloop
  endfacet
  facet normal 0 -1 0
    outer loop
      vertex -0.25 44.66 0
      vertex 20.27 44.66 1.6
      vertex -0.25 44.66 1.6
    endloop
  endfacet
  facet normal 0 -1 -0
    outer loop
      vertex 20.27 44.66 1.6
      vertex -0.25 44.66 0
      vertex 20.27 44.66 0
    endloop
  endfacet
  facet normal -0 0 1
    outer loop
      vertex -0.25 107.26 1.6
      vertex 20.27 89.32 1.6
      vertex 20.27 107.26 1.6
    endloop
  endfacet
  facet normal 0 0 1
    outer loop
      vertex 20.27 89.32 1.6
      vertex -0.25 107.26 1.6
      vertex -0.25 89.32 1.6
    endloop
  endfacet
  facet normal 0 -1 0
    outer loop
      vertex -0.25 89.32 0
      vertex 20.27 89.32 1.6
      vertex -0.25 89.32 1.6
    endloop
  endfacet
  facet normal 0 -1 -0
    outer loop
      vertex 20.27 89.32 1.6
      vertex -0.25 89.32 0
      vertex 20.27 89.32 0
    endloop
  endfacet
  facet normal 0 1 -0
    outer loop
      vertex 20.27 107.26 0
      vertex -0.25 107.26 1.6
      vertex 20.27 107.26 1.6
    endloop
  endfacet
  facet normal 0 1 0
    outer loop
      vertex -0.25 107.26 1.6
      vertex 20.27 107.26 0
      vertex -0.25 107.26 0
    endloop
  endfacet
  facet normal 1 0 0
    outer loop
      vertex 22.77 107.57 3.2
      vertex 22.77 107.26 1.6
      vertex 22.77 107.57 0
    endloop
  endfacet
  facet normal 1 0 0
    outer loop
      vertex 22.77 107.57 3.2
      vertex 22.77 89.32 1.6
      vertex 22.77 107.26 1.6
    endloop
  endfacet
  facet normal 1 0 0
    outer loop
      vertex 22.77 89.32 1.6
      vertex 22.77 62.66 1.6
      vertex 22.77 89.32 0
    endloop
  endfacet
  facet normal 1 0 0
    outer loop
      vertex 22.77 107.57 3.2
      vertex 22.77 62.66 1.6
      vertex 22.77 89.32 1.6
    endloop
  endfacet
  facet normal 1 0 0
    outer loop
      vertex 22.77 107.57 3.2
      vertex 22.77 44.66 1.6
      vertex 22.77 62.66 1.6
    endloop
  endfacet
  facet normal 1 0 0
    outer loop
      vertex 22.77 44.66 1.6
      vertex 22.77 17.25 1.6
      vertex 22.77 44.66 0
    endloop
  endfacet
  facet normal 1 -0 0
    outer loop
      vertex 22.77 -0.25 3.2
      vertex 22.77 44.66 1.6
      vertex 22.77 107.57 3.2
    endloop
  endfacet
  facet normal 1 0 0
    outer loop
      vertex 22.77 44.66 1.6
      vertex 22.77 -0.25 3.2
      vertex 22.77 17.25 1.6
    endloop
  endfacet
  facet normal 1 0 0
    outer loop
      vertex 22.77 17.25 1.6
      vertex 22.77 -0.25 3.2
      vertex 22.77 -0.25 1.6
    endloop
  endfacet
  facet normal 1 0 0
    outer loop
      vertex 22.77 107.57 0
      vertex 22.77 107.26 1.6
      vertex 22.77 107.26 0
    endloop
  endfacet
  facet normal 1 0 0
    outer loop
      vertex 22.77 89.32 0
      vertex 22.77 62.66 1.6
      vertex 22.77 62.66 0
    endloop
  endfacet
  facet normal 1 0 0
    outer loop
      vertex 22.77 44.66 0
      vertex 22.77 17.25 1.6
      vertex 22.77 17.25 0
    endloop
  endfacet
  facet normal -1 0 0
    outer loop
      vertex 43.29 44.66 0
      vertex 43.29 17.25 0
      vertex 43.29 44.66 1.6
    endloop
  endfacet
  facet normal -1 0 0
    outer loop
      vertex 43.29 89.32 0
      vertex 43.29 62.66 0
      vertex 43.29 89.32 1.6
    endloop
  endfacet
  facet normal -1 0 0
    outer loop
      vertex 43.29 107.26 1.6
      vertex 43.29 107.57 0
      vertex 43.29 107.26 0
    endloop
  endfacet
  facet normal -1 0 0
    outer loop
      vertex 43.29 107.57 0
      vertex 43.29 107.26 1.6
      vertex 43.29 107.57 3.2
    endloop
  endfacet
  facet normal -1 0 0
    outer loop
      vertex 43.29 89.32 1.6
      vertex 43.29 107.57 3.2
      vertex 43.29 107.26 1.6
    endloop
  endfacet
  facet normal -1 0 0
    outer loop
      vertex 43.29 62.66 1.6
      vertex 43.29 89.32 1.6
      vertex 43.29 62.66 0
    endloop
  endfacet
  facet normal -1 0 0
    outer loop
      vertex 43.29 89.32 1.6
      vertex 43.29 62.66 1.6
      vertex 43.29 107.57 3.2
    endloop
  endfacet
  facet normal -1 0 0
    outer loop
      vertex 43.29 44.66 1.6
      vertex 43.29 107.57 3.2
      vertex 43.29 62.66 1.6
    endloop
  endfacet
  facet normal -1 0 0
    outer loop
      vertex 43.29 17.25 1.6
      vertex 43.29 44.66 1.6
      vertex 43.29 17.25 0
    endloop
  endfacet
  facet normal -1 0 0
    outer loop
      vertex 43.29 -0.25 3.2
      vertex 43.29 44.66 1.6
      vertex 43.29 17.25 1.6
    endloop
  endfacet
  facet normal -1 0 0
    outer loop
      vertex 43.29 -0.25 3.2
      vertex 43.29 17.25 1.6
      vertex 43.29 -0.25 1.6
    endloop
  endfacet
  facet normal -1 0 0
    outer loop
      vertex 43.29 44.66 1.6
      vertex 43.29 -0.25 3.2
      vertex 43.29 107.57 3.2
    endloop
  endfacet
  facet normal 0 -1 0
    outer loop
      vertex 22.77 107.57 0
      vertex 43.29 107.57 3.2
      vertex 22.77 107.57 3.2
    endloop
  endfacet
  facet normal 0 -1 -0
    outer loop
      vertex 43.29 107.57 3.2
      vertex 22.77 107.57 0
      vertex 43.29 107.57 0
    endloop
  endfacet
  facet normal 0 1 -0
    outer loop
      vertex 43.29 -0.25 1.6
      vertex 22.77 -0.25 3.2
      vertex 43.29 -0.25 3.2
    endloop
  endfacet
  facet normal 0 1 0
    outer loop
      vertex 22.77 -0.25 3.2
      vertex 43.29 -0.25 1.6
      vertex 22.77 -0.25 1.6
    endloop
  endfacet
  facet normal -0 0 1
    outer loop
      vertex 22.77 17.25 1.6
      vertex 43.29 -0.25 1.6
      vertex 43.29 17.25 1.6
    endloop
  endfacet
  facet normal 0 0 1
    outer loop
      vertex 43.29 -0.25 1.6
      vertex 22.77 17.25 1.6
      vertex 22.77 -0.25 1.6
    endloop
  endfacet
  facet normal 0 1 -0
    outer loop
      vertex 43.29 17.25 0
      vertex 22.77 17.25 1.6
      vertex 43.29 17.25 1.6
    endloop
  endfacet
  facet normal 0 1 0
    outer loop
      vertex 22.77 17.25 1.6
      vertex 43.29 17.25 0
      vertex 22.77 17.25 0
    endloop
  endfacet
  facet normal -0 0 1
    outer loop
      vertex 22.77 62.66 1.6
      vertex 43.29 44.66 1.6
      vertex 43.29 62.66 1.6
    endloop
  endfacet
  facet normal 0 0 1
    outer loop
      vertex 43.29 44.66 1.6
      vertex 22.77 62.66 1.6
      vertex 22.77 44.66 1.6
    endloop
  endfacet
  facet normal 0 -1 0
    outer loop
      vertex 22.77 44.66 0
      vertex 43.29 44.66 1.6
      vertex 22.77 44.66 1.6
    endloop
  endfacet
  facet normal 0 -1 -0
    outer loop
      vertex 43.29 44.66 1.6
      vertex 22.77 44.66 0
      vertex 43.29 44.66 0
    endloop
  endfacet
  facet normal 0 1 -0
    outer loop
      vertex 43.29 62.66 0
      vertex 22.77 62.66 1.6
      vertex 43.29 62.66 1.6
    endloop
  endfacet
  facet normal 0 1 0
    outer loop
      vertex 22.77 62.66 1.6
      vertex 43.29 62.66 0
      vertex 22.77 62.66 0
    endloop
  endfacet
  facet normal -0 0 1
    outer loop
      vertex 22.77 107.26 1.6
      vertex 43.29 89.32 1.6
      vertex 43.29 107.26 1.6
    endloop
  endfacet
  facet normal 0 0 1
    outer loop
      vertex 43.29 89.32 1.6
      vertex 22.77 107.26 1.6
      vertex 22.77 89.32 1.6
    endloop
  endfacet
  facet normal 0 1 -0
    outer loop
      vertex 43.29 107.26 0
      vertex 22.77 107.26 1.6
      vertex 43.29 107.26 1.6
    endloop
  endfacet
  facet normal 0 1 0
    outer loop
      vertex 22.77 107.26 1.6
      vertex 43.29 107.26 0
      vertex 22.77 107.26 0
    endloop
  endfacet
  facet normal 0 -1 0
    outer loop
      vertex 22.77 89.32 0
      vertex 43.29 89.32 1.6
      vertex 22.77 89.32 1.6
    endloop
  endfacet
  facet normal 0 -1 -0
    outer loop
      vertex 43.29 89.32 1.6
      vertex 22.77 89.32 0
      vertex 43.29 89.32 0
    endloop
  endfacet
  facet normal 1 0 0
    outer loop
      vertex 45.79 107.57 3.2
      vertex 45.79 107.26 1.6
      vertex 45.79 107.57 0
    endloop
  endfacet
  facet normal 1 0 0
    outer loop
      vertex 45.79 107.57 3.2
      vertex 45.79 89.32 1.6
      vertex 45.79 107.26 1.6
    endloop
  endfacet
  facet normal 1 0 0
    outer loop
      vertex 45.79 89.32 1.6
      vertex 45.79 62.66 1.6
      vertex 45.79 89.32 0
    endloop
  endfacet
  facet normal 1 0 0
    outer loop
      vertex 45.79 107.57 3.2
      vertex 45.79 62.66 1.6
      vertex 45.79 89.32 1.6
    endloop
  endfacet
  facet normal 1 0 0
    outer loop
      vertex 45.79 107.57 3.2
      vertex 45.79 44.66 1.6
      vertex 45.79 62.66 1.6
    endloop
  endfacet
  facet normal 1 0 0
    outer loop
      vertex 45.79 44.66 1.6
      vertex 45.79 17.25 1.6
      vertex 45.79 44.66 0
    endloop
  endfacet
  facet normal 1 -0 0
    outer loop
      vertex 45.79 -0.25 3.2
      vertex 45.79 44.66 1.6
      vertex 45.79 107.57 3.2
    endloop
  endfacet
  facet normal 1 0 0
    outer loop
      vertex 45.79 44.66 1.6
      vertex 45.79 -0.25 3.2
      vertex 45.79 17.25 1.6
    endloop
  endfacet
  facet normal 1 0 0
    outer loop
      vertex 45.79 17.25 1.6
      vertex 45.79 -0.25 3.2
      vertex 45.79 -0.25 1.6
    endloop
  endfacet
  facet normal 1 0 0
    outer loop
      vertex 45.79 107.57 0
      vertex 45.79 107.26 1.6
      vertex 45.79 107.26 0
    endloop
  endfacet
  facet normal 1 0 0
    outer loop
      vertex 45.79 89.32 0
      vertex 45.79 62.66 1.6
      vertex 45.79 62.66 0
    endloop
  endfacet
  facet normal 1 0 0
    outer loop
      vertex 45.79 44.66 0
      vertex 45.79 17.25 1.6
      vertex 45.79 17.25 0
    endloop
  endfacet
  facet normal -1 0 0
    outer loop
      vertex 66.31 44.66 0
      vertex 66.31 17.25 0
      vertex 66.31 44.66 1.6
    endloop
  endfacet
  facet normal -1 0 0
    outer loop
      vertex 66.31 89.32 0
      vertex 66.31 62.66 0
      vertex 66.31 89.32 1.6
    endloop
  endfacet
  facet normal -1 0 0
    outer loop
      vertex 66.31 107.26 1.6
      vertex 66.31 107.57 0
      vertex 66.31 107.26 0
    endloop
  endfacet
  facet normal -1 0 0
    outer loop
      vertex 66.31 107.57 0
      vertex 66.31 107.26 1.6
      vertex 66.31 107.57 3.2
    endloop
  endfacet
  facet normal -1 0 0
    outer loop
      vertex 66.31 89.32 1.6
      vertex 66.31 107.57 3.2
      vertex 66.31 107.26 1.6
    endloop
  endfacet
  facet normal -1 0 0
    outer loop
      vertex 66.31 62.66 1.6
      vertex 66.31 89.32 1.6
      vertex 66.31 62.66 0
    endloop
  endfacet
  facet normal -1 0 0
    outer loop
      vertex 66.31 89.32 1.6
      vertex 66.31 62.66 1.6
      vertex 66.31 107.57 3.2
    endloop
  endfacet
  facet normal -1 0 0
    outer loop
      vertex 66.31 44.66 1.6
      vertex 66.31 107.57 3.2
      vertex 66.31 62.66 1.6
    endloop
  endfacet
  facet normal -1 0 0
    outer loop
      vertex 66.31 17.25 1.6
      vertex 66.31 44.66 1.6
      vertex 66.31 17.25 0
    endloop
  endfacet
  facet normal -1 0 0
    outer loop
      vertex 66.31 -0.25 3.2
      vertex 66.31 44.66 1.6
      vertex 66.31 17.25 1.6
    endloop
  endfacet
  facet normal -1 0 0
    outer loop
      vertex 66.31 -0.25 3.2
      vertex 66.31 17.25 1.6
      vertex 66.31 -0.25 1.6
    endloop
  endfacet
  facet normal -1 0 0
    outer loop
      vertex 66.31 44.66 1.6
      vertex 66.31 -0.25 3.2
      vertex 66.31 107.57 3.2
    endloop
  endfacet
  facet normal 0 1 -0
    outer loop
      vertex 66.31 -0.25 1.6
      vertex 45.79 -0.25 3.2
      vertex 66.31 -0.25 3.2
    endloop
  endfacet
  facet normal 0 1 0
    outer loop
      vertex 45.79 -0.25 3.2
      vertex 66.31 -0.25 1.6
      vertex 45.79 -0.25 1.6
    endloop
  endfacet
  facet normal 0 -1 0
    outer loop
      vertex 45.79 107.57 0
      vertex 66.31 107.57 3.2
      vertex 45.79 107.57 3.2
    endloop
  endfacet
  facet normal 0 -1 -0
    outer loop
      vertex 66.31 107.57 3.2
      vertex 45.79 107.57 0
      vertex 66.31 107.57 0
    endloop
  endfacet
  facet normal -0 0 1
    outer loop
      vertex 45.79 17.25 1.6
      vertex 66.31 -0.25 1.6
      vertex 66.31 17.25 1.6
    endloop
  endfacet
  facet normal 0 0 1
    outer loop
      vertex 66.31 -0.25 1.6
      vertex 45.79 17.25 1.6
      vertex 45.79 -0.25 1.6
    endloop
  endfacet
  facet normal 0 1 -0
    outer loop
      vertex 66.31 17.25 0
      vertex 45.79 17.25 1.6
      vertex 66.31 17.25 1.6
    endloop
  endfacet
  facet normal 0 1 0
    outer loop
      vertex 45.79 17.25 1.6
      vertex 66.31 17.25 0
      vertex 45.79 17.25 0
    endloop
  endfacet
  facet normal -0 0 1
    outer loop
      vertex 45.79 62.66 1.6
      vertex 66.31 44.66 1.6
      vertex 66.31 62.66 1.6
    endloop
  endfacet
  facet normal 0 0 1
    outer loop
      vertex 66.31 44.66 1.6
      vertex 45.79 62.66 1.6
      vertex 45.79 44.66 1.6
    endloop
  endfacet
  facet normal 0 1 -0
    outer loop
      vertex 66.31 62.66 0
      vertex 45.79 62.66 1.6
      vertex 66.31 62.66 1.6
    endloop
  endfacet
  facet normal 0 1 0
    outer loop
      vertex 45.79 62.66 1.6
      vertex 66.31 62.66 0
      vertex 45.79 62.66 0
    endloop
  endfacet
  facet normal 0 -1 0
    outer loop
      vertex 45.79 44.66 0
      vertex 66.31 44.66 1.6
      vertex 45.79 44.66 1.6
    endloop
  endfacet
  facet normal 0 -1 -0
    outer loop
      vertex 66.31 44.66 1.6
      vertex 45.79 44.66 0
      vertex 66.31 44.66 0
    endloop
  endfacet
  facet normal -0 0 1
    outer loop
      vertex 45.79 107.26 1.6
      vertex 66.31 89.32 1.6
      vertex 66.31 107.26 1.6
    endloop
  endfacet
  facet normal 0 0 1
    outer loop
      vertex 66.31 89.32 1.6
      vertex 45.79 107.26 1.6
      vertex 45.79 89.32 1.6
    endloop
  endfacet
  facet normal 0 -1 0
    outer loop
      vertex 45.79 89.32 0
      vertex 66.31 89.32 1.6
      vertex 45.79 89.32 1.6
    endloop
  endfacet
  facet normal 0 -1 -0
    outer loop
      vertex 66.31 89.32 1.6
      vertex 45.79 89.32 0
      vertex 66.31 89.32 0
    endloop
  endfacet
  facet normal 0 1 -0
    outer loop
      vertex 66.31 107.26 0
      vertex 45.79 107.26 1.6
      vertex 66.31 107.26 1.6
    endloop
  endfacet
  facet normal 0 1 0
    outer loop
      vertex 45.79 107.26 1.6
      vertex 66.31 107.26 0
      vertex 45.79 107.26 0
    endloop
  endfacet
  facet normal 1 0 0
    outer loop
      vertex 68.81 107.57 3.2
      vertex 68.81 107.26 1.6
      vertex 68.81 107.57 0
    endloop
  endfacet
  facet normal 1 0 0
    outer loop
      vertex 68.81 107.57 3.2
      vertex 68.81 89.32 1.6
      vertex 68.81 107.26 1.6
    endloop
  endfacet
  facet normal 1 0 0
    outer loop
      vertex 68.81 89.32 1.6
      vertex 68.81 62.66 1.6
      vertex 68.81 89.32 0
    endloop
  endfacet
  facet normal 1 0 0
    outer loop
      vertex 68.81 107.57 3.2
      vertex 68.81 62.66 1.6
      vertex 68.81 89.32 1.6
    endloop
  endfacet
  facet normal 1 0 0
    outer loop
      vertex 68.81 107.57 3.2
      vertex 68.81 44.66 1.6
      vertex 68.81 62.66 1.6
    endloop
  endfacet
  facet normal 1 0 0
    outer loop
      vertex 68.81 44.66 1.6
      vertex 68.81 17.25 1.6
      vertex 68.81 44.66 0
    endloop
  endfacet
  facet normal 1 -0 0
    outer loop
      vertex 68.81 -0.25 3.2
      vertex 68.81 44.66 1.6
      vertex 68.81 107.57 3.2
    endloop
  endfacet
  facet normal 1 0 0
    outer loop
      vertex 68.81 44.66 1.6
      vertex 68.81 -0.25 3.2
      vertex 68.81 17.25 1.6
    endloop
  endfacet
  facet normal 1 0 0
    outer loop
      vertex 68.81 17.25 1.6
      vertex 68.81 -0.25 3.2
      vertex 68.81 -0.25 1.6
    endloop
  endfacet
  facet normal 1 0 0
    outer loop
      vertex 68.81 107.57 0
      vertex 68.81 107.26 1.6
      vertex 68.81 107.26 0
    endloop
  endfacet
  facet normal 1 0 0
    outer loop
      vertex 68.81 89.32 0
      vertex 68.81 62.66 1.6
      vertex 68.81 62.66 0
    endloop
  endfacet
  facet normal 1 0 0
    outer loop
      vertex 68.81 44.66 0
      vertex 68.81 17.25 1.6
      vertex 68.81 17.25 0
    endloop
  endfacet
  facet normal -1 0 0
    outer loop
      vertex 89.33 44.66 0
      vertex 89.33 17.25 0
      vertex 89.33 44.66 1.6
    endloop
  endfacet
  facet normal -1 0 0
    outer loop
      vertex 89.33 89.32 0
      vertex 89.33 62.66 0
      vertex 89.33 89.32 1.6
    endloop
  endfacet
  facet normal -1 0 0
    outer loop
      vertex 89.33 107.26 1.6
      vertex 89.33 107.57 0
      vertex 89.33 107.26 0
    endloop
  endfacet
  facet normal -1 0 0
    outer loop
      vertex 89.33 107.57 0
      vertex 89.33 107.26 1.6
      vertex 89.33 107.57 3.2
    endloop
  endfacet
  facet normal -1 0 0
    outer loop
      vertex 89.33 89.32 1.6
      vertex 89.33 107.57 3.2
      vertex 89.33 107.26 1.6
    endloop
  endfacet
  facet normal -1 0 0
    outer loop
      vertex 89.33 62.66 1.6
      vertex 89.33 89.32 1.6
      vertex 89.33 62.66 0
    endloop
  endfacet
  facet normal -1 0 0
    outer loop
      vertex 89.33 89.32 1.6
      vertex 89.33 62.66 1.6
      vertex 89.33 107.57 3.2
    endloop
  endfacet
  facet normal -1 0 0
    outer loop
      vertex 89.33 44.66 1.6
      vertex 89.33 107.57 3.2
      vertex 89.33 62.66 1.6
    endloop
  endfacet
  facet normal -1 0 0
    outer loop
      vertex 89.33 17.25 1.6
      vertex 89.33 44.66 1.6
      vertex 89.33 17.25 0
    endloop
  endfacet
  facet normal -1 0 0
    outer loop
      vertex 89.33 -0.25 3.2
      vertex 89.33 44.66 1.6
      vertex 89.33 17.25 1.6
    endloop
  endfacet
  facet normal -1 0 0
    outer loop
      vertex 89.33 -0.25 3.2
      vertex 89.33 17.25 1.6
      vertex 89.33 -0.25 1.6
    endloop
  endfacet
  facet normal -1 0 0
    outer loop
      vertex 89.33 44.66 1.6
      vertex 89.33 -0.25 3.2
      vertex 89.33 107.57 3.2
    endloop
  endfacet
  facet normal 0 1 -0
    outer loop
      vertex 89.33 -0.25 1.6
      vertex 68.81 -0.25 3.2
      vertex 89.33 -0.25 3.2
    endloop
  endfacet
  facet normal 0 1 0
    outer loop
      vertex 68.81 -0.25 3.2
      vertex 89.33 -0.25 1.6
      vertex 68.81 -0.25 1.6
    endloop
  endfacet
  facet normal 0 -1 0
    outer loop
      vertex 68.81 107.57 0
      vertex 89.33 107.57 3.2
      vertex 68.81 107.57 3.2
    endloop
  endfacet
  facet normal 0 -1 -0
    outer loop
      vertex 89.33 107.57 3.2
      vertex 68.81 107.57 0
      vertex 89.33 107.57 0
    endloop
  endfacet
  facet normal -0 0 1
    outer loop
      vertex 68.81 17.25 1.6
      vertex 89.33 -0.25 1.6
      vertex 89.33 17.25 1.6
    endloop
  endfacet
  facet normal 0 0 1
    outer loop
      vertex 89.33 -0.25 1.6
      vertex 68.81 17.25 1.6
      vertex 68.81 -0.25 1.6
    endloop
  endfacet
  facet normal 0 1 -0
    outer loop
      vertex 89.33 17.25 0
      vertex 68.81 17.25 1.6
      vertex 89.33 17.25 1.6
    endloop
  endfacet
  facet normal 0 1 0
    outer loop
      vertex 68.81 17.25 1.6
      vertex 89.33 17.25 0
      vertex 68.81 17.25 0
    endloop
  endfacet
  facet normal -0 0 1
    outer loop
      vertex 68.81 62.66 1.6
      vertex 89.33 44.66 1.6
      vertex 89.33 62.66 1.6
    endloop
  endfacet
  facet normal 0 0 1
    outer loop
      vertex 89.33 44.66 1.6
      vertex 68.81 62.66 1.6
      vertex 68.81 44.66 1.6
    endloop
  endfacet
  facet normal 0 1 -0
    outer loop
      vertex 89.33 62.66 0
      vertex 68.81 62.66 1.6
      vertex 89.33 62.66 1.6
    endloop
  endfacet
  facet normal 0 1 0
    outer loop
      vertex 68.81 62.66 1.6
      vertex 89.33 62.66 0
      vertex 68.81 62.66 0
    endloop
  endfacet
  facet normal 0 -1 0
    outer loop
      vertex 68.81 44.66 0
      vertex 89.33 44.66 1.6
      vertex 68.81 44.66 1.6
    endloop
  endfacet
  facet normal 0 -1 -0
    outer loop
      vertex 89.33 44.66 1.6
      vertex 68.81 44.66 0
      vertex 89.33 44.66 0
    endloop
  endfacet
  facet normal -0 0 1
    outer loop
      vertex 68.81 107.26 1.6
      vertex 89.33 89.32 1.6
      vertex 89.33 107.26 1.6
    endloop
  endfacet
  facet normal 0 0 1
    outer loop
      vertex 89.33 89.32 1.6
      vertex 68.81 107.26 1.6
      vertex 68.81 89.32 1.6
    endloop
  endfacet
  facet normal 0 1 -0
    outer loop
      vertex 89.33 107.26 0
      vertex 68.81 107.26 1.6
      vertex 89.33 107.26 1.6
    endloop
  endfacet
  facet normal 0 1 0
    outer loop
      vertex 68.81 107.26 1.6
      vertex 89.33 107.26 0
      vertex 68.81 107.26 0
    endloop
  endfacet
  facet normal 0 -1 0
    outer loop
      vertex 68.81 89.32 0
      vertex 89.33 89.32 1.6
      vertex 68.81 89.32 1.6
    endloop
  endfacet
  facet normal 0 -1 -0
    outer loop
      vertex 89.33 89.32 1.6
      vertex 68.81 89.32 0
      vertex 89.33 89.32 0
    endloop
  endfacet
  facet normal 1 0 0
    outer loop
      vertex 91.83 107.57 3.2
      vertex 91.83 107.26 1.6
      vertex 91.83 107.57 0
    endloop
  endfacet
  facet normal 1 0 0
    outer loop
      vertex 91.83 107.57 3.2
      vertex 91.83 89.32 1.6
      vertex 91.83 107.26 1.6
    endloop
  endfacet
  facet normal 1 0 0
    outer loop
      vertex 91.83 89.32 1.6
      vertex 91.83 62.66 1.6
      vertex 91.83 89.32 0
    endloop
  endfacet
  facet normal 1 0 0
    outer loop
      vertex 91.83 107.57 3.2
      vertex 91.83 62.66 1.6
      vertex 91.83 89.32 1.6
    endloop
  endfacet
  facet normal 1 0 0
    outer loop
      vertex 91.83 107.57 3.2
      vertex 91.83 44.66 1.6
      vertex 91.83 62.66 1.6
    endloop
  endfacet
  facet normal 1 0 0
    outer loop
      vertex 91.83 44.66 1.6
      vertex 91.83 17.25 1.6
      vertex 91.83 44.66 0
    endloop
  endfacet
  facet normal 1 -0 0
    outer loop
      vertex 91.83 -0.25 3.2
      vertex 91.83 44.66 1.6
      vertex 91.83 107.57 3.2
    endloop
  endfacet
  facet normal 1 0 0
    outer loop
      vertex 91.83 44.66 1.6
      vertex 91.83 -0.25 3.2
      vertex 91.83 17.25 1.6
    endloop
  endfacet
  facet normal 1 0 0
    outer loop
      vertex 91.83 17.25 1.6
      vertex 91.83 -0.25 3.2
      vertex 91.83 -0.25 1.6
    endloop
  endfacet
  facet normal 1 0 0
    outer loop
      vertex 91.83 107.57 0
      vertex 91.83 107.26 1.6
      vertex 91.83 107.26 0
    endloop
  endfacet
  facet normal 1 0 0
    outer loop
      vertex 91.83 89.32 0
      vertex 91.83 62.66 1.6
      vertex 91.83 62.66 0
    endloop
  endfacet
  facet normal 1 0 0
    outer loop
      vertex 91.83 44.66 0
      vertex 91.83 17.25 1.6
      vertex 91.83 17.25 0
    endloop
  endfacet
  facet normal -1 0 0
    outer loop
      vertex 112.35 44.66 0
      vertex 112.35 17.25 0
      vertex 112.35 44.66 1.6
    endloop
  endfacet
  facet normal -1 0 0
    outer loop
      vertex 112.35 89.32 0
      vertex 112.35 62.66 0
      vertex 112.35 89.32 1.6
    endloop
  endfacet
  facet normal -1 0 0
    outer loop
      vertex 112.35 107.26 1.6
      vertex 112.35 107.57 0
      vertex 112.35 107.26 0
    endloop
  endfacet
  facet normal -1 0 0
    outer loop
      vertex 112.35 107.57 0
      vertex 112.35 107.26 1.6
      vertex 112.35 107.57 3.2
    endloop
  endfacet
  facet normal -1 0 0
    outer loop
      vertex 112.35 89.32 1.6
      vertex 112.35 107.57 3.2
      vertex 112.35 107.26 1.6
    endloop
  endfacet
  facet normal -1 0 0
    outer loop
      vertex 112.35 62.66 1.6
      vertex 112.35 89.32 1.6
      vertex 112.35 62.66 0
    endloop
  endfacet
  facet normal -1 0 0
    outer loop
      vertex 112.35 89.32 1.6
      vertex 112.35 62.66 1.6
      vertex 112.35 107.57 3.2
    endloop
  endfacet
  facet normal -1 0 0
    outer loop
      vertex 112.35 44.66 1.6
      vertex 112.35 107.57 3.2
      vertex 112.35 62.66 1.6
    endloop
  endfacet
  facet normal -1 0 0
    outer loop
      vertex 112.35 17.25 1.6
      vertex 112.35 44.66 1.6
      vertex 112.35 17.25 0
    endloop
  endfacet
  facet normal -1 0 0
    outer loop
      vertex 112.35 -0.25 3.2
      vertex 112.35 44.66 1.6
      vertex 112.35 17.25 1.6
    endloop
  endfacet
  facet normal -1 0 0
    outer loop
      vertex 112.35 -0.25 3.2
      vertex 112.35 17.25 1.6
      vertex 112.35 -0.25 1.6
    endloop
  endfacet
  facet normal -1 0 0
    outer loop
      vertex 112.35 44.66 1.6
      vertex 112.35 -0.25 3.2
      vertex 112.35 107.57 3.2
    endloop
  endfacet
  facet normal 0 1 -0
    outer loop
      vertex 112.35 -0.25 1.6
      vertex 91.83 -0.25 3.2
      vertex 112.35 -0.25 3.2
    endloop
  endfacet
  facet normal 0 1 0
    outer loop
      vertex 91.83 -0.25 3.2
      vertex 112.35 -0.25 1.6
      vertex 91.83 -0.25 1.6
    endloop
  endfacet
  facet normal 0 -1 0
    outer loop
      vertex 91.83 107.57 0
      vertex 112.35 107.57 3.2
      vertex 91.83 107.57 3.2
    endloop
  endfacet
  facet normal 0 -1 -0
    outer loop
      vertex 112.35 107.57 3.2
      vertex 91.83 107.57 0
      vertex 112.35 107.57 0
    endloop
  endfacet
  facet normal -0 0 1
    outer loop
      vertex 91.83 17.25 1.6
      vertex 112.35 -0.25 1.6
      vertex 112.35 17.25 1.6
    endloop
  endfacet
  facet normal 0 0 1
    outer loop
      vertex 112.35 -0.25 1.6
      vertex 91.83 17.25 1.6
      vertex 91.83 -0.25 1.6
    endloop
  endfacet
  facet normal 0 1 -0
    outer loop
      vertex 112.35 17.25 0
      vertex 91.83 17.25 1.6
      vertex 112.35 17.25 1.6
    endloop
  endfacet
  facet normal 0 1 0
    outer loop
      vertex 91.83 17.25 1.6
      vertex 112.35 17.25 0
      vertex 91.83 17.25 0
    endloop
  endfacet
  facet normal -0 0 1
    outer loop
      vertex 91.83 62.66 1.6
      vertex 112.35 44.66 1.6
      vertex 112.35 62.66 1.6
    endloop
  endfacet
  facet normal 0 0 1
    outer loop
      vertex 112.35 44.66 1.6
      vertex 91.83 62.66 1.6
      vertex 91.83 44.66 1.6
    endloop
  endfacet
  facet normal 0 1 -0
    outer loop
      vertex 112.35 62.66 0
      vertex 91.83 62.66 1.6
      vertex 112.35 62.66 1.6
    endloop
  endfacet
  facet normal 0 1 0
    outer loop
      vertex 91.83 62.66 1.6
      vertex 112.35 62.66 0
      vertex 91.83 62.66 0
    endloop
  endfacet
  facet normal 0 -1 0
    outer loop
      vertex 91.83 44.66 0
      vertex 112.35 44.66 1.6
      vertex 91.83 44.66 1.6
    endloop
  endfacet
  facet normal 0 -1 -0
    outer loop
      vertex 112.35 44.66 1.6
      vertex 91.83 44.66 0
      vertex 112.35 44.66 0
    endloop
  endfacet
  facet normal -0 0 1
    outer loop
      vertex 91.83 107.26 1.6
      vertex 112.35 89.32 1.6
      vertex 112.35 107.26 1.6
    endloop
  endfacet
  facet normal 0 0 1
    outer loop
      vertex 112.35 89.32 1.6
      vertex 91.83 107.26 1.6
      vertex 91.83 89.32 1.6
    endloop
  endfacet
  facet normal 0 -1 0
    outer loop
      vertex 91.83 89.32 0
      vertex 112.35 89.32 1.6
      vertex 91.83 89.32 1.6
    endloop
  endfacet
  facet normal 0 -1 -0
    outer loop
      vertex 112.35 89.32 1.6
      vertex 91.83 89.32 0
      vertex 112.35 89.32 0
    endloop
  endfacet
  facet normal 0 1 -0
    outer loop
      vertex 112.35 107.26 0
      vertex 91.83 107.26 1.6
      vertex 112.35 107.26 1.6
    endloop
  endfacet
  facet normal 0 1 0
    outer loop
      vertex 91.83 107.26 1.6
      vertex 112.35 107.26 0
      vertex 91.83 107.26 0
    endloop
  endfacet
  facet normal 1 0 0
    outer loop
      vertex 114.85 107.57 3.2
      vertex 114.85 107.26 1.6
      vertex 114.85 107.57 0
    endloop
  endfacet
  facet normal 1 0 0
    outer loop
      vertex 114.85 107.57 3.2
      vertex 114.85 89.32 1.6
      vertex 114.85 107.26 1.6
    endloop
  endfacet
  facet normal 1 0 0
    outer loop
      vertex 114.85 89.32 1.6
      vertex 114.85 62.66 1.6
      vertex 114.85 89.32 0
    endloop
  endfacet
  facet normal 1 0 0
    outer loop
      vertex 114.85 107.57 3.2
      vertex 114.85 62.66 1.6
      vertex 114.85 89.32 1.6
    endloop
  endfacet
  facet normal 1 0 0
    outer loop
      vertex 114.85 107.57 3.2
      vertex 114.85 44.66 1.6
      vertex 114.85 62.66 1.6
    endloop
  endfacet
  facet normal 1 0 0
    outer loop
      vertex 114.85 44.66 1.6
      vertex 114.85 17.25 1.6
      vertex 114.85 44.66 0
    endloop
  endfacet
  facet normal 1 -0 0
    outer loop
      vertex 114.85 -0.25 3.2
      vertex 114.85 44.66 1.6
      vertex 114.85 107.57 3.2
    endloop
  endfacet
  facet normal 1 0 0
    outer loop
      vertex 114.85 44.66 1.6
      vertex 114.85 -0.25 3.2
      vertex 114.85 17.25 1.6
    endloop
  endfacet
  facet normal 1 0 0
    outer loop
      vertex 114.85 17.25 1.6
      vertex 114.85 -0.25 3.2
      vertex 114.85 -0.25 1.6
    endloop
  endfacet
  facet normal 1 0 0
    outer loop
      vertex 114.85 107.57 0
      vertex 114.85 107.26 1.6
      vertex 114.85 107.26 0
    endloop
  endfacet
  facet normal 1 0 0
    outer loop
      vertex 114.85 89.32 0
      vertex 114.85 62.66 1.6
      vertex 114.85 62.66 0
    endloop
  endfacet
  facet normal 1 0 0
    outer loop
      vertex 114.85 44.66 0
      vertex 114.85 17.25 1.6
      vertex 114.85 17.25 0
    endloop
  endfacet
  facet normal -1 0 0
    outer loop
      vertex 135.37 44.66 0
      vertex 135.37 17.25 0
      vertex 135.37 44.66 1.6
    endloop
  endfacet
  facet normal -1 0 0
    outer loop
      vertex 135.37 89.32 0
      vertex 135.37 62.66 0
      vertex 135.37 89.32 1.6
    endloop
  endfacet
  facet normal -1 0 0
    outer loop
      vertex 135.37 107.26 1.6
      vertex 135.37 107.57 0
      vertex 135.37 107.26 0
    endloop
  endfacet
  facet normal -1 0 0
    outer loop
      vertex 135.37 107.57 0
      vertex 135.37 107.26 1.6
      vertex 135.37 107.57 3.2
    endloop
  endfacet
  facet normal -1 0 0
    outer loop
      vertex 135.37 89.32 1.6
      vertex 135.37 107.57 3.2
      vertex 135.37 107.26 1.6
    endloop
  endfacet
  facet normal -1 0 0
    outer loop
      vertex 135.37 62.66 1.6
      vertex 135.37 89.32 1.6
      vertex 135.37 62.66 0
    endloop
  endfacet
  facet normal -1 0 0
    outer loop
      vertex 135.37 89.32 1.6
      vertex 135.37 62.66 1.6
      vertex 135.37 107.57 3.2
    endloop
  endfacet
  facet normal -1 0 0
    outer loop
      vertex 135.37 44.66 1.6
      vertex 135.37 107.57 3.2
      vertex 135.37 62.66 1.6
    endloop
  endfacet
  facet normal -1 0 0
    outer loop
      vertex 135.37 17.25 1.6
      vertex 135.37 44.66 1.6
      vertex 135.37 17.25 0
    endloop
  endfacet
  facet normal -1 0 0
    outer loop
      vertex 135.37 -0.25 3.2
      vertex 135.37 44.66 1.6
      vertex 135.37 17.25 1.6
    endloop
  endfacet
  facet normal -1 0 0
    outer loop
      vertex 135.37 -0.25 3.2
      vertex 135.37 17.25 1.6
      vertex 135.37 -0.25 1.6
    endloop
  endfacet
  facet normal -1 0 0
    outer loop
      vertex 135.37 44.66 1.6
      vertex 135.37 -0.25 3.2
      vertex 135.37 107.57 3.2
    endloop
  endfacet
  facet normal 0 -1 0
    outer loop
      vertex 114.85 107.57 0
      vertex 135.37 107.57 3.2
      vertex 114.85 107.57 3.2
    endloop
  endfacet
  facet normal 0 -1 -0
    outer loop
      vertex 135.37 107.57 3.2
      vertex 114.85 107.57 0
      vertex 135.37 107.57 0
    endloop
  endfacet
  facet normal 0 1 -0
    outer loop
      vertex 135.37 -0.25 1.6
      vertex 114.85 -0.25 3.2
      vertex 135.37 -0.25 3.2
    endloop
  endfacet
  facet normal 0 1 0
    outer loop
      vertex 114.85 -0.25 3.2
      vertex 135.37 -0.25 1.6
      vertex 114.85 -0.25 1.6
    endloop
  endfacet
  facet normal -0 0 1
    outer loop
      vertex 114.85 17.25 1.6
      vertex 135.37 -0.25 1.6
      vertex 135.37 17.25 1.6
    endloop
  endfacet
  facet normal 0 0 1
    outer loop
      vertex 135.37 -0.25 1.6
      vertex 114.85 17.25 1.6
      vertex 114.85 -0.25 1.6
    endloop
  endfacet
  facet normal 0 1 -0
    outer loop
      vertex 135.37 17.25 0
      vertex 114.85 17.25 1.6
      vertex 135.37 17.25 1.6
    endloop
  endfacet
  facet normal 0 1 0
    outer loop
      vertex 114.85 17.25 1.6
      vertex 135.37 17.25 0
      vertex 114.85 17.25 0
    endloop
  endfacet
  facet normal -0 0 1
    outer loop
      vertex 114.85 62.66 1.6
      vertex 135.37 44.66 1.6
      vertex 135.37 62.66 1.6
    endloop
  endfacet
  facet normal 0 0 1
    outer loop
      vertex 135.37 44.66 1.6
      vertex 114.85 62.66 1.6
      vertex 114.85 44.66 1.6
    endloop
  endfacet
  facet normal 0 1 -0
    outer loop
      vertex 135.37 62.66 0
      vertex 114.85 62.66 1.6
      vertex 135.37 62.66 1.6
    endloop
  endfacet
  facet normal 0 1 0
    outer loop
      vertex 114.85 62.66 1.6
      vertex 135.37 62.66 0
      vertex 114.85 62.66 0
    endloop
  endfacet
  facet normal 0 -1 0
    outer loop
      vertex 114.85 44.66 0
      vertex 135.37 44.66 1.6
      vertex 114.85 44.66 1.6
    endloop
  endfacet
  facet normal 0 -1 -0
    outer loop
      vertex 135.37 44.66 1.6
      vertex 114.85 44.66 0
      vertex 135.37 44.66 0
    endloop
  endfacet
  facet normal -0 0 1
    outer loop
      vertex 114.85 107.26 1.6
      vertex 135.37 89.32 1.6
      vertex 135.37 107.26 1.6
    endloop
  endfacet
  facet normal 0 0 1
    outer loop
      vertex 135.37 89.32 1.6
      vertex 114.85 107.26 1.6
      vertex 114.85 89.32 1.6
    endloop
  endfacet
  facet normal 0 1 -0
    outer loop
      vertex 135.37 107.26 0
      vertex 114.85 107.26 1.6
      vertex 135.37 107.26 1.6
    endloop
  endfacet
  facet normal 0 1 0
    outer loop
      vertex 114.85 107.26 1.6
      vertex 135.37 107.26 0
      vertex 114.85 107.26 0
    endloop
  endfacet
  facet normal 0 -1 0
    outer loop
      vertex 114.85 89.32 0
      vertex 135.37 89.32 1.6
      vertex 114.85 89.32 1.6
    endloop
  endfacet
  facet normal 0 -1 -0
    outer loop
      vertex 135.37 89.32 1.6
      vertex 114.85 89.32 0
      vertex 135.37 89.32 0
    endloop
  endfacet
  facet normal 1 0 0
    outer loop
      vertex 137.87 107.57 3.2
      vertex 137.87 107.26 1.6
      vertex 137.87 107.57 0
    endloop
  endfacet
  facet normal 1 0 0
    outer loop
      vertex 137.87 107.57 3.2
      vertex 137.87 89.32 1.6
      vertex 137.87 107.26 1.6
    endloop
  endfacet
  facet normal 1 0 0
    outer loop
      vertex 137.87 89.32 1.6
      vertex 137.87 62.66 1.6
      vertex 137.87 89.32 0
    endloop
  endfacet
  facet normal 1 0 0
    outer loop
      vertex 137.87 107.57 3.2
      vertex 137.87 62.66 1.6
      vertex 137.87 89.32 1.6
    endloop
  endfacet
  facet normal 1 0 0
    outer loop
      vertex 137.87 107.57 3.2
      vertex 137.87 44.66 1.6
      vertex 137.87 62.66 1.6
    endloop
  endfacet
  facet normal 1 0 0
    outer loop
      vertex 137.87 44.66 1.6
      vertex 137.87 17.25 1.6
      vertex 137.87 44.66 0
    endloop
  endfacet
  facet normal 1 -0 0
    outer loop
      vertex 137.87 -0.25 3.2
      vertex 137.87 44.66 1.6
      vertex 137.87 107.57 3.2
    endloop
  endfacet
  facet normal 1 0 0
    outer loop
      vertex 137.87 44.66 1.6
      vertex 137.87 -0.25 3.2
      vertex 137.87 17.25 1.6
    endloop
  endfacet
  facet normal 1 0 0
    outer loop
      vertex 137.87 17.25 1.6
      vertex 137.87 -0.25 3.2
      vertex 137.87 -0.25 1.6
    endloop
  endfacet
  facet normal 1 0 0
    outer loop
      vertex 137.87 107.57 0
      vertex 137.87 107.26 1.6
      vertex 137.87 107.26 0
    endloop
  endfacet
  facet normal 1 0 0
    outer loop
      vertex 137.87 89.32 0
      vertex 137.87 62.66 1.6
      vertex 137.87 62.66 0
    endloop
  endfacet
  facet normal 1 0 0
    outer loop
      vertex 137.87 44.66 0
      vertex 137.87 17.25 1.6
      vertex 137.87 17.25 0
    endloop
  endfacet
  facet normal -1 0 0
    outer loop
      vertex 158.39 44.66 0
      vertex 158.39 17.25 0
      vertex 158.39 44.66 1.6
    endloop
  endfacet
  facet normal -1 0 0
    outer loop
      vertex 158.39 89.32 0
      vertex 158.39 62.66 0
      vertex 158.39 89.32 1.6
    endloop
  endfacet
  facet normal -1 0 0
    outer loop
      vertex 158.39 107.26 1.6
      vertex 158.39 107.57 0
      vertex 158.39 107.26 0
    endloop
  endfacet
  facet normal -1 0 0
    outer loop
      vertex 158.39 107.57 0
      vertex 158.39 107.26 1.6
      vertex 158.39 107.57 3.2
    endloop
  endfacet
  facet normal -1 0 0
    outer loop
      vertex 158.39 89.32 1.6
      vertex 158.39 107.57 3.2
      vertex 158.39 107.26 1.6
    endloop
  endfacet
  facet normal -1 0 0
    outer loop
      vertex 158.39 62.66 1.6
      vertex 158.39 89.32 1.6
      vertex 158.39 62.66 0
    endloop
  endfacet
  facet normal -1 0 0
    outer loop
      vertex 158.39 89.32 1.6
      vertex 158.39 62.66 1.6
      vertex 158.39 107.57 3.2
    endloop
  endfacet
  facet normal -1 0 0
    outer loop
      vertex 158.39 44.66 1.6
      vertex 158.39 107.57 3.2
      vertex 158.39 62.66 1.6
    endloop
  endfacet
  facet normal -1 0 0
    outer loop
      vertex 158.39 17.25 1.6
      vertex 158.39 44.66 1.6
      vertex 158.39 17.25 0
    endloop
  endfacet
  facet normal -1 0 0
    outer loop
      vertex 158.39 -0.25 3.2
      vertex 158.39 44.66 1.6
      vertex 158.39 17.25 1.6
    endloop
  endfacet
  facet normal -1 0 0
    outer loop
      vertex 158.39 -0.25 3.2
      vertex 158.39 17.25 1.6
      vertex 158.39 -0.25 1.6
    endloop
  endfacet
  facet normal -1 0 0
    outer loop
      vertex 158.39 44.66 1.6
      vertex 158.39 -0.25 3.2
      vertex 158.39 107.57 3.2
    endloop
  endfacet
  facet normal 0 -1 0
    outer loop
      vertex 137.87 107.57 0
      vertex 158.39 107.57 3.2
      vertex 137.87 107.57 3.2
    endloop
  endfacet
  facet normal 0 -1 -0
    outer loop
      vertex 158.39 107.57 3.2
      vertex 137.87 107.57 0
      vertex 158.39 107.57 0
    endloop
  endfacet
  facet normal 0 1 -0
    outer loop
      vertex 158.39 -0.25 1.6
      vertex 137.87 -0.25 3.2
      vertex 158.39 -0.25 3.2
    endloop
  endfacet
  facet normal 0 1 0
    outer loop
      vertex 137.87 -0.25 3.2
      vertex 158.39 -0.25 1.6
      vertex 137.87 -0.25 1.6
    endloop
  endfacet
  facet normal -0 0 1
    outer loop
      vertex 137.87 17.25 1.6
      vertex 158.39 -0.25 1.6
      vertex 158.39 17.25 1.6
    endloop
  endfacet
  facet normal 0 0 1
    outer loop
      vertex 158.39 -0.25 1.6
      vertex 137.87 17.25 1.6
      vertex 137.87 -0.25 1.6
    endloop
  endfacet
  facet normal 0 1 -0
    outer loop
      vertex 158.39 17.25 0
      vertex 137.87 17.25 1.6
      vertex 158.39 17.25 1.6
    endloop
  endfacet
  facet normal 0 1 0
    outer loop
      vertex 137.87 17.25 1.6
      vertex 158.39 17.25 0
      vertex 137.87 17.25 0
    endloop
  endfacet
  facet normal -0 0 1
    outer loop
      vertex 137.87 62.66 1.6
      vertex 158.39 44.66 1.6
      vertex 158.39 62.66 1.6
    endloop
  endfacet
  facet normal 0 0 1
    outer loop
      vertex 158.39 44.66 1.6
      vertex 137.87 62.66 1.6
      vertex 137.87 44.66 1.6
    endloop
  endfacet
  facet normal 0 1 -0
    outer loop
      vertex 158.39 62.66 0
      vertex 137.87 62.66 1.6
      vertex 158.39 62.66 1.6
    endloop
  endfacet
  facet normal 0 1 0
    outer loop
      vertex 137.87 62.66 1.6
      vertex 158.39 62.66 0
      vertex 137.87 62.66 0
    endloop
  endfacet
  facet normal 0 -1 0
    outer loop
      vertex 137.87 44.66 0
      vertex 158.39 44.66 1.6
      vertex 137.87 44.66 1.6
    endloop
  endfacet
  facet normal 0 -1 -0
    outer loop
      vertex 158.39 44.66 1.6
      vertex 137.87 44.66 0
      vertex 158.39 44.66 0
    endloop
  endfacet
  facet normal -0 0 1
    outer loop
      vertex 137.87 107.26 1.6
      vertex 158.39 89.32 1.6
      vertex 158.39 107.26 1.6
    endloop
  endfacet
  facet normal 0 0 1
    outer loop
      vertex 158.39 89.32 1.6
      vertex 137.87 107.26 1.6
      vertex 137.87 89.32 1.6
    endloop
  endfacet
  facet normal 0 -1 0
    outer loop
      vertex 137.87 89.32 0
      vertex 158.39 89.32 1.6
      vertex 137.87 89.32 1.6
    endloop
  endfacet
  facet normal 0 -1 -0
    outer loop
      vertex 158.39 89.32 1.6
      vertex 137.87 89.32 0
      vertex 158.39 89.32 0
    endloop
  endfacet
  facet normal 0 1 -0
    outer loop
      vertex 158.39 107.26 0
      vertex 137.87 107.26 1.6
      vertex 158.39 107.26 1.6
    endloop
  endfacet
  facet normal 0 1 0
    outer loop
      vertex 137.87 107.26 1.6
      vertex 158.39 107.26 0
      vertex 137.87 107.26 0
    endloop
  endfacet
  facet normal 1 -0 0
    outer loop
      vertex 183.66 -2.5 3.2
      vertex 183.66 109.82 0
      vertex 183.66 109.82 3.2
    endloop
  endfacet
  facet normal 1 0 0
    outer loop
      vertex 183.66 109.82 0
      vertex 183.66 -2.5 3.2
      vertex 183.66 -2.5 0
    endloop
  endfacet
  facet normal 1 0 0
    outer loop
      vertex 160.89 107.57 3.2
      vertex 160.89 107.26 1.6
      vertex 160.89 107.57 0
    endloop
  endfacet
  facet normal 1 0 0
    outer loop
      vertex 160.89 107.57 3.2
      vertex 160.89 89.32 1.6
      vertex 160.89 107.26 1.6
    endloop
  endfacet
  facet normal 1 0 0
    outer loop
      vertex 160.89 89.32 1.6
      vertex 160.89 62.66 1.6
      vertex 160.89 89.32 0
    endloop
  endfacet
  facet normal 1 0 0
    outer loop
      vertex 160.89 107.57 3.2
      vertex 160.89 62.66 1.6
      vertex 160.89 89.32 1.6
    endloop
  endfacet
  facet normal 1 0 0
    outer loop
      vertex 160.89 107.57 3.2
      vertex 160.89 44.66 1.6
      vertex 160.89 62.66 1.6
    endloop
  endfacet
  facet normal 1 0 0
    outer loop
      vertex 160.89 44.66 1.6
      vertex 160.89 17.25 1.6
      vertex 160.89 44.66 0
    endloop
  endfacet
  facet normal 1 -0 0
    outer loop
      vertex 160.89 -0.25 3.2
      vertex 160.89 44.66 1.6
      vertex 160.89 107.57 3.2
    endloop
  endfacet
  facet normal 1 0 0
    outer loop
      vertex 160.89 44.66 1.6
      vertex 160.89 -0.25 3.2
      vertex 160.89 17.25 1.6
    endloop
  endfacet
  facet normal 1 0 0
    outer loop
      vertex 160.89 17.25 1.6
      vertex 160.89 -0.25 3.2
      vertex 160.89 -0.25 1.6
    endloop
  endfacet
  facet normal 1 0 0
    outer loop
      vertex 160.89 107.57 0
      vertex 160.89 107.26 1.6
      vertex 160.89 107.26 0
    endloop
  endfacet
  facet normal 1 0 0
    outer loop
      vertex 160.89 89.32 0
      vertex 160.89 62.66 1.6
      vertex 160.89 62.66 0
    endloop
  endfacet
  facet normal 1 0 0
    outer loop
      vertex 160.89 44.66 0
      vertex 160.89 17.25 1.6
      vertex 160.89 17.25 0
    endloop
  endfacet
  facet normal -1 0 0
    outer loop
      vertex 181.41 44.66 0
      vertex 181.41 17.25 0
      vertex 181.41 44.66 1.6
    endloop
  endfacet
  facet normal -1 0 0
    outer loop
      vertex 181.41 89.32 0
      vertex 181.41 62.66 0
      vertex 181.41 89.32 1.6
    endloop
  endfacet
  facet normal -1 0 0
    outer loop
      vertex 181.41 107.26 1.6
      vertex 181.41 107.57 0
      vertex 181.41 107.26 0
    endloop
  endfacet
  facet normal -1 0 0
    outer loop
      vertex 181.41 107.57 0
      vertex 181.41 107.26 1.6
      vertex 181.41 107.57 3.2
    endloop
  endfacet
  facet normal -1 0 0
    outer loop
      vertex 181.41 89.32 1.6
      vertex 181.41 107.57 3.2
      vertex 181.41 107.26 1.6
    endloop
  endfacet
  facet normal -1 0 0
    outer loop
      vertex 181.41 62.66 1.6
      vertex 181.41 89.32 1.6
      vertex 181.41 62.66 0
    endloop
  endfacet
  facet normal -1 0 0
    outer loop
      vertex 181.41 89.32 1.6
      vertex 181.41 62.66 1.6
      vertex 181.41 107.57 3.2
    endloop
  endfacet
  facet normal -1 0 0
    outer loop
      vertex 181.41 44.66 1.6
      vertex 181.41 107.57 3.2
      vertex 181.41 62.66 1.6
    endloop
  endfacet
  facet normal -1 0 0
    outer loop
      vertex 181.41 17.25 1.6
      vertex 181.41 44.66 1.6
      vertex 181.41 17.25 0
    endloop
  endfacet
  facet normal -1 0 0
    outer loop
      vertex 181.41 -0.25 3.2
      vertex 181.41 44.66 1.6
      vertex 181.41 17.25 1.6
    endloop
  endfacet
  facet normal -1 0 0
    outer loop
      vertex 181.41 -0.25 3.2
      vertex 181.41 17.25 1.6
      vertex 181.41 -0.25 1.6
    endloop
  endfacet
  facet normal -1 0 0
    outer loop
      vertex 181.41 44.66 1.6
      vertex 181.41 -0.25 3.2
      vertex 181.41 107.57 3.2
    endloop
  endfacet
  facet normal 0 1 -0
    outer loop
      vertex 181.41 -0.25 1.6
      vertex 160.89 -0.25 3.2
      vertex 181.41 -0.25 3.2
    endloop
  endfacet
  facet normal 0 1 0
    outer loop
      vertex 160.89 -0.25 3.2
      vertex 181.41 -0.25 1.6
      vertex 160.89 -0.25 1.6
    endloop
  endfacet
  facet normal 0 -1 0
    outer loop
      vertex 160.89 107.57 0
      vertex 181.41 107.57 3.2
      vertex 160.89 107.57 3.2
    endloop
  endfacet
  facet normal 0 -1 -0
    outer loop
      vertex 181.41 107.57 3.2
      vertex 160.89 107.57 0
      vertex 181.41 107.57 0
    endloop
  endfacet
  facet normal -0 0 1
    outer loop
      vertex 160.89 17.25 1.6
      vertex 181.41 -0.25 1.6
      vertex 181.41 17.25 1.6
    endloop
  endfacet
  facet normal 0 0 1
    outer loop
      vertex 181.41 -0.25 1.6
      vertex 160.89 17.25 1.6
      vertex 160.89 -0.25 1.6
    endloop
  endfacet
  facet normal 0 1 -0
    outer loop
      vertex 181.41 17.25 0
      vertex 160.89 17.25 1.6
      vertex 181.41 17.25 1.6
    endloop
  endfacet
  facet normal 0 1 0
    outer loop
      vertex 160.89 17.25 1.6
      vertex 181.41 17.25 0
      vertex 160.89 17.25 0
    endloop
  endfacet
  facet normal -0 0 1
    outer loop
      vertex 160.89 62.66 1.6
      vertex 181.41 44.66 1.6
      vertex 181.41 62.66 1.6
    endloop
  endfacet
  facet normal 0 0 1
    outer loop
      vertex 181.41 44.66 1.6
      vertex 160.89 62.66 1.6
      vertex 160.89 44.66 1.6
    endloop
  endfacet
  facet normal 0 1 -0
    outer loop
      vertex 181.41 62.66 0
      vertex 160.89 62.66 1.6
      vertex 181.41 62.66 1.6
    endloop
  endfacet
  facet normal 0 1 0
    outer loop
      vertex 160.89 62.66 1.6
      vertex 181.41 62.66 0
      vertex 160.89 62.66 0
    endloop
  endfacet
  facet normal 0 -1 0
    outer loop
      vertex 160.89 44.66 0
      vertex 181.41 44.66 1.6
      vertex 160.89 44.66 1.6
    endloop
  endfacet
  facet normal 0 -1 -0
    outer loop
      vertex 181.41 44.66 1.6
      vertex 160.89 44.66 0
      vertex 181.41 44.66 0
    endloop
  endfacet
  facet normal -0 0 1
    outer loop
      vertex 160.89 107.26 1.6
      vertex 181.41 89.32 1.6
      vertex 181.41 107.26 1.6
    endloop
  endfacet
  facet normal 0 0 1
    outer loop
      vertex 181.41 89.32 1.6
      vertex 160.89 107.26 1.6
      vertex 160.89 89.32 1.6
    endloop
  endfacet
  facet normal 0 1 -0
    outer loop
      vertex 181.41 107.26 0
      vertex 160.89 107.26 1.6
      vertex 181.41 107.26 1.6
    endloop
  endfacet
  facet normal 0 1 0
    outer loop
      vertex 160.89 107.26 1.6
      vertex 181.41 107.26 0
      vertex 160.89 107.26 0
    endloop
  endfacet
  facet normal 0 -1 0
    outer loop
      vertex 160.89 89.32 0
      vertex 181.41 89.32 1.6
      vertex 160.89 89.32 1.6
    endloop
  endfacet
  facet normal 0 -1 -0
    outer loop
      vertex 181.41 89.32 1.6
      vertex 160.89 89.32 0
      vertex 181.41 89.32 0
    endloop
  endfacet
endsolid OpenSCAD_Model
