solid OpenSCAD_Model
  facet normal -1 0 0
    outer loop
      vertex -2.5 -2.5 0
      vertex -2.5 109.51 3.2
      vertex -2.5 109.51 0
    endloop
  endfacet
  facet normal -1 -0 0
    outer loop
      vertex -2.5 109.51 3.2
      vertex -2.5 -2.5 0
      vertex -2.5 -2.5 3.2
    endloop
  endfacet
  facet normal 0 0 1
    outer loop
      vertex 177.44 109.51 3.2
      vertex 175.19 107.26 3.2
      vertex 177.44 -2.5 3.2
    endloop
  endfacet
  facet normal 0 0 1
    outer loop
      vertex 177.44 109.51 3.2
      vertex 155.26 107.26 3.2
      vertex 175.19 107.26 3.2
    endloop
  endfacet
  facet normal 0 0 1
    outer loop
      vertex 155.26 107.26 3.2
      vertex 152.76 107.26 3.2
      vertex 155.26 -0.25 3.2
    endloop
  endfacet
  facet normal 0 0 1
    outer loop
      vertex 177.44 109.51 3.2
      vertex 152.76 107.26 3.2
      vertex 155.26 107.26 3.2
    endloop
  endfacet
  facet normal 0 0 1
    outer loop
      vertex 177.44 109.51 3.2
      vertex 133.08 107.26 3.2
      vertex 152.76 107.26 3.2
    endloop
  endfacet
  facet normal 0 0 1
    outer loop
      vertex 133.08 107.26 3.2
      vertex 130.58 107.26 3.2
      vertex 133.08 -0.25 3.2
    endloop
  endfacet
  facet normal 0 0 1
    outer loop
      vertex 177.44 109.51 3.2
      vertex 130.58 107.26 3.2
      vertex 133.08 107.26 3.2
    endloop
  endfacet
  facet normal 0 0 1
    outer loop
      vertex 177.44 109.51 3.2
      vertex 110.9 107.26 3.2
      vertex 130.58 107.26 3.2
    endloop
  endfacet
  facet normal 0 0 1
    outer loop
      vertex 110.9 107.26 3.2
      vertex 108.4 107.26 3.2
      vertex 110.9 -0.25 3.2
    endloop
  endfacet
  facet normal 0 0 1
    outer loop
      vertex 177.44 109.51 3.2
      vertex 108.4 107.26 3.2
      vertex 110.9 107.26 3.2
    endloop
  endfacet
  facet normal 0 0 1
    outer loop
      vertex 177.44 109.51 3.2
      vertex 88.72 107.26 3.2
      vertex 108.4 107.26 3.2
    endloop
  endfacet
  facet normal 0 0 1
    outer loop
      vertex 88.72 107.26 3.2
      vertex 86.22 107.26 3.2
      vertex 88.72 -0.25 3.2
    endloop
  endfacet
  facet normal 0 0 1
    outer loop
      vertex 177.44 109.51 3.2
      vertex 86.22 107.26 3.2
      vertex 88.72 107.26 3.2
    endloop
  endfacet
  facet normal 0 0 1
    outer loop
      vertex 177.44 109.51 3.2
      vertex 66.54 107.26 3.2
      vertex 86.22 107.26 3.2
    endloop
  endfacet
  facet normal 0 0 1
    outer loop
      vertex 66.54 107.26 3.2
      vertex 64.04 107.26 3.2
      vertex 66.54 -0.25 3.2
    endloop
  endfacet
  facet normal -0 0 1
    outer loop
      vertex -2.5 109.51 3.2
      vertex 66.54 107.26 3.2
      vertex 177.44 109.51 3.2
    endloop
  endfacet
  facet normal 0 0 1
    outer loop
      vertex 66.54 107.26 3.2
      vertex -2.5 109.51 3.2
      vertex 64.04 107.26 3.2
    endloop
  endfacet
  facet normal 0 0 1
    outer loop
      vertex 44.36 107.26 3.2
      vertex 41.86 107.26 3.2
      vertex 44.36 -0.25 3.2
    endloop
  endfacet
  facet normal 0 0 1
    outer loop
      vertex 64.04 107.26 3.2
      vertex -2.5 109.51 3.2
      vertex 44.36 107.26 3.2
    endloop
  endfacet
  facet normal 0 0 1
    outer loop
      vertex 44.36 107.26 3.2
      vertex -2.5 109.51 3.2
      vertex 41.86 107.26 3.2
    endloop
  endfacet
  facet normal 0 0 1
    outer loop
      vertex 22.18 107.26 3.2
      vertex 19.68 107.26 3.2
      vertex 22.18 -0.25 3.2
    endloop
  endfacet
  facet normal 0 0 1
    outer loop
      vertex 41.86 107.26 3.2
      vertex -2.5 109.51 3.2
      vertex 22.18 107.26 3.2
    endloop
  endfacet
  facet normal 0 0 1
    outer loop
      vertex 22.18 107.26 3.2
      vertex -2.5 109.51 3.2
      vertex 19.68 107.26 3.2
    endloop
  endfacet
  facet normal 0 0 1
    outer loop
      vertex -0.25 107.26 3.2
      vertex -2.5 109.51 3.2
      vertex -0.25 -0.25 3.2
    endloop
  endfacet
  facet normal 0 0 1
    outer loop
      vertex 19.68 107.26 3.2
      vertex -2.5 109.51 3.2
      vertex -0.25 107.26 3.2
    endloop
  endfacet
  facet normal -0 0 1
    outer loop
      vertex 175.19 -0.25 3.2
      vertex 177.44 -2.5 3.2
      vertex 175.19 107.26 3.2
    endloop
  endfacet
  facet normal -0 0 1
    outer loop
      vertex 155.26 -0.25 3.2
      vertex 177.44 -2.5 3.2
      vertex 175.19 -0.25 3.2
    endloop
  endfacet
  facet normal 0 0 1
    outer loop
      vertex 152.76 -0.25 3.2
      vertex 155.26 -0.25 3.2
      vertex 152.76 107.26 3.2
    endloop
  endfacet
  facet normal -0 0 1
    outer loop
      vertex 152.76 -0.25 3.2
      vertex 177.44 -2.5 3.2
      vertex 155.26 -0.25 3.2
    endloop
  endfacet
  facet normal -0 0 1
    outer loop
      vertex 133.08 -0.25 3.2
      vertex 177.44 -2.5 3.2
      vertex 152.76 -0.25 3.2
    endloop
  endfacet
  facet normal 0 0 1
    outer loop
      vertex 130.58 -0.25 3.2
      vertex 133.08 -0.25 3.2
      vertex 130.58 107.26 3.2
    endloop
  endfacet
  facet normal -0 0 1
    outer loop
      vertex 130.58 -0.25 3.2
      vertex 177.44 -2.5 3.2
      vertex 133.08 -0.25 3.2
    endloop
  endfacet
  facet normal -0 0 1
    outer loop
      vertex 110.9 -0.25 3.2
      vertex 177.44 -2.5 3.2
      vertex 130.58 -0.25 3.2
    endloop
  endfacet
  facet normal 0 0 1
    outer loop
      vertex 108.4 -0.25 3.2
      vertex 110.9 -0.25 3.2
      vertex 108.4 107.26 3.2
    endloop
  endfacet
  facet normal -0 0 1
    outer loop
      vertex 108.4 -0.25 3.2
      vertex 177.44 -2.5 3.2
      vertex 110.9 -0.25 3.2
    endloop
  endfacet
  facet normal -0 0 1
    outer loop
      vertex 88.72 -0.25 3.2
      vertex 177.44 -2.5 3.2
      vertex 108.4 -0.25 3.2
    endloop
  endfacet
  facet normal 0 0 1
    outer loop
      vertex 86.22 -0.25 3.2
      vertex 88.72 -0.25 3.2
      vertex 86.22 107.26 3.2
    endloop
  endfacet
  facet normal -0 0 1
    outer loop
      vertex 86.22 -0.25 3.2
      vertex 177.44 -2.5 3.2
      vertex 88.72 -0.25 3.2
    endloop
  endfacet
  facet normal -0 0 1
    outer loop
      vertex 66.54 -0.25 3.2
      vertex 177.44 -2.5 3.2
      vertex 86.22 -0.25 3.2
    endloop
  endfacet
  facet normal 0 0 1
    outer loop
      vertex 64.04 -0.25 3.2
      vertex 66.54 -0.25 3.2
      vertex 64.04 107.26 3.2
    endloop
  endfacet
  facet normal 0 0 1
    outer loop
      vertex -2.5 -2.5 3.2
      vertex 66.54 -0.25 3.2
      vertex 64.04 -0.25 3.2
    endloop
  endfacet
  facet normal 0 0 1
    outer loop
      vertex -2.5 -2.5 3.2
      vertex 64.04 -0.25 3.2
      vertex 44.36 -0.25 3.2
    endloop
  endfacet
  facet normal 0 0 1
    outer loop
      vertex 41.86 -0.25 3.2
      vertex 44.36 -0.25 3.2
      vertex 41.86 107.26 3.2
    endloop
  endfacet
  facet normal 0 0 1
    outer loop
      vertex -2.5 -2.5 3.2
      vertex 44.36 -0.25 3.2
      vertex 41.86 -0.25 3.2
    endloop
  endfacet
  facet normal 0 0 1
    outer loop
      vertex -2.5 -2.5 3.2
      vertex 41.86 -0.25 3.2
      vertex 22.18 -0.25 3.2
    endloop
  endfacet
  facet normal 0 0 1
    outer loop
      vertex 19.68 -0.25 3.2
      vertex 22.18 -0.25 3.2
      vertex 19.68 107.26 3.2
    endloop
  endfacet
  facet normal 0 0 1
    outer loop
      vertex -2.5 -2.5 3.2
      vertex 22.18 -0.25 3.2
      vertex 19.68 -0.25 3.2
    endloop
  endfacet
  facet normal 0 0 1
    outer loop
      vertex -2.5 -2.5 3.2
      vertex 19.68 -0.25 3.2
      vertex -0.25 -0.25 3.2
    endloop
  endfacet
  facet normal 0 0 1
    outer loop
      vertex 66.54 -0.25 3.2
      vertex -2.5 -2.5 3.2
      vertex 177.44 -2.5 3.2
    endloop
  endfacet
  facet normal 0 0 1
    outer loop
      vertex -2.5 -2.5 3.2
      vertex -0.25 -0.25 3.2
      vertex -2.5 109.51 3.2
    endloop
  endfacet
  facet normal 1 0 0
    outer loop
      vertex 22.18 107.26 3.2
      vertex 22.18 54 1.6
      vertex 22.18 107.26 1.6
    endloop
  endfacet
  facet normal 1 0 0
    outer loop
      vertex 22.18 54 1.6
      vertex 22.18 2.25 1.6
      vertex 22.18 54 0
    endloop
  endfacet
  facet normal 1 -0 0
    outer loop
      vertex 22.18 -0.25 3.2
      vertex 22.18 54 1.6
      vertex 22.18 107.26 3.2
    endloop
  endfacet
  facet normal 1 0 0
    outer loop
      vertex 22.18 54 1.6
      vertex 22.18 -0.25 3.2
      vertex 22.18 2.25 1.6
    endloop
  endfacet
  facet normal 1 0 0
    outer loop
      vertex 22.18 2.25 1.6
      vertex 22.18 -0.25 3.2
      vertex 22.18 -0.25 1.6
    endloop
  endfacet
  facet normal 1 0 0
    outer loop
      vertex 22.18 54 0
      vertex 22.18 2.25 1.6
      vertex 22.18 2.25 0
    endloop
  endfacet
  facet normal 0 1 -0
    outer loop
      vertex 177.44 109.51 0
      vertex -2.5 109.51 3.2
      vertex 177.44 109.51 3.2
    endloop
  endfacet
  facet normal 0 1 0
    outer loop
      vertex -2.5 109.51 3.2
      vertex 177.44 109.51 0
      vertex -2.5 109.51 0
    endloop
  endfacet
  facet normal 0 0 -1
    outer loop
      vertex 175.19 54 0
      vertex 177.44 -2.5 0
      vertex 175.19 2.25 0
    endloop
  endfacet
  facet normal 0 0 -1
    outer loop
      vertex 177.44 -2.5 0
      vertex 172.69 -0.25 0
      vertex 175.19 2.25 0
    endloop
  endfacet
  facet normal 0 0 -1
    outer loop
      vertex 177.44 -2.5 0
      vertex 157.51 -0.25 0
      vertex 172.69 -0.25 0
    endloop
  endfacet
  facet normal 0 0 -1
    outer loop
      vertex 157.51 -0.25 0
      vertex 155.26 2.25 0
      vertex 157.51 2.25 0
    endloop
  endfacet
  facet normal 0 0 -1
    outer loop
      vertex 155.26 2.25 0
      vertex 152.76 2.25 0
      vertex 155.26 54 0
    endloop
  endfacet
  facet normal 0 0 -1
    outer loop
      vertex 157.51 -0.25 0
      vertex 152.76 2.25 0
      vertex 155.26 2.25 0
    endloop
  endfacet
  facet normal 0 0 -1
    outer loop
      vertex 157.51 -0.25 0
      vertex 150.51 -0.25 0
      vertex 152.76 2.25 0
    endloop
  endfacet
  facet normal 0 0 -1
    outer loop
      vertex 177.44 -2.5 0
      vertex 150.51 -0.25 0
      vertex 157.51 -0.25 0
    endloop
  endfacet
  facet normal 0 0 -1
    outer loop
      vertex 177.44 -2.5 0
      vertex 135.33 -0.25 0
      vertex 150.51 -0.25 0
    endloop
  endfacet
  facet normal 0 0 -1
    outer loop
      vertex 135.33 -0.25 0
      vertex 133.08 2.25 0
      vertex 135.33 2.25 0
    endloop
  endfacet
  facet normal 0 0 -1
    outer loop
      vertex 133.08 2.25 0
      vertex 130.58 2.25 0
      vertex 133.08 54 0
    endloop
  endfacet
  facet normal 0 0 -1
    outer loop
      vertex 135.33 -0.25 0
      vertex 130.58 2.25 0
      vertex 133.08 2.25 0
    endloop
  endfacet
  facet normal 0 0 -1
    outer loop
      vertex 135.33 -0.25 0
      vertex 128.33 -0.25 0
      vertex 130.58 2.25 0
    endloop
  endfacet
  facet normal 0 0 -1
    outer loop
      vertex 177.44 -2.5 0
      vertex 128.33 -0.25 0
      vertex 135.33 -0.25 0
    endloop
  endfacet
  facet normal 0 0 -1
    outer loop
      vertex 177.44 -2.5 0
      vertex 113.15 -0.25 0
      vertex 128.33 -0.25 0
    endloop
  endfacet
  facet normal 0 0 -1
    outer loop
      vertex 113.15 -0.25 0
      vertex 110.9 2.25 0
      vertex 113.15 2.25 0
    endloop
  endfacet
  facet normal 0 0 -1
    outer loop
      vertex 110.9 2.25 0
      vertex 108.4 2.25 0
      vertex 110.9 54 0
    endloop
  endfacet
  facet normal 0 0 -1
    outer loop
      vertex 113.15 -0.25 0
      vertex 108.4 2.25 0
      vertex 110.9 2.25 0
    endloop
  endfacet
  facet normal 0 0 -1
    outer loop
      vertex 113.15 -0.25 0
      vertex 106.15 -0.25 0
      vertex 108.4 2.25 0
    endloop
  endfacet
  facet normal 0 0 -1
    outer loop
      vertex 177.44 -2.5 0
      vertex 106.15 -0.25 0
      vertex 113.15 -0.25 0
    endloop
  endfacet
  facet normal 0 0 -1
    outer loop
      vertex 177.44 -2.5 0
      vertex 90.97 -0.25 0
      vertex 106.15 -0.25 0
    endloop
  endfacet
  facet normal 0 0 -1
    outer loop
      vertex 90.97 -0.25 0
      vertex 88.72 2.25 0
      vertex 90.97 2.25 0
    endloop
  endfacet
  facet normal 0 0 -1
    outer loop
      vertex 88.72 2.25 0
      vertex 86.22 2.25 0
      vertex 88.72 54 0
    endloop
  endfacet
  facet normal 0 0 -1
    outer loop
      vertex 90.97 -0.25 0
      vertex 86.22 2.25 0
      vertex 88.72 2.25 0
    endloop
  endfacet
  facet normal 0 0 -1
    outer loop
      vertex 90.97 -0.25 0
      vertex 83.97 -0.25 0
      vertex 86.22 2.25 0
    endloop
  endfacet
  facet normal 0 0 -1
    outer loop
      vertex 177.44 -2.5 0
      vertex 83.97 -0.25 0
      vertex 90.97 -0.25 0
    endloop
  endfacet
  facet normal 0 0 -1
    outer loop
      vertex 177.44 -2.5 0
      vertex 68.79 -0.25 0
      vertex 83.97 -0.25 0
    endloop
  endfacet
  facet normal 0 0 -1
    outer loop
      vertex 68.79 -0.25 0
      vertex 66.54 2.25 0
      vertex 68.79 2.25 0
    endloop
  endfacet
  facet normal 0 0 -1
    outer loop
      vertex 66.54 2.25 0
      vertex 64.04 2.25 0
      vertex 66.54 54 0
    endloop
  endfacet
  facet normal 0 0 -1
    outer loop
      vertex 68.79 -0.25 0
      vertex 64.04 2.25 0
      vertex 66.54 2.25 0
    endloop
  endfacet
  facet normal 0 0 -1
    outer loop
      vertex 68.79 -0.25 0
      vertex 61.79 -0.25 0
      vertex 64.04 2.25 0
    endloop
  endfacet
  facet normal 0 0 -1
    outer loop
      vertex -2.5 -2.5 0
      vertex 68.79 -0.25 0
      vertex 177.44 -2.5 0
    endloop
  endfacet
  facet normal -0 0 -1
    outer loop
      vertex 68.79 -0.25 0
      vertex -2.5 -2.5 0
      vertex 61.79 -0.25 0
    endloop
  endfacet
  facet normal 0 0 -1
    outer loop
      vertex 46.61 -0.25 0
      vertex 44.36 2.25 0
      vertex 46.61 2.25 0
    endloop
  endfacet
  facet normal 0 0 -1
    outer loop
      vertex 44.36 2.25 0
      vertex 41.86 2.25 0
      vertex 44.36 54 0
    endloop
  endfacet
  facet normal 0 0 -1
    outer loop
      vertex 46.61 -0.25 0
      vertex 41.86 2.25 0
      vertex 44.36 2.25 0
    endloop
  endfacet
  facet normal 0 0 -1
    outer loop
      vertex 46.61 -0.25 0
      vertex 39.61 -0.25 0
      vertex 41.86 2.25 0
    endloop
  endfacet
  facet normal -0 0 -1
    outer loop
      vertex 61.79 -0.25 0
      vertex -2.5 -2.5 0
      vertex 46.61 -0.25 0
    endloop
  endfacet
  facet normal -0 0 -1
    outer loop
      vertex 46.61 -0.25 0
      vertex -2.5 -2.5 0
      vertex 39.61 -0.25 0
    endloop
  endfacet
  facet normal 0 0 -1
    outer loop
      vertex 24.43 -0.25 0
      vertex 22.18 2.25 0
      vertex 24.43 2.25 0
    endloop
  endfacet
  facet normal 0 0 -1
    outer loop
      vertex 22.18 2.25 0
      vertex 19.68 2.25 0
      vertex 22.18 54 0
    endloop
  endfacet
  facet normal 0 0 -1
    outer loop
      vertex 24.43 -0.25 0
      vertex 19.68 2.25 0
      vertex 22.18 2.25 0
    endloop
  endfacet
  facet normal 0 0 -1
    outer loop
      vertex 24.43 -0.25 0
      vertex 17.43 -0.25 0
      vertex 19.68 2.25 0
    endloop
  endfacet
  facet normal -0 0 -1
    outer loop
      vertex 39.61 -0.25 0
      vertex -2.5 -2.5 0
      vertex 24.43 -0.25 0
    endloop
  endfacet
  facet normal -0 0 -1
    outer loop
      vertex 24.43 -0.25 0
      vertex -2.5 -2.5 0
      vertex 17.43 -0.25 0
    endloop
  endfacet
  facet normal 0 0 -1
    outer loop
      vertex 2.25 -0.25 0
      vertex -0.25 2.25 0
      vertex 2.25 2.25 0
    endloop
  endfacet
  facet normal -0 0 -1
    outer loop
      vertex -0.25 2.25 0
      vertex -2.5 -2.5 0
      vertex -0.25 54 0
    endloop
  endfacet
  facet normal -0 0 -1
    outer loop
      vertex 2.25 -0.25 0
      vertex -2.5 -2.5 0
      vertex -0.25 2.25 0
    endloop
  endfacet
  facet normal -0 0 -1
    outer loop
      vertex 17.43 -0.25 0
      vertex -2.5 -2.5 0
      vertex 2.25 -0.25 0
    endloop
  endfacet
  facet normal 0 0 -1
    outer loop
      vertex 177.44 -2.5 0
      vertex 175.19 54 0
      vertex 177.44 109.51 0
    endloop
  endfacet
  facet normal 0 0 -1
    outer loop
      vertex 155.26 54 0
      vertex 177.44 109.51 0
      vertex 175.19 54 0
    endloop
  endfacet
  facet normal 0 0 -1
    outer loop
      vertex 152.76 54 0
      vertex 155.26 54 0
      vertex 152.76 2.25 0
    endloop
  endfacet
  facet normal 0 0 -1
    outer loop
      vertex 152.76 54 0
      vertex 177.44 109.51 0
      vertex 155.26 54 0
    endloop
  endfacet
  facet normal 0 0 -1
    outer loop
      vertex 133.08 54 0
      vertex 177.44 109.51 0
      vertex 152.76 54 0
    endloop
  endfacet
  facet normal 0 0 -1
    outer loop
      vertex 130.58 54 0
      vertex 133.08 54 0
      vertex 130.58 2.25 0
    endloop
  endfacet
  facet normal 0 0 -1
    outer loop
      vertex 130.58 54 0
      vertex 177.44 109.51 0
      vertex 133.08 54 0
    endloop
  endfacet
  facet normal 0 0 -1
    outer loop
      vertex 110.9 54 0
      vertex 177.44 109.51 0
      vertex 130.58 54 0
    endloop
  endfacet
  facet normal 0 0 -1
    outer loop
      vertex 108.4 54 0
      vertex 110.9 54 0
      vertex 108.4 2.25 0
    endloop
  endfacet
  facet normal 0 0 -1
    outer loop
      vertex 108.4 54 0
      vertex 177.44 109.51 0
      vertex 110.9 54 0
    endloop
  endfacet
  facet normal 0 0 -1
    outer loop
      vertex 88.72 54 0
      vertex 177.44 109.51 0
      vertex 108.4 54 0
    endloop
  endfacet
  facet normal 0 0 -1
    outer loop
      vertex 86.22 54 0
      vertex 88.72 54 0
      vertex 86.22 2.25 0
    endloop
  endfacet
  facet normal 0 0 -1
    outer loop
      vertex 86.22 54 0
      vertex 177.44 109.51 0
      vertex 88.72 54 0
    endloop
  endfacet
  facet normal 0 0 -1
    outer loop
      vertex -2.5 109.51 0
      vertex 86.22 54 0
      vertex 66.54 54 0
    endloop
  endfacet
  facet normal 0 0 -1
    outer loop
      vertex 64.04 54 0
      vertex 66.54 54 0
      vertex 64.04 2.25 0
    endloop
  endfacet
  facet normal 0 0 -1
    outer loop
      vertex -2.5 109.51 0
      vertex 66.54 54 0
      vertex 64.04 54 0
    endloop
  endfacet
  facet normal 0 0 -1
    outer loop
      vertex -2.5 109.51 0
      vertex 64.04 54 0
      vertex 44.36 54 0
    endloop
  endfacet
  facet normal 0 0 -1
    outer loop
      vertex 41.86 54 0
      vertex 44.36 54 0
      vertex 41.86 2.25 0
    endloop
  endfacet
  facet normal 0 0 -1
    outer loop
      vertex -2.5 109.51 0
      vertex 44.36 54 0
      vertex 41.86 54 0
    endloop
  endfacet
  facet normal 0 0 -1
    outer loop
      vertex -2.5 109.51 0
      vertex 41.86 54 0
      vertex 22.18 54 0
    endloop
  endfacet
  facet normal 0 0 -1
    outer loop
      vertex 19.68 54 0
      vertex 22.18 54 0
      vertex 19.68 2.25 0
    endloop
  endfacet
  facet normal 0 0 -1
    outer loop
      vertex -2.5 109.51 0
      vertex 22.18 54 0
      vertex 19.68 54 0
    endloop
  endfacet
  facet normal 0 0 -1
    outer loop
      vertex -2.5 109.51 0
      vertex 19.68 54 0
      vertex -0.25 54 0
    endloop
  endfacet
  facet normal 0 0 -1
    outer loop
      vertex 86.22 54 0
      vertex -2.5 109.51 0
      vertex 177.44 109.51 0
    endloop
  endfacet
  facet normal 0 0 -1
    outer loop
      vertex -2.5 109.51 0
      vertex -0.25 54 0
      vertex -2.5 -2.5 0
    endloop
  endfacet
  facet normal -0 0 -1
    outer loop
      vertex 175.19 2.25 0
      vertex 172.69 -0.25 0
      vertex 172.69 2.25 0
    endloop
  endfacet
  facet normal -0 0 -1
    outer loop
      vertex 152.76 2.25 0
      vertex 150.51 -0.25 0
      vertex 150.51 2.25 0
    endloop
  endfacet
  facet normal -0 0 -1
    outer loop
      vertex 130.58 2.25 0
      vertex 128.33 -0.25 0
      vertex 128.33 2.25 0
    endloop
  endfacet
  facet normal -0 0 -1
    outer loop
      vertex 108.4 2.25 0
      vertex 106.15 -0.25 0
      vertex 106.15 2.25 0
    endloop
  endfacet
  facet normal -0 0 -1
    outer loop
      vertex 86.22 2.25 0
      vertex 83.97 -0.25 0
      vertex 83.97 2.25 0
    endloop
  endfacet
  facet normal -0 0 -1
    outer loop
      vertex 64.04 2.25 0
      vertex 61.79 -0.25 0
      vertex 61.79 2.25 0
    endloop
  endfacet
  facet normal -0 0 -1
    outer loop
      vertex 41.86 2.25 0
      vertex 39.61 -0.25 0
      vertex 39.61 2.25 0
    endloop
  endfacet
  facet normal -0 0 -1
    outer loop
      vertex 19.68 2.25 0
      vertex 17.43 -0.25 0
      vertex 17.43 2.25 0
    endloop
  endfacet
  facet normal 0 -1 0
    outer loop
      vertex -2.5 -2.5 0
      vertex 177.44 -2.5 3.2
      vertex -2.5 -2.5 3.2
    endloop
  endfacet
  facet normal 0 -1 -0
    outer loop
      vertex 177.44 -2.5 3.2
      vertex -2.5 -2.5 0
      vertex 177.44 -2.5 0
    endloop
  endfacet
  facet normal 1 0 0
    outer loop
      vertex -0.25 107.26 3.2
      vertex -0.25 54 1.6
      vertex -0.25 107.26 1.6
    endloop
  endfacet
  facet normal 1 0 0
    outer loop
      vertex -0.25 54 1.6
      vertex -0.25 2.25 1.6
      vertex -0.25 54 0
    endloop
  endfacet
  facet normal 1 -0 0
    outer loop
      vertex -0.25 -0.25 3.2
      vertex -0.25 54 1.6
      vertex -0.25 107.26 3.2
    endloop
  endfacet
  facet normal 1 0 0
    outer loop
      vertex -0.25 54 1.6
      vertex -0.25 -0.25 3.2
      vertex -0.25 2.25 1.6
    endloop
  endfacet
  facet normal 1 0 0
    outer loop
      vertex -0.25 2.25 1.6
      vertex -0.25 -0.25 3.2
      vertex -0.25 -0.25 1.6
    endloop
  endfacet
  facet normal 1 0 0
    outer loop
      vertex -0.25 54 0
      vertex -0.25 2.25 1.6
      vertex -0.25 2.25 0
    endloop
  endfacet
  facet normal 0 -1 0
    outer loop
      vertex -0.25 107.26 1.6
      vertex 19.68 107.26 3.2
      vertex -0.25 107.26 3.2
    endloop
  endfacet
  facet normal 0 -1 -0
    outer loop
      vertex 19.68 107.26 3.2
      vertex -0.25 107.26 1.6
      vertex 19.68 107.26 1.6
    endloop
  endfacet
  facet normal 0 1 -0
    outer loop
      vertex 17.43 -0.25 0
      vertex 2.25 -0.25 1.6
      vertex 17.43 -0.25 1.6
    endloop
  endfacet
  facet normal 0 1 0
    outer loop
      vertex 2.25 -0.25 1.6
      vertex 17.43 -0.25 0
      vertex 2.25 -0.25 0
    endloop
  endfacet
  facet normal 0 1 0
    outer loop
      vertex 17.43 -0.25 1.6
      vertex 19.68 -0.25 3.2
      vertex 19.68 -0.25 1.6
    endloop
  endfacet
  facet normal 0 1 0
    outer loop
      vertex 2.25 -0.25 1.6
      vertex 19.68 -0.25 3.2
      vertex 17.43 -0.25 1.6
    endloop
  endfacet
  facet normal 0 1 0
    outer loop
      vertex 19.68 -0.25 3.2
      vertex 2.25 -0.25 1.6
      vertex -0.25 -0.25 3.2
    endloop
  endfacet
  facet normal 0 1 0
    outer loop
      vertex -0.25 -0.25 3.2
      vertex 2.25 -0.25 1.6
      vertex -0.25 -0.25 1.6
    endloop
  endfacet
  facet normal -0 0 1
    outer loop
      vertex -0.25 2.25 1.6
      vertex 2.25 -0.25 1.6
      vertex 2.25 2.25 1.6
    endloop
  endfacet
  facet normal 0 0 1
    outer loop
      vertex 2.25 -0.25 1.6
      vertex -0.25 2.25 1.6
      vertex -0.25 -0.25 1.6
    endloop
  endfacet
  facet normal 1 -0 0
    outer loop
      vertex 2.25 -0.25 1.6
      vertex 2.25 2.25 0
      vertex 2.25 2.25 1.6
    endloop
  endfacet
  facet normal 1 0 0
    outer loop
      vertex 2.25 2.25 0
      vertex 2.25 -0.25 1.6
      vertex 2.25 -0.25 0
    endloop
  endfacet
  facet normal 0 1 -0
    outer loop
      vertex 2.25 2.25 0
      vertex -0.25 2.25 1.6
      vertex 2.25 2.25 1.6
    endloop
  endfacet
  facet normal 0 1 0
    outer loop
      vertex -0.25 2.25 1.6
      vertex 2.25 2.25 0
      vertex -0.25 2.25 0
    endloop
  endfacet
  facet normal -1 0 0
    outer loop
      vertex 17.43 -0.25 0
      vertex 17.43 2.25 1.6
      vertex 17.43 2.25 0
    endloop
  endfacet
  facet normal -1 -0 0
    outer loop
      vertex 17.43 2.25 1.6
      vertex 17.43 -0.25 0
      vertex 17.43 -0.25 1.6
    endloop
  endfacet
  facet normal -0 0 1
    outer loop
      vertex 17.43 2.25 1.6
      vertex 19.68 -0.25 1.6
      vertex 19.68 2.25 1.6
    endloop
  endfacet
  facet normal 0 0 1
    outer loop
      vertex 19.68 -0.25 1.6
      vertex 17.43 2.25 1.6
      vertex 17.43 -0.25 1.6
    endloop
  endfacet
  facet normal 0 1 -0
    outer loop
      vertex 19.68 2.25 0
      vertex 17.43 2.25 1.6
      vertex 19.68 2.25 1.6
    endloop
  endfacet
  facet normal 0 1 0
    outer loop
      vertex 17.43 2.25 1.6
      vertex 19.68 2.25 0
      vertex 17.43 2.25 0
    endloop
  endfacet
  facet normal -0 0 1
    outer loop
      vertex -0.25 107.26 1.6
      vertex 19.68 54 1.6
      vertex 19.68 107.26 1.6
    endloop
  endfacet
  facet normal 0 0 1
    outer loop
      vertex 19.68 54 1.6
      vertex -0.25 107.26 1.6
      vertex -0.25 54 1.6
    endloop
  endfacet
  facet normal 0 -1 0
    outer loop
      vertex -0.25 54 0
      vertex 19.68 54 1.6
      vertex -0.25 54 1.6
    endloop
  endfacet
  facet normal 0 -1 -0
    outer loop
      vertex 19.68 54 1.6
      vertex -0.25 54 0
      vertex 19.68 54 0
    endloop
  endfacet
  facet normal -1 0 0
    outer loop
      vertex 19.68 54 0
      vertex 19.68 2.25 0
      vertex 19.68 54 1.6
    endloop
  endfacet
  facet normal -1 0 0
    outer loop
      vertex 19.68 54 1.6
      vertex 19.68 107.26 3.2
      vertex 19.68 107.26 1.6
    endloop
  endfacet
  facet normal -1 0 0
    outer loop
      vertex 19.68 2.25 1.6
      vertex 19.68 54 1.6
      vertex 19.68 2.25 0
    endloop
  endfacet
  facet normal -1 0 0
    outer loop
      vertex 19.68 -0.25 3.2
      vertex 19.68 54 1.6
      vertex 19.68 2.25 1.6
    endloop
  endfacet
  facet normal -1 0 0
    outer loop
      vertex 19.68 -0.25 3.2
      vertex 19.68 2.25 1.6
      vertex 19.68 -0.25 1.6
    endloop
  endfacet
  facet normal -1 0 0
    outer loop
      vertex 19.68 54 1.6
      vertex 19.68 -0.25 3.2
      vertex 19.68 107.26 3.2
    endloop
  endfacet
  facet normal 1 0 0
    outer loop
      vertex 44.36 107.26 3.2
      vertex 44.36 54 1.6
      vertex 44.36 107.26 1.6
    endloop
  endfacet
  facet normal 1 0 0
    outer loop
      vertex 44.36 54 1.6
      vertex 44.36 2.25 1.6
      vertex 44.36 54 0
    endloop
  endfacet
  facet normal 1 -0 0
    outer loop
      vertex 44.36 -0.25 3.2
      vertex 44.36 54 1.6
      vertex 44.36 107.26 3.2
    endloop
  endfacet
  facet normal 1 0 0
    outer loop
      vertex 44.36 54 1.6
      vertex 44.36 -0.25 3.2
      vertex 44.36 2.25 1.6
    endloop
  endfacet
  facet normal 1 0 0
    outer loop
      vertex 44.36 2.25 1.6
      vertex 44.36 -0.25 3.2
      vertex 44.36 -0.25 1.6
    endloop
  endfacet
  facet normal 1 0 0
    outer loop
      vertex 44.36 54 0
      vertex 44.36 2.25 1.6
      vertex 44.36 2.25 0
    endloop
  endfacet
  facet normal 0 1 -0
    outer loop
      vertex 39.61 -0.25 0
      vertex 24.43 -0.25 1.6
      vertex 39.61 -0.25 1.6
    endloop
  endfacet
  facet normal 0 1 0
    outer loop
      vertex 24.43 -0.25 1.6
      vertex 39.61 -0.25 0
      vertex 24.43 -0.25 0
    endloop
  endfacet
  facet normal 0 1 0
    outer loop
      vertex 39.61 -0.25 1.6
      vertex 41.86 -0.25 3.2
      vertex 41.86 -0.25 1.6
    endloop
  endfacet
  facet normal 0 1 0
    outer loop
      vertex 41.86 -0.25 3.2
      vertex 39.61 -0.25 1.6
      vertex 22.18 -0.25 3.2
    endloop
  endfacet
  facet normal 0 1 -0
    outer loop
      vertex 24.43 -0.25 1.6
      vertex 22.18 -0.25 3.2
      vertex 39.61 -0.25 1.6
    endloop
  endfacet
  facet normal 0 1 0
    outer loop
      vertex 22.18 -0.25 3.2
      vertex 24.43 -0.25 1.6
      vertex 22.18 -0.25 1.6
    endloop
  endfacet
  facet normal 0 -1 0
    outer loop
      vertex 22.18 107.26 1.6
      vertex 41.86 107.26 3.2
      vertex 22.18 107.26 3.2
    endloop
  endfacet
  facet normal 0 -1 -0
    outer loop
      vertex 41.86 107.26 3.2
      vertex 22.18 107.26 1.6
      vertex 41.86 107.26 1.6
    endloop
  endfacet
  facet normal -0 0 1
    outer loop
      vertex 22.18 2.25 1.6
      vertex 24.43 -0.25 1.6
      vertex 24.43 2.25 1.6
    endloop
  endfacet
  facet normal 0 0 1
    outer loop
      vertex 24.43 -0.25 1.6
      vertex 22.18 2.25 1.6
      vertex 22.18 -0.25 1.6
    endloop
  endfacet
  facet normal 1 -0 0
    outer loop
      vertex 24.43 -0.25 1.6
      vertex 24.43 2.25 0
      vertex 24.43 2.25 1.6
    endloop
  endfacet
  facet normal 1 0 0
    outer loop
      vertex 24.43 2.25 0
      vertex 24.43 -0.25 1.6
      vertex 24.43 -0.25 0
    endloop
  endfacet
  facet normal 0 1 -0
    outer loop
      vertex 24.43 2.25 0
      vertex 22.18 2.25 1.6
      vertex 24.43 2.25 1.6
    endloop
  endfacet
  facet normal 0 1 0
    outer loop
      vertex 22.18 2.25 1.6
      vertex 24.43 2.25 0
      vertex 22.18 2.25 0
    endloop
  endfacet
  facet normal -1 0 0
    outer loop
      vertex 39.61 -0.25 0
      vertex 39.61 2.25 1.6
      vertex 39.61 2.25 0
    endloop
  endfacet
  facet normal -1 -0 0
    outer loop
      vertex 39.61 2.25 1.6
      vertex 39.61 -0.25 0
      vertex 39.61 -0.25 1.6
    endloop
  endfacet
  facet normal -0 0 1
    outer loop
      vertex 39.61 2.25 1.6
      vertex 41.86 -0.25 1.6
      vertex 41.86 2.25 1.6
    endloop
  endfacet
  facet normal 0 0 1
    outer loop
      vertex 41.86 -0.25 1.6
      vertex 39.61 2.25 1.6
      vertex 39.61 -0.25 1.6
    endloop
  endfacet
  facet normal 0 1 -0
    outer loop
      vertex 41.86 2.25 0
      vertex 39.61 2.25 1.6
      vertex 41.86 2.25 1.6
    endloop
  endfacet
  facet normal 0 1 0
    outer loop
      vertex 39.61 2.25 1.6
      vertex 41.86 2.25 0
      vertex 39.61 2.25 0
    endloop
  endfacet
  facet normal -0 0 1
    outer loop
      vertex 22.18 107.26 1.6
      vertex 41.86 54 1.6
      vertex 41.86 107.26 1.6
    endloop
  endfacet
  facet normal 0 0 1
    outer loop
      vertex 41.86 54 1.6
      vertex 22.18 107.26 1.6
      vertex 22.18 54 1.6
    endloop
  endfacet
  facet normal 0 -1 0
    outer loop
      vertex 22.18 54 0
      vertex 41.86 54 1.6
      vertex 22.18 54 1.6
    endloop
  endfacet
  facet normal 0 -1 -0
    outer loop
      vertex 41.86 54 1.6
      vertex 22.18 54 0
      vertex 41.86 54 0
    endloop
  endfacet
  facet normal -1 0 0
    outer loop
      vertex 41.86 54 0
      vertex 41.86 2.25 0
      vertex 41.86 54 1.6
    endloop
  endfacet
  facet normal -1 0 0
    outer loop
      vertex 41.86 54 1.6
      vertex 41.86 107.26 3.2
      vertex 41.86 107.26 1.6
    endloop
  endfacet
  facet normal -1 0 0
    outer loop
      vertex 41.86 2.25 1.6
      vertex 41.86 54 1.6
      vertex 41.86 2.25 0
    endloop
  endfacet
  facet normal -1 0 0
    outer loop
      vertex 41.86 -0.25 3.2
      vertex 41.86 54 1.6
      vertex 41.86 2.25 1.6
    endloop
  endfacet
  facet normal -1 0 0
    outer loop
      vertex 41.86 -0.25 3.2
      vertex 41.86 2.25 1.6
      vertex 41.86 -0.25 1.6
    endloop
  endfacet
  facet normal -1 0 0
    outer loop
      vertex 41.86 54 1.6
      vertex 41.86 -0.25 3.2
      vertex 41.86 107.26 3.2
    endloop
  endfacet
  facet normal 1 0 0
    outer loop
      vertex 66.54 107.26 3.2
      vertex 66.54 54 1.6
      vertex 66.54 107.26 1.6
    endloop
  endfacet
  facet normal 1 0 0
    outer loop
      vertex 66.54 54 1.6
      vertex 66.54 2.25 1.6
      vertex 66.54 54 0
    endloop
  endfacet
  facet normal 1 -0 0
    outer loop
      vertex 66.54 -0.25 3.2
      vertex 66.54 54 1.6
      vertex 66.54 107.26 3.2
    endloop
  endfacet
  facet normal 1 0 0
    outer loop
      vertex 66.54 54 1.6
      vertex 66.54 -0.25 3.2
      vertex 66.54 2.25 1.6
    endloop
  endfacet
  facet normal 1 0 0
    outer loop
      vertex 66.54 2.25 1.6
      vertex 66.54 -0.25 3.2
      vertex 66.54 -0.25 1.6
    endloop
  endfacet
  facet normal 1 0 0
    outer loop
      vertex 66.54 54 0
      vertex 66.54 2.25 1.6
      vertex 66.54 2.25 0
    endloop
  endfacet
  facet normal 0 1 -0
    outer loop
      vertex 61.79 -0.25 0
      vertex 46.61 -0.25 1.6
      vertex 61.79 -0.25 1.6
    endloop
  endfacet
  facet normal 0 1 0
    outer loop
      vertex 46.61 -0.25 1.6
      vertex 61.79 -0.25 0
      vertex 46.61 -0.25 0
    endloop
  endfacet
  facet normal 0 1 0
    outer loop
      vertex 61.79 -0.25 1.6
      vertex 64.04 -0.25 3.2
      vertex 64.04 -0.25 1.6
    endloop
  endfacet
  facet normal 0 1 0
    outer loop
      vertex 64.04 -0.25 3.2
      vertex 61.79 -0.25 1.6
      vertex 44.36 -0.25 3.2
    endloop
  endfacet
  facet normal 0 1 -0
    outer loop
      vertex 46.61 -0.25 1.6
      vertex 44.36 -0.25 3.2
      vertex 61.79 -0.25 1.6
    endloop
  endfacet
  facet normal 0 1 0
    outer loop
      vertex 44.36 -0.25 3.2
      vertex 46.61 -0.25 1.6
      vertex 44.36 -0.25 1.6
    endloop
  endfacet
  facet normal 0 -1 0
    outer loop
      vertex 44.36 107.26 1.6
      vertex 64.04 107.26 3.2
      vertex 44.36 107.26 3.2
    endloop
  endfacet
  facet normal 0 -1 -0
    outer loop
      vertex 64.04 107.26 3.2
      vertex 44.36 107.26 1.6
      vertex 64.04 107.26 1.6
    endloop
  endfacet
  facet normal -0 0 1
    outer loop
      vertex 44.36 2.25 1.6
      vertex 46.61 -0.25 1.6
      vertex 46.61 2.25 1.6
    endloop
  endfacet
  facet normal 0 0 1
    outer loop
      vertex 46.61 -0.25 1.6
      vertex 44.36 2.25 1.6
      vertex 44.36 -0.25 1.6
    endloop
  endfacet
  facet normal 1 -0 0
    outer loop
      vertex 46.61 -0.25 1.6
      vertex 46.61 2.25 0
      vertex 46.61 2.25 1.6
    endloop
  endfacet
  facet normal 1 0 0
    outer loop
      vertex 46.61 2.25 0
      vertex 46.61 -0.25 1.6
      vertex 46.61 -0.25 0
    endloop
  endfacet
  facet normal 0 1 -0
    outer loop
      vertex 46.61 2.25 0
      vertex 44.36 2.25 1.6
      vertex 46.61 2.25 1.6
    endloop
  endfacet
  facet normal 0 1 0
    outer loop
      vertex 44.36 2.25 1.6
      vertex 46.61 2.25 0
      vertex 44.36 2.25 0
    endloop
  endfacet
  facet normal -1 0 0
    outer loop
      vertex 61.79 -0.25 0
      vertex 61.79 2.25 1.6
      vertex 61.79 2.25 0
    endloop
  endfacet
  facet normal -1 -0 0
    outer loop
      vertex 61.79 2.25 1.6
      vertex 61.79 -0.25 0
      vertex 61.79 -0.25 1.6
    endloop
  endfacet
  facet normal -0 0 1
    outer loop
      vertex 61.79 2.25 1.6
      vertex 64.04 -0.25 1.6
      vertex 64.04 2.25 1.6
    endloop
  endfacet
  facet normal 0 0 1
    outer loop
      vertex 64.04 -0.25 1.6
      vertex 61.79 2.25 1.6
      vertex 61.79 -0.25 1.6
    endloop
  endfacet
  facet normal 0 1 -0
    outer loop
      vertex 64.04 2.25 0
      vertex 61.79 2.25 1.6
      vertex 64.04 2.25 1.6
    endloop
  endfacet
  facet normal 0 1 0
    outer loop
      vertex 61.79 2.25 1.6
      vertex 64.04 2.25 0
      vertex 61.79 2.25 0
    endloop
  endfacet
  facet normal -0 0 1
    outer loop
      vertex 44.36 107.26 1.6
      vertex 64.04 54 1.6
      vertex 64.04 107.26 1.6
    endloop
  endfacet
  facet normal 0 0 1
    outer loop
      vertex 64.04 54 1.6
      vertex 44.36 107.26 1.6
      vertex 44.36 54 1.6
    endloop
  endfacet
  facet normal 0 -1 0
    outer loop
      vertex 44.36 54 0
      vertex 64.04 54 1.6
      vertex 44.36 54 1.6
    endloop
  endfacet
  facet normal 0 -1 -0
    outer loop
      vertex 64.04 54 1.6
      vertex 44.36 54 0
      vertex 64.04 54 0
    endloop
  endfacet
  facet normal -1 0 0
    outer loop
      vertex 64.04 54 0
      vertex 64.04 2.25 0
      vertex 64.04 54 1.6
    endloop
  endfacet
  facet normal -1 0 0
    outer loop
      vertex 64.04 54 1.6
      vertex 64.04 107.26 3.2
      vertex 64.04 107.26 1.6
    endloop
  endfacet
  facet normal -1 0 0
    outer loop
      vertex 64.04 2.25 1.6
      vertex 64.04 54 1.6
      vertex 64.04 2.25 0
    endloop
  endfacet
  facet normal -1 0 0
    outer loop
      vertex 64.04 -0.25 3.2
      vertex 64.04 54 1.6
      vertex 64.04 2.25 1.6
    endloop
  endfacet
  facet normal -1 0 0
    outer loop
      vertex 64.04 -0.25 3.2
      vertex 64.04 2.25 1.6
      vertex 64.04 -0.25 1.6
    endloop
  endfacet
  facet normal -1 0 0
    outer loop
      vertex 64.04 54 1.6
      vertex 64.04 -0.25 3.2
      vertex 64.04 107.26 3.2
    endloop
  endfacet
  facet normal 1 0 0
    outer loop
      vertex 88.72 107.26 3.2
      vertex 88.72 54 1.6
      vertex 88.72 107.26 1.6
    endloop
  endfacet
  facet normal 1 0 0
    outer loop
      vertex 88.72 54 1.6
      vertex 88.72 2.25 1.6
      vertex 88.72 54 0
    endloop
  endfacet
  facet normal 1 -0 0
    outer loop
      vertex 88.72 -0.25 3.2
      vertex 88.72 54 1.6
      vertex 88.72 107.26 3.2
    endloop
  endfacet
  facet normal 1 0 0
    outer loop
      vertex 88.72 54 1.6
      vertex 88.72 -0.25 3.2
      vertex 88.72 2.25 1.6
    endloop
  endfacet
  facet normal 1 0 0
    outer loop
      vertex 88.72 2.25 1.6
      vertex 88.72 -0.25 3.2
      vertex 88.72 -0.25 1.6
    endloop
  endfacet
  facet normal 1 0 0
    outer loop
      vertex 88.72 54 0
      vertex 88.72 2.25 1.6
      vertex 88.72 2.25 0
    endloop
  endfacet
  facet normal 0 1 -0
    outer loop
      vertex 83.97 -0.25 0
      vertex 68.79 -0.25 1.6
      vertex 83.97 -0.25 1.6
    endloop
  endfacet
  facet normal 0 1 0
    outer loop
      vertex 68.79 -0.25 1.6
      vertex 83.97 -0.25 0
      vertex 68.79 -0.25 0
    endloop
  endfacet
  facet normal 0 1 0
    outer loop
      vertex 83.97 -0.25 1.6
      vertex 86.22 -0.25 3.2
      vertex 86.22 -0.25 1.6
    endloop
  endfacet
  facet normal 0 1 0
    outer loop
      vertex 86.22 -0.25 3.2
      vertex 83.97 -0.25 1.6
      vertex 66.54 -0.25 3.2
    endloop
  endfacet
  facet normal 0 1 -0
    outer loop
      vertex 68.79 -0.25 1.6
      vertex 66.54 -0.25 3.2
      vertex 83.97 -0.25 1.6
    endloop
  endfacet
  facet normal 0 1 0
    outer loop
      vertex 66.54 -0.25 3.2
      vertex 68.79 -0.25 1.6
      vertex 66.54 -0.25 1.6
    endloop
  endfacet
  facet normal 0 -1 0
    outer loop
      vertex 66.54 107.26 1.6
      vertex 86.22 107.26 3.2
      vertex 66.54 107.26 3.2
    endloop
  endfacet
  facet normal 0 -1 -0
    outer loop
      vertex 86.22 107.26 3.2
      vertex 66.54 107.26 1.6
      vertex 86.22 107.26 1.6
    endloop
  endfacet
  facet normal -0 0 1
    outer loop
      vertex 66.54 2.25 1.6
      vertex 68.79 -0.25 1.6
      vertex 68.79 2.25 1.6
    endloop
  endfacet
  facet normal 0 0 1
    outer loop
      vertex 68.79 -0.25 1.6
      vertex 66.54 2.25 1.6
      vertex 66.54 -0.25 1.6
    endloop
  endfacet
  facet normal 1 -0 0
    outer loop
      vertex 68.79 -0.25 1.6
      vertex 68.79 2.25 0
      vertex 68.79 2.25 1.6
    endloop
  endfacet
  facet normal 1 0 0
    outer loop
      vertex 68.79 2.25 0
      vertex 68.79 -0.25 1.6
      vertex 68.79 -0.25 0
    endloop
  endfacet
  facet normal 0 1 -0
    outer loop
      vertex 68.79 2.25 0
      vertex 66.54 2.25 1.6
      vertex 68.79 2.25 1.6
    endloop
  endfacet
  facet normal 0 1 0
    outer loop
      vertex 66.54 2.25 1.6
      vertex 68.79 2.25 0
      vertex 66.54 2.25 0
    endloop
  endfacet
  facet normal -1 0 0
    outer loop
      vertex 83.97 -0.25 0
      vertex 83.97 2.25 1.6
      vertex 83.97 2.25 0
    endloop
  endfacet
  facet normal -1 -0 0
    outer loop
      vertex 83.97 2.25 1.6
      vertex 83.97 -0.25 0
      vertex 83.97 -0.25 1.6
    endloop
  endfacet
  facet normal -0 0 1
    outer loop
      vertex 83.97 2.25 1.6
      vertex 86.22 -0.25 1.6
      vertex 86.22 2.25 1.6
    endloop
  endfacet
  facet normal 0 0 1
    outer loop
      vertex 86.22 -0.25 1.6
      vertex 83.97 2.25 1.6
      vertex 83.97 -0.25 1.6
    endloop
  endfacet
  facet normal 0 1 -0
    outer loop
      vertex 86.22 2.25 0
      vertex 83.97 2.25 1.6
      vertex 86.22 2.25 1.6
    endloop
  endfacet
  facet normal 0 1 0
    outer loop
      vertex 83.97 2.25 1.6
      vertex 86.22 2.25 0
      vertex 83.97 2.25 0
    endloop
  endfacet
  facet normal -0 0 1
    outer loop
      vertex 66.54 107.26 1.6
      vertex 86.22 54 1.6
      vertex 86.22 107.26 1.6
    endloop
  endfacet
  facet normal 0 0 1
    outer loop
      vertex 86.22 54 1.6
      vertex 66.54 107.26 1.6
      vertex 66.54 54 1.6
    endloop
  endfacet
  facet normal 0 -1 0
    outer loop
      vertex 66.54 54 0
      vertex 86.22 54 1.6
      vertex 66.54 54 1.6
    endloop
  endfacet
  facet normal 0 -1 -0
    outer loop
      vertex 86.22 54 1.6
      vertex 66.54 54 0
      vertex 86.22 54 0
    endloop
  endfacet
  facet normal -1 0 0
    outer loop
      vertex 86.22 54 0
      vertex 86.22 2.25 0
      vertex 86.22 54 1.6
    endloop
  endfacet
  facet normal -1 0 0
    outer loop
      vertex 86.22 54 1.6
      vertex 86.22 107.26 3.2
      vertex 86.22 107.26 1.6
    endloop
  endfacet
  facet normal -1 0 0
    outer loop
      vertex 86.22 2.25 1.6
      vertex 86.22 54 1.6
      vertex 86.22 2.25 0
    endloop
  endfacet
  facet normal -1 0 0
    outer loop
      vertex 86.22 -0.25 3.2
      vertex 86.22 54 1.6
      vertex 86.22 2.25 1.6
    endloop
  endfacet
  facet normal -1 0 0
    outer loop
      vertex 86.22 -0.25 3.2
      vertex 86.22 2.25 1.6
      vertex 86.22 -0.25 1.6
    endloop
  endfacet
  facet normal -1 0 0
    outer loop
      vertex 86.22 54 1.6
      vertex 86.22 -0.25 3.2
      vertex 86.22 107.26 3.2
    endloop
  endfacet
  facet normal 1 0 0
    outer loop
      vertex 110.9 107.26 3.2
      vertex 110.9 54 1.6
      vertex 110.9 107.26 1.6
    endloop
  endfacet
  facet normal 1 0 0
    outer loop
      vertex 110.9 54 1.6
      vertex 110.9 2.25 1.6
      vertex 110.9 54 0
    endloop
  endfacet
  facet normal 1 -0 0
    outer loop
      vertex 110.9 -0.25 3.2
      vertex 110.9 54 1.6
      vertex 110.9 107.26 3.2
    endloop
  endfacet
  facet normal 1 0 0
    outer loop
      vertex 110.9 54 1.6
      vertex 110.9 -0.25 3.2
      vertex 110.9 2.25 1.6
    endloop
  endfacet
  facet normal 1 0 0
    outer loop
      vertex 110.9 2.25 1.6
      vertex 110.9 -0.25 3.2
      vertex 110.9 -0.25 1.6
    endloop
  endfacet
  facet normal 1 0 0
    outer loop
      vertex 110.9 54 0
      vertex 110.9 2.25 1.6
      vertex 110.9 2.25 0
    endloop
  endfacet
  facet normal 0 -1 0
    outer loop
      vertex 88.72 107.26 1.6
      vertex 108.4 107.26 3.2
      vertex 88.72 107.26 3.2
    endloop
  endfacet
  facet normal 0 -1 -0
    outer loop
      vertex 108.4 107.26 3.2
      vertex 88.72 107.26 1.6
      vertex 108.4 107.26 1.6
    endloop
  endfacet
  facet normal 0 1 -0
    outer loop
      vertex 106.15 -0.25 0
      vertex 90.97 -0.25 1.6
      vertex 106.15 -0.25 1.6
    endloop
  endfacet
  facet normal 0 1 0
    outer loop
      vertex 90.97 -0.25 1.6
      vertex 106.15 -0.25 0
      vertex 90.97 -0.25 0
    endloop
  endfacet
  facet normal 0 1 0
    outer loop
      vertex 106.15 -0.25 1.6
      vertex 108.4 -0.25 3.2
      vertex 108.4 -0.25 1.6
    endloop
  endfacet
  facet normal 0 1 0
    outer loop
      vertex 108.4 -0.25 3.2
      vertex 106.15 -0.25 1.6
      vertex 88.72 -0.25 3.2
    endloop
  endfacet
  facet normal 0 1 -0
    outer loop
      vertex 90.97 -0.25 1.6
      vertex 88.72 -0.25 3.2
      vertex 106.15 -0.25 1.6
    endloop
  endfacet
  facet normal 0 1 0
    outer loop
      vertex 88.72 -0.25 3.2
      vertex 90.97 -0.25 1.6
      vertex 88.72 -0.25 1.6
    endloop
  endfacet
  facet normal -0 0 1
    outer loop
      vertex 88.72 2.25 1.6
      vertex 90.97 -0.25 1.6
      vertex 90.97 2.25 1.6
    endloop
  endfacet
  facet normal 0 0 1
    outer loop
      vertex 90.97 -0.25 1.6
      vertex 88.72 2.25 1.6
      vertex 88.72 -0.25 1.6
    endloop
  endfacet
  facet normal 1 -0 0
    outer loop
      vertex 90.97 -0.25 1.6
      vertex 90.97 2.25 0
      vertex 90.97 2.25 1.6
    endloop
  endfacet
  facet normal 1 0 0
    outer loop
      vertex 90.97 2.25 0
      vertex 90.97 -0.25 1.6
      vertex 90.97 -0.25 0
    endloop
  endfacet
  facet normal 0 1 -0
    outer loop
      vertex 90.97 2.25 0
      vertex 88.72 2.25 1.6
      vertex 90.97 2.25 1.6
    endloop
  endfacet
  facet normal 0 1 0
    outer loop
      vertex 88.72 2.25 1.6
      vertex 90.97 2.25 0
      vertex 88.72 2.25 0
    endloop
  endfacet
  facet normal -1 0 0
    outer loop
      vertex 106.15 -0.25 0
      vertex 106.15 2.25 1.6
      vertex 106.15 2.25 0
    endloop
  endfacet
  facet normal -1 -0 0
    outer loop
      vertex 106.15 2.25 1.6
      vertex 106.15 -0.25 0
      vertex 106.15 -0.25 1.6
    endloop
  endfacet
  facet normal -0 0 1
    outer loop
      vertex 106.15 2.25 1.6
      vertex 108.4 -0.25 1.6
      vertex 108.4 2.25 1.6
    endloop
  endfacet
  facet normal 0 0 1
    outer loop
      vertex 108.4 -0.25 1.6
      vertex 106.15 2.25 1.6
      vertex 106.15 -0.25 1.6
    endloop
  endfacet
  facet normal 0 1 -0
    outer loop
      vertex 108.4 2.25 0
      vertex 106.15 2.25 1.6
      vertex 108.4 2.25 1.6
    endloop
  endfacet
  facet normal 0 1 0
    outer loop
      vertex 106.15 2.25 1.6
      vertex 108.4 2.25 0
      vertex 106.15 2.25 0
    endloop
  endfacet
  facet normal -0 0 1
    outer loop
      vertex 88.72 107.26 1.6
      vertex 108.4 54 1.6
      vertex 108.4 107.26 1.6
    endloop
  endfacet
  facet normal 0 0 1
    outer loop
      vertex 108.4 54 1.6
      vertex 88.72 107.26 1.6
      vertex 88.72 54 1.6
    endloop
  endfacet
  facet normal 0 -1 0
    outer loop
      vertex 88.72 54 0
      vertex 108.4 54 1.6
      vertex 88.72 54 1.6
    endloop
  endfacet
  facet normal 0 -1 -0
    outer loop
      vertex 108.4 54 1.6
      vertex 88.72 54 0
      vertex 108.4 54 0
    endloop
  endfacet
  facet normal -1 0 0
    outer loop
      vertex 108.4 54 0
      vertex 108.4 2.25 0
      vertex 108.4 54 1.6
    endloop
  endfacet
  facet normal -1 0 0
    outer loop
      vertex 108.4 54 1.6
      vertex 108.4 107.26 3.2
      vertex 108.4 107.26 1.6
    endloop
  endfacet
  facet normal -1 0 0
    outer loop
      vertex 108.4 2.25 1.6
      vertex 108.4 54 1.6
      vertex 108.4 2.25 0
    endloop
  endfacet
  facet normal -1 0 0
    outer loop
      vertex 108.4 -0.25 3.2
      vertex 108.4 54 1.6
      vertex 108.4 2.25 1.6
    endloop
  endfacet
  facet normal -1 0 0
    outer loop
      vertex 108.4 -0.25 3.2
      vertex 108.4 2.25 1.6
      vertex 108.4 -0.25 1.6
    endloop
  endfacet
  facet normal -1 0 0
    outer loop
      vertex 108.4 54 1.6
      vertex 108.4 -0.25 3.2
      vertex 108.4 107.26 3.2
    endloop
  endfacet
  facet normal 1 0 0
    outer loop
      vertex 133.08 107.26 3.2
      vertex 133.08 54 1.6
      vertex 133.08 107.26 1.6
    endloop
  endfacet
  facet normal 1 0 0
    outer loop
      vertex 133.08 54 1.6
      vertex 133.08 2.25 1.6
      vertex 133.08 54 0
    endloop
  endfacet
  facet normal 1 -0 0
    outer loop
      vertex 133.08 -0.25 3.2
      vertex 133.08 54 1.6
      vertex 133.08 107.26 3.2
    endloop
  endfacet
  facet normal 1 0 0
    outer loop
      vertex 133.08 54 1.6
      vertex 133.08 -0.25 3.2
      vertex 133.08 2.25 1.6
    endloop
  endfacet
  facet normal 1 0 0
    outer loop
      vertex 133.08 2.25 1.6
      vertex 133.08 -0.25 3.2
      vertex 133.08 -0.25 1.6
    endloop
  endfacet
  facet normal 1 0 0
    outer loop
      vertex 133.08 54 0
      vertex 133.08 2.25 1.6
      vertex 133.08 2.25 0
    endloop
  endfacet
  facet normal 0 -1 0
    outer loop
      vertex 110.9 107.26 1.6
      vertex 130.58 107.26 3.2
      vertex 110.9 107.26 3.2
    endloop
  endfacet
  facet normal 0 -1 -0
    outer loop
      vertex 130.58 107.26 3.2
      vertex 110.9 107.26 1.6
      vertex 130.58 107.26 1.6
    endloop
  endfacet
  facet normal 0 1 -0
    outer loop
      vertex 128.33 -0.25 0
      vertex 113.15 -0.25 1.6
      vertex 128.33 -0.25 1.6
    endloop
  endfacet
  facet normal 0 1 0
    outer loop
      vertex 113.15 -0.25 1.6
      vertex 128.33 -0.25 0
      vertex 113.15 -0.25 0
    endloop
  endfacet
  facet normal 0 1 0
    outer loop
      vertex 128.33 -0.25 1.6
      vertex 130.58 -0.25 3.2
      vertex 130.58 -0.25 1.6
    endloop
  endfacet
  facet normal 0 1 0
    outer loop
      vertex 130.58 -0.25 3.2
      vertex 128.33 -0.25 1.6
      vertex 110.9 -0.25 3.2
    endloop
  endfacet
  facet normal 0 1 -0
    outer loop
      vertex 113.15 -0.25 1.6
      vertex 110.9 -0.25 3.2
      vertex 128.33 -0.25 1.6
    endloop
  endfacet
  facet normal 0 1 0
    outer loop
      vertex 110.9 -0.25 3.2
      vertex 113.15 -0.25 1.6
      vertex 110.9 -0.25 1.6
    endloop
  endfacet
  facet normal -0 0 1
    outer loop
      vertex 110.9 2.25 1.6
      vertex 113.15 -0.25 1.6
      vertex 113.15 2.25 1.6
    endloop
  endfacet
  facet normal 0 0 1
    outer loop
      vertex 113.15 -0.25 1.6
      vertex 110.9 2.25 1.6
      vertex 110.9 -0.25 1.6
    endloop
  endfacet
  facet normal 1 -0 0
    outer loop
      vertex 113.15 -0.25 1.6
      vertex 113.15 2.25 0
      vertex 113.15 2.25 1.6
    endloop
  endfacet
  facet normal 1 0 0
    outer loop
      vertex 113.15 2.25 0
      vertex 113.15 -0.25 1.6
      vertex 113.15 -0.25 0
    endloop
  endfacet
  facet normal 0 1 -0
    outer loop
      vertex 113.15 2.25 0
      vertex 110.9 2.25 1.6
      vertex 113.15 2.25 1.6
    endloop
  endfacet
  facet normal 0 1 0
    outer loop
      vertex 110.9 2.25 1.6
      vertex 113.15 2.25 0
      vertex 110.9 2.25 0
    endloop
  endfacet
  facet normal -1 0 0
    outer loop
      vertex 128.33 -0.25 0
      vertex 128.33 2.25 1.6
      vertex 128.33 2.25 0
    endloop
  endfacet
  facet normal -1 -0 0
    outer loop
      vertex 128.33 2.25 1.6
      vertex 128.33 -0.25 0
      vertex 128.33 -0.25 1.6
    endloop
  endfacet
  facet normal -0 0 1
    outer loop
      vertex 128.33 2.25 1.6
      vertex 130.58 -0.25 1.6
      vertex 130.58 2.25 1.6
    endloop
  endfacet
  facet normal 0 0 1
    outer loop
      vertex 130.58 -0.25 1.6
      vertex 128.33 2.25 1.6
      vertex 128.33 -0.25 1.6
    endloop
  endfacet
  facet normal 0 1 -0
    outer loop
      vertex 130.58 2.25 0
      vertex 128.33 2.25 1.6
      vertex 130.58 2.25 1.6
    endloop
  endfacet
  facet normal 0 1 0
    outer loop
      vertex 128.33 2.25 1.6
      vertex 130.58 2.25 0
      vertex 128.33 2.25 0
    endloop
  endfacet
  facet normal -0 0 1
    outer loop
      vertex 110.9 107.26 1.6
      vertex 130.58 54 1.6
      vertex 130.58 107.26 1.6
    endloop
  endfacet
  facet normal 0 0 1
    outer loop
      vertex 130.58 54 1.6
      vertex 110.9 107.26 1.6
      vertex 110.9 54 1.6
    endloop
  endfacet
  facet normal 0 -1 0
    outer loop
      vertex 110.9 54 0
      vertex 130.58 54 1.6
      vertex 110.9 54 1.6
    endloop
  endfacet
  facet normal 0 -1 -0
    outer loop
      vertex 130.58 54 1.6
      vertex 110.9 54 0
      vertex 130.58 54 0
    endloop
  endfacet
  facet normal -1 0 0
    outer loop
      vertex 130.58 54 0
      vertex 130.58 2.25 0
      vertex 130.58 54 1.6
    endloop
  endfacet
  facet normal -1 0 0
    outer loop
      vertex 130.58 54 1.6
      vertex 130.58 107.26 3.2
      vertex 130.58 107.26 1.6
    endloop
  endfacet
  facet normal -1 0 0
    outer loop
      vertex 130.58 2.25 1.6
      vertex 130.58 54 1.6
      vertex 130.58 2.25 0
    endloop
  endfacet
  facet normal -1 0 0
    outer loop
      vertex 130.58 -0.25 3.2
      vertex 130.58 54 1.6
      vertex 130.58 2.25 1.6
    endloop
  endfacet
  facet normal -1 0 0
    outer loop
      vertex 130.58 -0.25 3.2
      vertex 130.58 2.25 1.6
      vertex 130.58 -0.25 1.6
    endloop
  endfacet
  facet normal -1 0 0
    outer loop
      vertex 130.58 54 1.6
      vertex 130.58 -0.25 3.2
      vertex 130.58 107.26 3.2
    endloop
  endfacet
  facet normal 1 0 0
    outer loop
      vertex 155.26 107.26 3.2
      vertex 155.26 54 1.6
      vertex 155.26 107.26 1.6
    endloop
  endfacet
  facet normal 1 0 0
    outer loop
      vertex 155.26 54 1.6
      vertex 155.26 2.25 1.6
      vertex 155.26 54 0
    endloop
  endfacet
  facet normal 1 -0 0
    outer loop
      vertex 155.26 -0.25 3.2
      vertex 155.26 54 1.6
      vertex 155.26 107.26 3.2
    endloop
  endfacet
  facet normal 1 0 0
    outer loop
      vertex 155.26 54 1.6
      vertex 155.26 -0.25 3.2
      vertex 155.26 2.25 1.6
    endloop
  endfacet
  facet normal 1 0 0
    outer loop
      vertex 155.26 2.25 1.6
      vertex 155.26 -0.25 3.2
      vertex 155.26 -0.25 1.6
    endloop
  endfacet
  facet normal 1 0 0
    outer loop
      vertex 155.26 54 0
      vertex 155.26 2.25 1.6
      vertex 155.26 2.25 0
    endloop
  endfacet
  facet normal 0 1 -0
    outer loop
      vertex 150.51 -0.25 0
      vertex 135.33 -0.25 1.6
      vertex 150.51 -0.25 1.6
    endloop
  endfacet
  facet normal 0 1 0
    outer loop
      vertex 135.33 -0.25 1.6
      vertex 150.51 -0.25 0
      vertex 135.33 -0.25 0
    endloop
  endfacet
  facet normal 0 1 0
    outer loop
      vertex 150.51 -0.25 1.6
      vertex 152.76 -0.25 3.2
      vertex 152.76 -0.25 1.6
    endloop
  endfacet
  facet normal 0 1 0
    outer loop
      vertex 152.76 -0.25 3.2
      vertex 150.51 -0.25 1.6
      vertex 133.08 -0.25 3.2
    endloop
  endfacet
  facet normal 0 1 -0
    outer loop
      vertex 135.33 -0.25 1.6
      vertex 133.08 -0.25 3.2
      vertex 150.51 -0.25 1.6
    endloop
  endfacet
  facet normal 0 1 0
    outer loop
      vertex 133.08 -0.25 3.2
      vertex 135.33 -0.25 1.6
      vertex 133.08 -0.25 1.6
    endloop
  endfacet
  facet normal 0 -1 0
    outer loop
      vertex 133.08 107.26 1.6
      vertex 152.76 107.26 3.2
      vertex 133.08 107.26 3.2
    endloop
  endfacet
  facet normal 0 -1 -0
    outer loop
      vertex 152.76 107.26 3.2
      vertex 133.08 107.26 1.6
      vertex 152.76 107.26 1.6
    endloop
  endfacet
  facet normal -0 0 1
    outer loop
      vertex 133.08 2.25 1.6
      vertex 135.33 -0.25 1.6
      vertex 135.33 2.25 1.6
    endloop
  endfacet
  facet normal 0 0 1
    outer loop
      vertex 135.33 -0.25 1.6
      vertex 133.08 2.25 1.6
      vertex 133.08 -0.25 1.6
    endloop
  endfacet
  facet normal 1 -0 0
    outer loop
      vertex 135.33 -0.25 1.6
      vertex 135.33 2.25 0
      vertex 135.33 2.25 1.6
    endloop
  endfacet
  facet normal 1 0 0
    outer loop
      vertex 135.33 2.25 0
      vertex 135.33 -0.25 1.6
      vertex 135.33 -0.25 0
    endloop
  endfacet
  facet normal 0 1 -0
    outer loop
      vertex 135.33 2.25 0
      vertex 133.08 2.25 1.6
      vertex 135.33 2.25 1.6
    endloop
  endfacet
  facet normal 0 1 0
    outer loop
      vertex 133.08 2.25 1.6
      vertex 135.33 2.25 0
      vertex 133.08 2.25 0
    endloop
  endfacet
  facet normal -1 0 0
    outer loop
      vertex 150.51 -0.25 0
      vertex 150.51 2.25 1.6
      vertex 150.51 2.25 0
    endloop
  endfacet
  facet normal -1 -0 0
    outer loop
      vertex 150.51 2.25 1.6
      vertex 150.51 -0.25 0
      vertex 150.51 -0.25 1.6
    endloop
  endfacet
  facet normal -0 0 1
    outer loop
      vertex 150.51 2.25 1.6
      vertex 152.76 -0.25 1.6
      vertex 152.76 2.25 1.6
    endloop
  endfacet
  facet normal 0 0 1
    outer loop
      vertex 152.76 -0.25 1.6
      vertex 150.51 2.25 1.6
      vertex 150.51 -0.25 1.6
    endloop
  endfacet
  facet normal 0 1 -0
    outer loop
      vertex 152.76 2.25 0
      vertex 150.51 2.25 1.6
      vertex 152.76 2.25 1.6
    endloop
  endfacet
  facet normal 0 1 0
    outer loop
      vertex 150.51 2.25 1.6
      vertex 152.76 2.25 0
      vertex 150.51 2.25 0
    endloop
  endfacet
  facet normal -0 0 1
    outer loop
      vertex 133.08 107.26 1.6
      vertex 152.76 54 1.6
      vertex 152.76 107.26 1.6
    endloop
  endfacet
  facet normal 0 0 1
    outer loop
      vertex 152.76 54 1.6
      vertex 133.08 107.26 1.6
      vertex 133.08 54 1.6
    endloop
  endfacet
  facet normal 0 -1 0
    outer loop
      vertex 133.08 54 0
      vertex 152.76 54 1.6
      vertex 133.08 54 1.6
    endloop
  endfacet
  facet normal 0 -1 -0
    outer loop
      vertex 152.76 54 1.6
      vertex 133.08 54 0
      vertex 152.76 54 0
    endloop
  endfacet
  facet normal -1 0 0
    outer loop
      vertex 152.76 54 0
      vertex 152.76 2.25 0
      vertex 152.76 54 1.6
    endloop
  endfacet
  facet normal -1 0 0
    outer loop
      vertex 152.76 54 1.6
      vertex 152.76 107.26 3.2
      vertex 152.76 107.26 1.6
    endloop
  endfacet
  facet normal -1 0 0
    outer loop
      vertex 152.76 2.25 1.6
      vertex 152.76 54 1.6
      vertex 152.76 2.25 0
    endloop
  endfacet
  facet normal -1 0 0
    outer loop
      vertex 152.76 -0.25 3.2
      vertex 152.76 54 1.6
      vertex 152.76 2.25 1.6
    endloop
  endfacet
  facet normal -1 0 0
    outer loop
      vertex 152.76 -0.25 3.2
      vertex 152.76 2.25 1.6
      vertex 152.76 -0.25 1.6
    endloop
  endfacet
  facet normal -1 0 0
    outer loop
      vertex 152.76 54 1.6
      vertex 152.76 -0.25 3.2
      vertex 152.76 107.26 3.2
    endloop
  endfacet
  facet normal 1 -0 0
    outer loop
      vertex 177.44 -2.5 3.2
      vertex 177.44 109.51 0
      vertex 177.44 109.51 3.2
    endloop
  endfacet
  facet normal 1 0 0
    outer loop
      vertex 177.44 109.51 0
      vertex 177.44 -2.5 3.2
      vertex 177.44 -2.5 0
    endloop
  endfacet
  facet normal -1 0 0
    outer loop
      vertex 175.19 54 0
      vertex 175.19 2.25 0
      vertex 175.19 54 1.6
    endloop
  endfacet
  facet normal -1 0 0
    outer loop
      vertex 175.19 54 1.6
      vertex 175.19 107.26 3.2
      vertex 175.19 107.26 1.6
    endloop
  endfacet
  facet normal -1 0 0
    outer loop
      vertex 175.19 2.25 1.6
      vertex 175.19 54 1.6
      vertex 175.19 2.25 0
    endloop
  endfacet
  facet normal -1 0 0
    outer loop
      vertex 175.19 -0.25 3.2
      vertex 175.19 54 1.6
      vertex 175.19 2.25 1.6
    endloop
  endfacet
  facet normal -1 0 0
    outer loop
      vertex 175.19 -0.25 3.2
      vertex 175.19 2.25 1.6
      vertex 175.19 -0.25 1.6
    endloop
  endfacet
  facet normal -1 0 0
    outer loop
      vertex 175.19 54 1.6
      vertex 175.19 -0.25 3.2
      vertex 175.19 107.26 3.2
    endloop
  endfacet
  facet normal 0 1 -0
    outer loop
      vertex 172.69 -0.25 0
      vertex 157.51 -0.25 1.6
      vertex 172.69 -0.25 1.6
    endloop
  endfacet
  facet normal 0 1 0
    outer loop
      vertex 157.51 -0.25 1.6
      vertex 172.69 -0.25 0
      vertex 157.51 -0.25 0
    endloop
  endfacet
  facet normal 0 1 0
    outer loop
      vertex 172.69 -0.25 1.6
      vertex 175.19 -0.25 3.2
      vertex 175.19 -0.25 1.6
    endloop
  endfacet
  facet normal 0 1 0
    outer loop
      vertex 175.19 -0.25 3.2
      vertex 172.69 -0.25 1.6
      vertex 155.26 -0.25 3.2
    endloop
  endfacet
  facet normal 0 1 -0
    outer loop
      vertex 157.51 -0.25 1.6
      vertex 155.26 -0.25 3.2
      vertex 172.69 -0.25 1.6
    endloop
  endfacet
  facet normal 0 1 0
    outer loop
      vertex 155.26 -0.25 3.2
      vertex 157.51 -0.25 1.6
      vertex 155.26 -0.25 1.6
    endloop
  endfacet
  facet normal 0 -1 0
    outer loop
      vertex 155.26 107.26 1.6
      vertex 175.19 107.26 3.2
      vertex 155.26 107.26 3.2
    endloop
  endfacet
  facet normal 0 -1 -0
    outer loop
      vertex 175.19 107.26 3.2
      vertex 155.26 107.26 1.6
      vertex 175.19 107.26 1.6
    endloop
  endfacet
  facet normal -0 0 1
    outer loop
      vertex 155.26 2.25 1.6
      vertex 157.51 -0.25 1.6
      vertex 157.51 2.25 1.6
    endloop
  endfacet
  facet normal 0 0 1
    outer loop
      vertex 157.51 -0.25 1.6
      vertex 155.26 2.25 1.6
      vertex 155.26 -0.25 1.6
    endloop
  endfacet
  facet normal 1 -0 0
    outer loop
      vertex 157.51 -0.25 1.6
      vertex 157.51 2.25 0
      vertex 157.51 2.25 1.6
    endloop
  endfacet
  facet normal 1 0 0
    outer loop
      vertex 157.51 2.25 0
      vertex 157.51 -0.25 1.6
      vertex 157.51 -0.25 0
    endloop
  endfacet
  facet normal 0 1 -0
    outer loop
      vertex 157.51 2.25 0
      vertex 155.26 2.25 1.6
      vertex 157.51 2.25 1.6
    endloop
  endfacet
  facet normal 0 1 0
    outer loop
      vertex 155.26 2.25 1.6
      vertex 157.51 2.25 0
      vertex 155.26 2.25 0
    endloop
  endfacet
  facet normal -1 0 0
    outer loop
      vertex 172.69 -0.25 0
      vertex 172.69 2.25 1.6
      vertex 172.69 2.25 0
    endloop
  endfacet
  facet normal -1 -0 0
    outer loop
      vertex 172.69 2.25 1.6
      vertex 172.69 -0.25 0
      vertex 172.69 -0.25 1.6
    endloop
  endfacet
  facet normal -0 0 1
    outer loop
      vertex 172.69 2.25 1.6
      vertex 175.19 -0.25 1.6
      vertex 175.19 2.25 1.6
    endloop
  endfacet
  facet normal 0 0 1
    outer loop
      vertex 175.19 -0.25 1.6
      vertex 172.69 2.25 1.6
      vertex 172.69 -0.25 1.6
    endloop
  endfacet
  facet normal 0 1 -0
    outer loop
      vertex 175.19 2.25 0
      vertex 172.69 2.25 1.6
      vertex 175.19 2.25 1.6
    endloop
  endfacet
  facet normal 0 1 0
    outer loop
      vertex 172.69 2.25 1.6
      vertex 175.19 2.25 0
      vertex 172.69 2.25 0
    endloop
  endfacet
  facet normal -0 0 1
    outer loop
      vertex 155.26 107.26 1.6
      vertex 175.19 54 1.6
      vertex 175.19 107.26 1.6
    endloop
  endfacet
  facet normal 0 0 1
    outer loop
      vertex 175.19 54 1.6
      vertex 155.26 107.26 1.6
      vertex 155.26 54 1.6
    endloop
  endfacet
  facet normal 0 -1 0
    outer loop
      vertex 155.26 54 0
      vertex 175.19 54 1.6
      vertex 155.26 54 1.6
    endloop
  endfacet
  facet normal 0 -1 -0
    outer loop
      vertex 175.19 54 1.6
      vertex 155.26 54 0
      vertex 175.19 54 0
    endloop
  endfacet
endsolid OpenSCAD_Model
