solid OpenSCAD_Model
  facet normal -1 0 0
    outer loop
      vertex -2.5 -2.5 0
      vertex -2.5 109.51 3.2
      vertex -2.5 109.51 0
    endloop
  endfacet
  facet normal -1 -0 0
    outer loop
      vertex -2.5 109.51 3.2
      vertex -2.5 -2.5 0
      vertex -2.5 -2.5 3.2
    endloop
  endfacet
  facet normal 0 0 1
    outer loop
      vertex 180.94 109.51 3.2
      vertex 178.69 107.26 3.2
      vertex 180.94 -2.5 3.2
    endloop
  endfacet
  facet normal 0 0 1
    outer loop
      vertex 180.94 109.51 3.2
      vertex 158.51 107.26 3.2
      vertex 178.69 107.26 3.2
    endloop
  endfacet
  facet normal 0 0 1
    outer loop
      vertex 158.51 107.26 3.2
      vertex 156.01 107.26 3.2
      vertex 158.51 -0.25 3.2
    endloop
  endfacet
  facet normal 0 0 1
    outer loop
      vertex 180.94 109.51 3.2
      vertex 156.01 107.26 3.2
      vertex 158.51 107.26 3.2
    endloop
  endfacet
  facet normal 0 0 1
    outer loop
      vertex 180.94 109.51 3.2
      vertex 135.83 107.26 3.2
      vertex 156.01 107.26 3.2
    endloop
  endfacet
  facet normal 0 0 1
    outer loop
      vertex 135.83 107.26 3.2
      vertex 133.33 107.26 3.2
      vertex 135.83 -0.25 3.2
    endloop
  endfacet
  facet normal 0 0 1
    outer loop
      vertex 180.94 109.51 3.2
      vertex 133.33 107.26 3.2
      vertex 135.83 107.26 3.2
    endloop
  endfacet
  facet normal 0 0 1
    outer loop
      vertex 180.94 109.51 3.2
      vertex 113.15 107.26 3.2
      vertex 133.33 107.26 3.2
    endloop
  endfacet
  facet normal 0 0 1
    outer loop
      vertex 113.15 107.26 3.2
      vertex 110.65 107.26 3.2
      vertex 113.15 -0.25 3.2
    endloop
  endfacet
  facet normal 0 0 1
    outer loop
      vertex 180.94 109.51 3.2
      vertex 110.65 107.26 3.2
      vertex 113.15 107.26 3.2
    endloop
  endfacet
  facet normal 0 0 1
    outer loop
      vertex 180.94 109.51 3.2
      vertex 90.47 107.26 3.2
      vertex 110.65 107.26 3.2
    endloop
  endfacet
  facet normal 0 0 1
    outer loop
      vertex 90.47 107.26 3.2
      vertex 87.97 107.26 3.2
      vertex 90.47 -0.25 3.2
    endloop
  endfacet
  facet normal 0 0 1
    outer loop
      vertex 180.94 109.51 3.2
      vertex 87.97 107.26 3.2
      vertex 90.47 107.26 3.2
    endloop
  endfacet
  facet normal 0 0 1
    outer loop
      vertex 180.94 109.51 3.2
      vertex 67.79 107.26 3.2
      vertex 87.97 107.26 3.2
    endloop
  endfacet
  facet normal 0 0 1
    outer loop
      vertex 67.79 107.26 3.2
      vertex 65.29 107.26 3.2
      vertex 67.79 -0.25 3.2
    endloop
  endfacet
  facet normal -0 0 1
    outer loop
      vertex -2.5 109.51 3.2
      vertex 67.79 107.26 3.2
      vertex 180.94 109.51 3.2
    endloop
  endfacet
  facet normal 0 0 1
    outer loop
      vertex 67.79 107.26 3.2
      vertex -2.5 109.51 3.2
      vertex 65.29 107.26 3.2
    endloop
  endfacet
  facet normal 0 0 1
    outer loop
      vertex 45.11 107.26 3.2
      vertex 42.61 107.26 3.2
      vertex 45.11 -0.25 3.2
    endloop
  endfacet
  facet normal 0 0 1
    outer loop
      vertex 65.29 107.26 3.2
      vertex -2.5 109.51 3.2
      vertex 45.11 107.26 3.2
    endloop
  endfacet
  facet normal 0 0 1
    outer loop
      vertex 45.11 107.26 3.2
      vertex -2.5 109.51 3.2
      vertex 42.61 107.26 3.2
    endloop
  endfacet
  facet normal 0 0 1
    outer loop
      vertex 22.43 107.26 3.2
      vertex 19.93 107.26 3.2
      vertex 22.43 -0.25 3.2
    endloop
  endfacet
  facet normal 0 0 1
    outer loop
      vertex 42.61 107.26 3.2
      vertex -2.5 109.51 3.2
      vertex 22.43 107.26 3.2
    endloop
  endfacet
  facet normal 0 0 1
    outer loop
      vertex 22.43 107.26 3.2
      vertex -2.5 109.51 3.2
      vertex 19.93 107.26 3.2
    endloop
  endfacet
  facet normal 0 0 1
    outer loop
      vertex -0.25 107.26 3.2
      vertex -2.5 109.51 3.2
      vertex -0.25 -0.25 3.2
    endloop
  endfacet
  facet normal 0 0 1
    outer loop
      vertex 19.93 107.26 3.2
      vertex -2.5 109.51 3.2
      vertex -0.25 107.26 3.2
    endloop
  endfacet
  facet normal -0 0 1
    outer loop
      vertex 178.69 -0.25 3.2
      vertex 180.94 -2.5 3.2
      vertex 178.69 107.26 3.2
    endloop
  endfacet
  facet normal -0 0 1
    outer loop
      vertex 158.51 -0.25 3.2
      vertex 180.94 -2.5 3.2
      vertex 178.69 -0.25 3.2
    endloop
  endfacet
  facet normal 0 0 1
    outer loop
      vertex 156.01 -0.25 3.2
      vertex 158.51 -0.25 3.2
      vertex 156.01 107.26 3.2
    endloop
  endfacet
  facet normal -0 0 1
    outer loop
      vertex 156.01 -0.25 3.2
      vertex 180.94 -2.5 3.2
      vertex 158.51 -0.25 3.2
    endloop
  endfacet
  facet normal -0 0 1
    outer loop
      vertex 135.83 -0.25 3.2
      vertex 180.94 -2.5 3.2
      vertex 156.01 -0.25 3.2
    endloop
  endfacet
  facet normal 0 0 1
    outer loop
      vertex 133.33 -0.25 3.2
      vertex 135.83 -0.25 3.2
      vertex 133.33 107.26 3.2
    endloop
  endfacet
  facet normal -0 0 1
    outer loop
      vertex 133.33 -0.25 3.2
      vertex 180.94 -2.5 3.2
      vertex 135.83 -0.25 3.2
    endloop
  endfacet
  facet normal -0 0 1
    outer loop
      vertex 113.15 -0.25 3.2
      vertex 180.94 -2.5 3.2
      vertex 133.33 -0.25 3.2
    endloop
  endfacet
  facet normal 0 0 1
    outer loop
      vertex 110.65 -0.25 3.2
      vertex 113.15 -0.25 3.2
      vertex 110.65 107.26 3.2
    endloop
  endfacet
  facet normal -0 0 1
    outer loop
      vertex 110.65 -0.25 3.2
      vertex 180.94 -2.5 3.2
      vertex 113.15 -0.25 3.2
    endloop
  endfacet
  facet normal -0 0 1
    outer loop
      vertex 90.47 -0.25 3.2
      vertex 180.94 -2.5 3.2
      vertex 110.65 -0.25 3.2
    endloop
  endfacet
  facet normal 0 0 1
    outer loop
      vertex 87.97 -0.25 3.2
      vertex 90.47 -0.25 3.2
      vertex 87.97 107.26 3.2
    endloop
  endfacet
  facet normal -0 0 1
    outer loop
      vertex 87.97 -0.25 3.2
      vertex 180.94 -2.5 3.2
      vertex 90.47 -0.25 3.2
    endloop
  endfacet
  facet normal -0 0 1
    outer loop
      vertex 67.79 -0.25 3.2
      vertex 180.94 -2.5 3.2
      vertex 87.97 -0.25 3.2
    endloop
  endfacet
  facet normal 0 0 1
    outer loop
      vertex 65.29 -0.25 3.2
      vertex 67.79 -0.25 3.2
      vertex 65.29 107.26 3.2
    endloop
  endfacet
  facet normal 0 0 1
    outer loop
      vertex -2.5 -2.5 3.2
      vertex 67.79 -0.25 3.2
      vertex 65.29 -0.25 3.2
    endloop
  endfacet
  facet normal 0 0 1
    outer loop
      vertex -2.5 -2.5 3.2
      vertex 65.29 -0.25 3.2
      vertex 45.11 -0.25 3.2
    endloop
  endfacet
  facet normal 0 0 1
    outer loop
      vertex 42.61 -0.25 3.2
      vertex 45.11 -0.25 3.2
      vertex 42.61 107.26 3.2
    endloop
  endfacet
  facet normal 0 0 1
    outer loop
      vertex -2.5 -2.5 3.2
      vertex 45.11 -0.25 3.2
      vertex 42.61 -0.25 3.2
    endloop
  endfacet
  facet normal 0 0 1
    outer loop
      vertex -2.5 -2.5 3.2
      vertex 42.61 -0.25 3.2
      vertex 22.43 -0.25 3.2
    endloop
  endfacet
  facet normal 0 0 1
    outer loop
      vertex 19.93 -0.25 3.2
      vertex 22.43 -0.25 3.2
      vertex 19.93 107.26 3.2
    endloop
  endfacet
  facet normal 0 0 1
    outer loop
      vertex -2.5 -2.5 3.2
      vertex 22.43 -0.25 3.2
      vertex 19.93 -0.25 3.2
    endloop
  endfacet
  facet normal 0 0 1
    outer loop
      vertex -2.5 -2.5 3.2
      vertex 19.93 -0.25 3.2
      vertex -0.25 -0.25 3.2
    endloop
  endfacet
  facet normal 0 0 1
    outer loop
      vertex 67.79 -0.25 3.2
      vertex -2.5 -2.5 3.2
      vertex 180.94 -2.5 3.2
    endloop
  endfacet
  facet normal 0 0 1
    outer loop
      vertex -2.5 -2.5 3.2
      vertex -0.25 -0.25 3.2
      vertex -2.5 109.51 3.2
    endloop
  endfacet
  facet normal 0 0 -1
    outer loop
      vertex 178.69 54 0
      vertex 180.94 -2.5 0
      vertex 178.69 2.25 0
    endloop
  endfacet
  facet normal 0 0 -1
    outer loop
      vertex 180.94 -2.5 0
      vertex 176.19 -0.25 0
      vertex 178.69 2.25 0
    endloop
  endfacet
  facet normal 0 0 -1
    outer loop
      vertex 180.94 -2.5 0
      vertex 161.01 -0.25 0
      vertex 176.19 -0.25 0
    endloop
  endfacet
  facet normal 0 0 -1
    outer loop
      vertex 161.01 -0.25 0
      vertex 158.51 2.25 0
      vertex 161.01 2.25 0
    endloop
  endfacet
  facet normal 0 0 -1
    outer loop
      vertex 158.51 2.25 0
      vertex 156.01 2.25 0
      vertex 158.51 54 0
    endloop
  endfacet
  facet normal 0 0 -1
    outer loop
      vertex 161.01 -0.25 0
      vertex 156.01 2.25 0
      vertex 158.51 2.25 0
    endloop
  endfacet
  facet normal 0 0 -1
    outer loop
      vertex 161.01 -0.25 0
      vertex 153.51 -0.25 0
      vertex 156.01 2.25 0
    endloop
  endfacet
  facet normal 0 0 -1
    outer loop
      vertex 180.94 -2.5 0
      vertex 153.51 -0.25 0
      vertex 161.01 -0.25 0
    endloop
  endfacet
  facet normal 0 0 -1
    outer loop
      vertex 180.94 -2.5 0
      vertex 138.33 -0.25 0
      vertex 153.51 -0.25 0
    endloop
  endfacet
  facet normal 0 0 -1
    outer loop
      vertex 138.33 -0.25 0
      vertex 135.83 2.25 0
      vertex 138.33 2.25 0
    endloop
  endfacet
  facet normal 0 0 -1
    outer loop
      vertex 135.83 2.25 0
      vertex 133.33 2.25 0
      vertex 135.83 54 0
    endloop
  endfacet
  facet normal 0 0 -1
    outer loop
      vertex 138.33 -0.25 0
      vertex 133.33 2.25 0
      vertex 135.83 2.25 0
    endloop
  endfacet
  facet normal 0 0 -1
    outer loop
      vertex 138.33 -0.25 0
      vertex 130.83 -0.25 0
      vertex 133.33 2.25 0
    endloop
  endfacet
  facet normal 0 0 -1
    outer loop
      vertex 180.94 -2.5 0
      vertex 130.83 -0.25 0
      vertex 138.33 -0.25 0
    endloop
  endfacet
  facet normal 0 0 -1
    outer loop
      vertex 180.94 -2.5 0
      vertex 115.65 -0.25 0
      vertex 130.83 -0.25 0
    endloop
  endfacet
  facet normal 0 0 -1
    outer loop
      vertex 115.65 -0.25 0
      vertex 113.15 2.25 0
      vertex 115.65 2.25 0
    endloop
  endfacet
  facet normal 0 0 -1
    outer loop
      vertex 113.15 2.25 0
      vertex 110.65 2.25 0
      vertex 113.15 54 0
    endloop
  endfacet
  facet normal 0 0 -1
    outer loop
      vertex 115.65 -0.25 0
      vertex 110.65 2.25 0
      vertex 113.15 2.25 0
    endloop
  endfacet
  facet normal 0 0 -1
    outer loop
      vertex 115.65 -0.25 0
      vertex 108.15 -0.25 0
      vertex 110.65 2.25 0
    endloop
  endfacet
  facet normal 0 0 -1
    outer loop
      vertex 180.94 -2.5 0
      vertex 108.15 -0.25 0
      vertex 115.65 -0.25 0
    endloop
  endfacet
  facet normal 0 0 -1
    outer loop
      vertex 180.94 -2.5 0
      vertex 92.97 -0.25 0
      vertex 108.15 -0.25 0
    endloop
  endfacet
  facet normal 0 0 -1
    outer loop
      vertex 92.97 -0.25 0
      vertex 90.47 2.25 0
      vertex 92.97 2.25 0
    endloop
  endfacet
  facet normal 0 0 -1
    outer loop
      vertex 90.47 2.25 0
      vertex 87.97 2.25 0
      vertex 90.47 54 0
    endloop
  endfacet
  facet normal 0 0 -1
    outer loop
      vertex 92.97 -0.25 0
      vertex 87.97 2.25 0
      vertex 90.47 2.25 0
    endloop
  endfacet
  facet normal 0 0 -1
    outer loop
      vertex 92.97 -0.25 0
      vertex 85.47 -0.25 0
      vertex 87.97 2.25 0
    endloop
  endfacet
  facet normal 0 0 -1
    outer loop
      vertex 180.94 -2.5 0
      vertex 85.47 -0.25 0
      vertex 92.97 -0.25 0
    endloop
  endfacet
  facet normal 0 0 -1
    outer loop
      vertex 180.94 -2.5 0
      vertex 70.29 -0.25 0
      vertex 85.47 -0.25 0
    endloop
  endfacet
  facet normal 0 0 -1
    outer loop
      vertex 70.29 -0.25 0
      vertex 67.79 2.25 0
      vertex 70.29 2.25 0
    endloop
  endfacet
  facet normal 0 0 -1
    outer loop
      vertex 67.79 2.25 0
      vertex 65.29 2.25 0
      vertex 67.79 54 0
    endloop
  endfacet
  facet normal 0 0 -1
    outer loop
      vertex 70.29 -0.25 0
      vertex 65.29 2.25 0
      vertex 67.79 2.25 0
    endloop
  endfacet
  facet normal 0 0 -1
    outer loop
      vertex 70.29 -0.25 0
      vertex 62.79 -0.25 0
      vertex 65.29 2.25 0
    endloop
  endfacet
  facet normal 0 0 -1
    outer loop
      vertex -2.5 -2.5 0
      vertex 70.29 -0.25 0
      vertex 180.94 -2.5 0
    endloop
  endfacet
  facet normal -0 0 -1
    outer loop
      vertex 70.29 -0.25 0
      vertex -2.5 -2.5 0
      vertex 62.79 -0.25 0
    endloop
  endfacet
  facet normal 0 0 -1
    outer loop
      vertex 47.61 -0.25 0
      vertex 45.11 2.25 0
      vertex 47.61 2.25 0
    endloop
  endfacet
  facet normal 0 0 -1
    outer loop
      vertex 45.11 2.25 0
      vertex 42.61 2.25 0
      vertex 45.11 54 0
    endloop
  endfacet
  facet normal 0 0 -1
    outer loop
      vertex 47.61 -0.25 0
      vertex 42.61 2.25 0
      vertex 45.11 2.25 0
    endloop
  endfacet
  facet normal 0 0 -1
    outer loop
      vertex 47.61 -0.25 0
      vertex 40.11 -0.25 0
      vertex 42.61 2.25 0
    endloop
  endfacet
  facet normal -0 0 -1
    outer loop
      vertex 62.79 -0.25 0
      vertex -2.5 -2.5 0
      vertex 47.61 -0.25 0
    endloop
  endfacet
  facet normal -0 0 -1
    outer loop
      vertex 47.61 -0.25 0
      vertex -2.5 -2.5 0
      vertex 40.11 -0.25 0
    endloop
  endfacet
  facet normal 0 0 -1
    outer loop
      vertex 24.93 -0.25 0
      vertex 22.43 2.25 0
      vertex 24.93 2.25 0
    endloop
  endfacet
  facet normal 0 0 -1
    outer loop
      vertex 22.43 2.25 0
      vertex 19.93 2.25 0
      vertex 22.43 54 0
    endloop
  endfacet
  facet normal 0 0 -1
    outer loop
      vertex 24.93 -0.25 0
      vertex 19.93 2.25 0
      vertex 22.43 2.25 0
    endloop
  endfacet
  facet normal 0 0 -1
    outer loop
      vertex 24.93 -0.25 0
      vertex 17.43 -0.25 0
      vertex 19.93 2.25 0
    endloop
  endfacet
  facet normal -0 0 -1
    outer loop
      vertex 40.11 -0.25 0
      vertex -2.5 -2.5 0
      vertex 24.93 -0.25 0
    endloop
  endfacet
  facet normal -0 0 -1
    outer loop
      vertex 24.93 -0.25 0
      vertex -2.5 -2.5 0
      vertex 17.43 -0.25 0
    endloop
  endfacet
  facet normal 0 0 -1
    outer loop
      vertex 2.25 -0.25 0
      vertex -0.25 2.25 0
      vertex 2.25 2.25 0
    endloop
  endfacet
  facet normal -0 0 -1
    outer loop
      vertex -0.25 2.25 0
      vertex -2.5 -2.5 0
      vertex -0.25 54 0
    endloop
  endfacet
  facet normal -0 0 -1
    outer loop
      vertex 2.25 -0.25 0
      vertex -2.5 -2.5 0
      vertex -0.25 2.25 0
    endloop
  endfacet
  facet normal -0 0 -1
    outer loop
      vertex 17.43 -0.25 0
      vertex -2.5 -2.5 0
      vertex 2.25 -0.25 0
    endloop
  endfacet
  facet normal 0 0 -1
    outer loop
      vertex 180.94 -2.5 0
      vertex 178.69 54 0
      vertex 180.94 109.51 0
    endloop
  endfacet
  facet normal 0 0 -1
    outer loop
      vertex 158.51 54 0
      vertex 180.94 109.51 0
      vertex 178.69 54 0
    endloop
  endfacet
  facet normal 0 0 -1
    outer loop
      vertex 156.01 54 0
      vertex 158.51 54 0
      vertex 156.01 2.25 0
    endloop
  endfacet
  facet normal 0 0 -1
    outer loop
      vertex 156.01 54 0
      vertex 180.94 109.51 0
      vertex 158.51 54 0
    endloop
  endfacet
  facet normal 0 0 -1
    outer loop
      vertex 135.83 54 0
      vertex 180.94 109.51 0
      vertex 156.01 54 0
    endloop
  endfacet
  facet normal 0 0 -1
    outer loop
      vertex 133.33 54 0
      vertex 135.83 54 0
      vertex 133.33 2.25 0
    endloop
  endfacet
  facet normal 0 0 -1
    outer loop
      vertex 133.33 54 0
      vertex 180.94 109.51 0
      vertex 135.83 54 0
    endloop
  endfacet
  facet normal 0 0 -1
    outer loop
      vertex 113.15 54 0
      vertex 180.94 109.51 0
      vertex 133.33 54 0
    endloop
  endfacet
  facet normal 0 0 -1
    outer loop
      vertex 110.65 54 0
      vertex 113.15 54 0
      vertex 110.65 2.25 0
    endloop
  endfacet
  facet normal 0 0 -1
    outer loop
      vertex 110.65 54 0
      vertex 180.94 109.51 0
      vertex 113.15 54 0
    endloop
  endfacet
  facet normal 0 0 -1
    outer loop
      vertex 90.47 54 0
      vertex 180.94 109.51 0
      vertex 110.65 54 0
    endloop
  endfacet
  facet normal 0 0 -1
    outer loop
      vertex 87.97 54 0
      vertex 90.47 54 0
      vertex 87.97 2.25 0
    endloop
  endfacet
  facet normal 0 0 -1
    outer loop
      vertex 87.97 54 0
      vertex 180.94 109.51 0
      vertex 90.47 54 0
    endloop
  endfacet
  facet normal 0 0 -1
    outer loop
      vertex -2.5 109.51 0
      vertex 87.97 54 0
      vertex 67.79 54 0
    endloop
  endfacet
  facet normal 0 0 -1
    outer loop
      vertex 65.29 54 0
      vertex 67.79 54 0
      vertex 65.29 2.25 0
    endloop
  endfacet
  facet normal 0 0 -1
    outer loop
      vertex -2.5 109.51 0
      vertex 67.79 54 0
      vertex 65.29 54 0
    endloop
  endfacet
  facet normal 0 0 -1
    outer loop
      vertex -2.5 109.51 0
      vertex 65.29 54 0
      vertex 45.11 54 0
    endloop
  endfacet
  facet normal 0 0 -1
    outer loop
      vertex 42.61 54 0
      vertex 45.11 54 0
      vertex 42.61 2.25 0
    endloop
  endfacet
  facet normal 0 0 -1
    outer loop
      vertex -2.5 109.51 0
      vertex 45.11 54 0
      vertex 42.61 54 0
    endloop
  endfacet
  facet normal 0 0 -1
    outer loop
      vertex -2.5 109.51 0
      vertex 42.61 54 0
      vertex 22.43 54 0
    endloop
  endfacet
  facet normal 0 0 -1
    outer loop
      vertex 19.93 54 0
      vertex 22.43 54 0
      vertex 19.93 2.25 0
    endloop
  endfacet
  facet normal 0 0 -1
    outer loop
      vertex -2.5 109.51 0
      vertex 22.43 54 0
      vertex 19.93 54 0
    endloop
  endfacet
  facet normal 0 0 -1
    outer loop
      vertex -2.5 109.51 0
      vertex 19.93 54 0
      vertex -0.25 54 0
    endloop
  endfacet
  facet normal 0 0 -1
    outer loop
      vertex 87.97 54 0
      vertex -2.5 109.51 0
      vertex 180.94 109.51 0
    endloop
  endfacet
  facet normal 0 0 -1
    outer loop
      vertex -2.5 109.51 0
      vertex -0.25 54 0
      vertex -2.5 -2.5 0
    endloop
  endfacet
  facet normal -0 0 -1
    outer loop
      vertex 178.69 2.25 0
      vertex 176.19 -0.25 0
      vertex 176.19 2.25 0
    endloop
  endfacet
  facet normal -0 0 -1
    outer loop
      vertex 156.01 2.25 0
      vertex 153.51 -0.25 0
      vertex 153.51 2.25 0
    endloop
  endfacet
  facet normal -0 0 -1
    outer loop
      vertex 133.33 2.25 0
      vertex 130.83 -0.25 0
      vertex 130.83 2.25 0
    endloop
  endfacet
  facet normal -0 0 -1
    outer loop
      vertex 110.65 2.25 0
      vertex 108.15 -0.25 0
      vertex 108.15 2.25 0
    endloop
  endfacet
  facet normal -0 0 -1
    outer loop
      vertex 87.97 2.25 0
      vertex 85.47 -0.25 0
      vertex 85.47 2.25 0
    endloop
  endfacet
  facet normal -0 0 -1
    outer loop
      vertex 65.29 2.25 0
      vertex 62.79 -0.25 0
      vertex 62.79 2.25 0
    endloop
  endfacet
  facet normal -0 0 -1
    outer loop
      vertex 42.61 2.25 0
      vertex 40.11 -0.25 0
      vertex 40.11 2.25 0
    endloop
  endfacet
  facet normal -0 0 -1
    outer loop
      vertex 19.93 2.25 0
      vertex 17.43 -0.25 0
      vertex 17.43 2.25 0
    endloop
  endfacet
  facet normal 0 -1 0
    outer loop
      vertex -2.5 -2.5 0
      vertex 180.94 -2.5 3.2
      vertex -2.5 -2.5 3.2
    endloop
  endfacet
  facet normal 0 -1 -0
    outer loop
      vertex 180.94 -2.5 3.2
      vertex -2.5 -2.5 0
      vertex 180.94 -2.5 0
    endloop
  endfacet
  facet normal 0 1 -0
    outer loop
      vertex 180.94 109.51 0
      vertex -2.5 109.51 3.2
      vertex 180.94 109.51 3.2
    endloop
  endfacet
  facet normal 0 1 0
    outer loop
      vertex -2.5 109.51 3.2
      vertex 180.94 109.51 0
      vertex -2.5 109.51 0
    endloop
  endfacet
  facet normal 1 0 0
    outer loop
      vertex -0.25 107.26 3.2
      vertex -0.25 54 1.6
      vertex -0.25 107.26 1.6
    endloop
  endfacet
  facet normal 1 0 0
    outer loop
      vertex -0.25 54 1.6
      vertex -0.25 2.25 1.6
      vertex -0.25 54 0
    endloop
  endfacet
  facet normal 1 -0 0
    outer loop
      vertex -0.25 -0.25 3.2
      vertex -0.25 54 1.6
      vertex -0.25 107.26 3.2
    endloop
  endfacet
  facet normal 1 0 0
    outer loop
      vertex -0.25 54 1.6
      vertex -0.25 -0.25 3.2
      vertex -0.25 2.25 1.6
    endloop
  endfacet
  facet normal 1 0 0
    outer loop
      vertex -0.25 2.25 1.6
      vertex -0.25 -0.25 3.2
      vertex -0.25 -0.25 1.6
    endloop
  endfacet
  facet normal 1 0 0
    outer loop
      vertex -0.25 54 0
      vertex -0.25 2.25 1.6
      vertex -0.25 2.25 0
    endloop
  endfacet
  facet normal -1 0 0
    outer loop
      vertex 19.93 54 0
      vertex 19.93 2.25 0
      vertex 19.93 54 1.6
    endloop
  endfacet
  facet normal -1 0 0
    outer loop
      vertex 19.93 54 1.6
      vertex 19.93 107.26 3.2
      vertex 19.93 107.26 1.6
    endloop
  endfacet
  facet normal -1 0 0
    outer loop
      vertex 19.93 2.25 1.6
      vertex 19.93 54 1.6
      vertex 19.93 2.25 0
    endloop
  endfacet
  facet normal -1 0 0
    outer loop
      vertex 19.93 -0.25 3.2
      vertex 19.93 54 1.6
      vertex 19.93 2.25 1.6
    endloop
  endfacet
  facet normal -1 0 0
    outer loop
      vertex 19.93 -0.25 3.2
      vertex 19.93 2.25 1.6
      vertex 19.93 -0.25 1.6
    endloop
  endfacet
  facet normal -1 0 0
    outer loop
      vertex 19.93 54 1.6
      vertex 19.93 -0.25 3.2
      vertex 19.93 107.26 3.2
    endloop
  endfacet
  facet normal 0 -1 0
    outer loop
      vertex -0.25 107.26 1.6
      vertex 19.93 107.26 3.2
      vertex -0.25 107.26 3.2
    endloop
  endfacet
  facet normal 0 -1 -0
    outer loop
      vertex 19.93 107.26 3.2
      vertex -0.25 107.26 1.6
      vertex 19.93 107.26 1.6
    endloop
  endfacet
  facet normal 0 1 -0
    outer loop
      vertex 17.43 -0.25 0
      vertex 2.25 -0.25 1.6
      vertex 17.43 -0.25 1.6
    endloop
  endfacet
  facet normal 0 1 0
    outer loop
      vertex 2.25 -0.25 1.6
      vertex 17.43 -0.25 0
      vertex 2.25 -0.25 0
    endloop
  endfacet
  facet normal 0 1 0
    outer loop
      vertex 17.43 -0.25 1.6
      vertex 19.93 -0.25 3.2
      vertex 19.93 -0.25 1.6
    endloop
  endfacet
  facet normal 0 1 0
    outer loop
      vertex 19.93 -0.25 3.2
      vertex 17.43 -0.25 1.6
      vertex -0.25 -0.25 3.2
    endloop
  endfacet
  facet normal 0 1 -0
    outer loop
      vertex 2.25 -0.25 1.6
      vertex -0.25 -0.25 3.2
      vertex 17.43 -0.25 1.6
    endloop
  endfacet
  facet normal 0 1 0
    outer loop
      vertex -0.25 -0.25 3.2
      vertex 2.25 -0.25 1.6
      vertex -0.25 -0.25 1.6
    endloop
  endfacet
  facet normal -0 0 1
    outer loop
      vertex -0.25 2.25 1.6
      vertex 2.25 -0.25 1.6
      vertex 2.25 2.25 1.6
    endloop
  endfacet
  facet normal 0 0 1
    outer loop
      vertex 2.25 -0.25 1.6
      vertex -0.25 2.25 1.6
      vertex -0.25 -0.25 1.6
    endloop
  endfacet
  facet normal 1 -0 0
    outer loop
      vertex 2.25 -0.25 1.6
      vertex 2.25 2.25 0
      vertex 2.25 2.25 1.6
    endloop
  endfacet
  facet normal 1 0 0
    outer loop
      vertex 2.25 2.25 0
      vertex 2.25 -0.25 1.6
      vertex 2.25 -0.25 0
    endloop
  endfacet
  facet normal 0 1 -0
    outer loop
      vertex 2.25 2.25 0
      vertex -0.25 2.25 1.6
      vertex 2.25 2.25 1.6
    endloop
  endfacet
  facet normal 0 1 0
    outer loop
      vertex -0.25 2.25 1.6
      vertex 2.25 2.25 0
      vertex -0.25 2.25 0
    endloop
  endfacet
  facet normal -1 0 0
    outer loop
      vertex 17.43 -0.25 0
      vertex 17.43 2.25 1.6
      vertex 17.43 2.25 0
    endloop
  endfacet
  facet normal -1 -0 0
    outer loop
      vertex 17.43 2.25 1.6
      vertex 17.43 -0.25 0
      vertex 17.43 -0.25 1.6
    endloop
  endfacet
  facet normal -0 0 1
    outer loop
      vertex 17.43 2.25 1.6
      vertex 19.93 -0.25 1.6
      vertex 19.93 2.25 1.6
    endloop
  endfacet
  facet normal 0 0 1
    outer loop
      vertex 19.93 -0.25 1.6
      vertex 17.43 2.25 1.6
      vertex 17.43 -0.25 1.6
    endloop
  endfacet
  facet normal 0 1 -0
    outer loop
      vertex 19.93 2.25 0
      vertex 17.43 2.25 1.6
      vertex 19.93 2.25 1.6
    endloop
  endfacet
  facet normal 0 1 0
    outer loop
      vertex 17.43 2.25 1.6
      vertex 19.93 2.25 0
      vertex 17.43 2.25 0
    endloop
  endfacet
  facet normal -0 0 1
    outer loop
      vertex -0.25 107.26 1.6
      vertex 19.93 54 1.6
      vertex 19.93 107.26 1.6
    endloop
  endfacet
  facet normal 0 0 1
    outer loop
      vertex 19.93 54 1.6
      vertex -0.25 107.26 1.6
      vertex -0.25 54 1.6
    endloop
  endfacet
  facet normal 0 -1 0
    outer loop
      vertex -0.25 54 0
      vertex 19.93 54 1.6
      vertex -0.25 54 1.6
    endloop
  endfacet
  facet normal 0 -1 -0
    outer loop
      vertex 19.93 54 1.6
      vertex -0.25 54 0
      vertex 19.93 54 0
    endloop
  endfacet
  facet normal 1 0 0
    outer loop
      vertex 22.43 107.26 3.2
      vertex 22.43 54 1.6
      vertex 22.43 107.26 1.6
    endloop
  endfacet
  facet normal 1 0 0
    outer loop
      vertex 22.43 54 1.6
      vertex 22.43 2.25 1.6
      vertex 22.43 54 0
    endloop
  endfacet
  facet normal 1 -0 0
    outer loop
      vertex 22.43 -0.25 3.2
      vertex 22.43 54 1.6
      vertex 22.43 107.26 3.2
    endloop
  endfacet
  facet normal 1 0 0
    outer loop
      vertex 22.43 54 1.6
      vertex 22.43 -0.25 3.2
      vertex 22.43 2.25 1.6
    endloop
  endfacet
  facet normal 1 0 0
    outer loop
      vertex 22.43 2.25 1.6
      vertex 22.43 -0.25 3.2
      vertex 22.43 -0.25 1.6
    endloop
  endfacet
  facet normal 1 0 0
    outer loop
      vertex 22.43 54 0
      vertex 22.43 2.25 1.6
      vertex 22.43 2.25 0
    endloop
  endfacet
  facet normal -1 0 0
    outer loop
      vertex 42.61 54 0
      vertex 42.61 2.25 0
      vertex 42.61 54 1.6
    endloop
  endfacet
  facet normal -1 0 0
    outer loop
      vertex 42.61 54 1.6
      vertex 42.61 107.26 3.2
      vertex 42.61 107.26 1.6
    endloop
  endfacet
  facet normal -1 0 0
    outer loop
      vertex 42.61 2.25 1.6
      vertex 42.61 54 1.6
      vertex 42.61 2.25 0
    endloop
  endfacet
  facet normal -1 0 0
    outer loop
      vertex 42.61 -0.25 3.2
      vertex 42.61 54 1.6
      vertex 42.61 2.25 1.6
    endloop
  endfacet
  facet normal -1 0 0
    outer loop
      vertex 42.61 -0.25 3.2
      vertex 42.61 2.25 1.6
      vertex 42.61 -0.25 1.6
    endloop
  endfacet
  facet normal -1 0 0
    outer loop
      vertex 42.61 54 1.6
      vertex 42.61 -0.25 3.2
      vertex 42.61 107.26 3.2
    endloop
  endfacet
  facet normal 0 1 -0
    outer loop
      vertex 40.11 -0.25 0
      vertex 24.93 -0.25 1.6
      vertex 40.11 -0.25 1.6
    endloop
  endfacet
  facet normal 0 1 0
    outer loop
      vertex 24.93 -0.25 1.6
      vertex 40.11 -0.25 0
      vertex 24.93 -0.25 0
    endloop
  endfacet
  facet normal 0 1 0
    outer loop
      vertex 40.11 -0.25 1.6
      vertex 42.61 -0.25 3.2
      vertex 42.61 -0.25 1.6
    endloop
  endfacet
  facet normal 0 1 0
    outer loop
      vertex 42.61 -0.25 3.2
      vertex 40.11 -0.25 1.6
      vertex 22.43 -0.25 3.2
    endloop
  endfacet
  facet normal 0 1 -0
    outer loop
      vertex 24.93 -0.25 1.6
      vertex 22.43 -0.25 3.2
      vertex 40.11 -0.25 1.6
    endloop
  endfacet
  facet normal 0 1 0
    outer loop
      vertex 22.43 -0.25 3.2
      vertex 24.93 -0.25 1.6
      vertex 22.43 -0.25 1.6
    endloop
  endfacet
  facet normal 0 -1 0
    outer loop
      vertex 22.43 107.26 1.6
      vertex 42.61 107.26 3.2
      vertex 22.43 107.26 3.2
    endloop
  endfacet
  facet normal 0 -1 -0
    outer loop
      vertex 42.61 107.26 3.2
      vertex 22.43 107.26 1.6
      vertex 42.61 107.26 1.6
    endloop
  endfacet
  facet normal -0 0 1
    outer loop
      vertex 22.43 2.25 1.6
      vertex 24.93 -0.25 1.6
      vertex 24.93 2.25 1.6
    endloop
  endfacet
  facet normal 0 0 1
    outer loop
      vertex 24.93 -0.25 1.6
      vertex 22.43 2.25 1.6
      vertex 22.43 -0.25 1.6
    endloop
  endfacet
  facet normal 1 -0 0
    outer loop
      vertex 24.93 -0.25 1.6
      vertex 24.93 2.25 0
      vertex 24.93 2.25 1.6
    endloop
  endfacet
  facet normal 1 0 0
    outer loop
      vertex 24.93 2.25 0
      vertex 24.93 -0.25 1.6
      vertex 24.93 -0.25 0
    endloop
  endfacet
  facet normal 0 1 -0
    outer loop
      vertex 24.93 2.25 0
      vertex 22.43 2.25 1.6
      vertex 24.93 2.25 1.6
    endloop
  endfacet
  facet normal 0 1 0
    outer loop
      vertex 22.43 2.25 1.6
      vertex 24.93 2.25 0
      vertex 22.43 2.25 0
    endloop
  endfacet
  facet normal -1 0 0
    outer loop
      vertex 40.11 -0.25 0
      vertex 40.11 2.25 1.6
      vertex 40.11 2.25 0
    endloop
  endfacet
  facet normal -1 -0 0
    outer loop
      vertex 40.11 2.25 1.6
      vertex 40.11 -0.25 0
      vertex 40.11 -0.25 1.6
    endloop
  endfacet
  facet normal -0 0 1
    outer loop
      vertex 40.11 2.25 1.6
      vertex 42.61 -0.25 1.6
      vertex 42.61 2.25 1.6
    endloop
  endfacet
  facet normal 0 0 1
    outer loop
      vertex 42.61 -0.25 1.6
      vertex 40.11 2.25 1.6
      vertex 40.11 -0.25 1.6
    endloop
  endfacet
  facet normal 0 1 -0
    outer loop
      vertex 42.61 2.25 0
      vertex 40.11 2.25 1.6
      vertex 42.61 2.25 1.6
    endloop
  endfacet
  facet normal 0 1 0
    outer loop
      vertex 40.11 2.25 1.6
      vertex 42.61 2.25 0
      vertex 40.11 2.25 0
    endloop
  endfacet
  facet normal -0 0 1
    outer loop
      vertex 22.43 107.26 1.6
      vertex 42.61 54 1.6
      vertex 42.61 107.26 1.6
    endloop
  endfacet
  facet normal 0 0 1
    outer loop
      vertex 42.61 54 1.6
      vertex 22.43 107.26 1.6
      vertex 22.43 54 1.6
    endloop
  endfacet
  facet normal 0 -1 0
    outer loop
      vertex 22.43 54 0
      vertex 42.61 54 1.6
      vertex 22.43 54 1.6
    endloop
  endfacet
  facet normal 0 -1 -0
    outer loop
      vertex 42.61 54 1.6
      vertex 22.43 54 0
      vertex 42.61 54 0
    endloop
  endfacet
  facet normal 1 0 0
    outer loop
      vertex 45.11 107.26 3.2
      vertex 45.11 54 1.6
      vertex 45.11 107.26 1.6
    endloop
  endfacet
  facet normal 1 0 0
    outer loop
      vertex 45.11 54 1.6
      vertex 45.11 2.25 1.6
      vertex 45.11 54 0
    endloop
  endfacet
  facet normal 1 -0 0
    outer loop
      vertex 45.11 -0.25 3.2
      vertex 45.11 54 1.6
      vertex 45.11 107.26 3.2
    endloop
  endfacet
  facet normal 1 0 0
    outer loop
      vertex 45.11 54 1.6
      vertex 45.11 -0.25 3.2
      vertex 45.11 2.25 1.6
    endloop
  endfacet
  facet normal 1 0 0
    outer loop
      vertex 45.11 2.25 1.6
      vertex 45.11 -0.25 3.2
      vertex 45.11 -0.25 1.6
    endloop
  endfacet
  facet normal 1 0 0
    outer loop
      vertex 45.11 54 0
      vertex 45.11 2.25 1.6
      vertex 45.11 2.25 0
    endloop
  endfacet
  facet normal -1 0 0
    outer loop
      vertex 65.29 54 0
      vertex 65.29 2.25 0
      vertex 65.29 54 1.6
    endloop
  endfacet
  facet normal -1 0 0
    outer loop
      vertex 65.29 54 1.6
      vertex 65.29 107.26 3.2
      vertex 65.29 107.26 1.6
    endloop
  endfacet
  facet normal -1 0 0
    outer loop
      vertex 65.29 2.25 1.6
      vertex 65.29 54 1.6
      vertex 65.29 2.25 0
    endloop
  endfacet
  facet normal -1 0 0
    outer loop
      vertex 65.29 -0.25 3.2
      vertex 65.29 54 1.6
      vertex 65.29 2.25 1.6
    endloop
  endfacet
  facet normal -1 0 0
    outer loop
      vertex 65.29 -0.25 3.2
      vertex 65.29 2.25 1.6
      vertex 65.29 -0.25 1.6
    endloop
  endfacet
  facet normal -1 0 0
    outer loop
      vertex 65.29 54 1.6
      vertex 65.29 -0.25 3.2
      vertex 65.29 107.26 3.2
    endloop
  endfacet
  facet normal 0 1 -0
    outer loop
      vertex 62.79 -0.25 0
      vertex 47.61 -0.25 1.6
      vertex 62.79 -0.25 1.6
    endloop
  endfacet
  facet normal 0 1 0
    outer loop
      vertex 47.61 -0.25 1.6
      vertex 62.79 -0.25 0
      vertex 47.61 -0.25 0
    endloop
  endfacet
  facet normal 0 1 0
    outer loop
      vertex 62.79 -0.25 1.6
      vertex 65.29 -0.25 3.2
      vertex 65.29 -0.25 1.6
    endloop
  endfacet
  facet normal 0 1 0
    outer loop
      vertex 65.29 -0.25 3.2
      vertex 62.79 -0.25 1.6
      vertex 45.11 -0.25 3.2
    endloop
  endfacet
  facet normal 0 1 -0
    outer loop
      vertex 47.61 -0.25 1.6
      vertex 45.11 -0.25 3.2
      vertex 62.79 -0.25 1.6
    endloop
  endfacet
  facet normal 0 1 0
    outer loop
      vertex 45.11 -0.25 3.2
      vertex 47.61 -0.25 1.6
      vertex 45.11 -0.25 1.6
    endloop
  endfacet
  facet normal 0 -1 0
    outer loop
      vertex 45.11 107.26 1.6
      vertex 65.29 107.26 3.2
      vertex 45.11 107.26 3.2
    endloop
  endfacet
  facet normal 0 -1 -0
    outer loop
      vertex 65.29 107.26 3.2
      vertex 45.11 107.26 1.6
      vertex 65.29 107.26 1.6
    endloop
  endfacet
  facet normal -0 0 1
    outer loop
      vertex 45.11 2.25 1.6
      vertex 47.61 -0.25 1.6
      vertex 47.61 2.25 1.6
    endloop
  endfacet
  facet normal 0 0 1
    outer loop
      vertex 47.61 -0.25 1.6
      vertex 45.11 2.25 1.6
      vertex 45.11 -0.25 1.6
    endloop
  endfacet
  facet normal 1 -0 0
    outer loop
      vertex 47.61 -0.25 1.6
      vertex 47.61 2.25 0
      vertex 47.61 2.25 1.6
    endloop
  endfacet
  facet normal 1 0 0
    outer loop
      vertex 47.61 2.25 0
      vertex 47.61 -0.25 1.6
      vertex 47.61 -0.25 0
    endloop
  endfacet
  facet normal 0 1 -0
    outer loop
      vertex 47.61 2.25 0
      vertex 45.11 2.25 1.6
      vertex 47.61 2.25 1.6
    endloop
  endfacet
  facet normal 0 1 0
    outer loop
      vertex 45.11 2.25 1.6
      vertex 47.61 2.25 0
      vertex 45.11 2.25 0
    endloop
  endfacet
  facet normal -1 0 0
    outer loop
      vertex 62.79 -0.25 0
      vertex 62.79 2.25 1.6
      vertex 62.79 2.25 0
    endloop
  endfacet
  facet normal -1 -0 0
    outer loop
      vertex 62.79 2.25 1.6
      vertex 62.79 -0.25 0
      vertex 62.79 -0.25 1.6
    endloop
  endfacet
  facet normal -0 0 1
    outer loop
      vertex 62.79 2.25 1.6
      vertex 65.29 -0.25 1.6
      vertex 65.29 2.25 1.6
    endloop
  endfacet
  facet normal 0 0 1
    outer loop
      vertex 65.29 -0.25 1.6
      vertex 62.79 2.25 1.6
      vertex 62.79 -0.25 1.6
    endloop
  endfacet
  facet normal 0 1 -0
    outer loop
      vertex 65.29 2.25 0
      vertex 62.79 2.25 1.6
      vertex 65.29 2.25 1.6
    endloop
  endfacet
  facet normal 0 1 0
    outer loop
      vertex 62.79 2.25 1.6
      vertex 65.29 2.25 0
      vertex 62.79 2.25 0
    endloop
  endfacet
  facet normal -0 0 1
    outer loop
      vertex 45.11 107.26 1.6
      vertex 65.29 54 1.6
      vertex 65.29 107.26 1.6
    endloop
  endfacet
  facet normal 0 0 1
    outer loop
      vertex 65.29 54 1.6
      vertex 45.11 107.26 1.6
      vertex 45.11 54 1.6
    endloop
  endfacet
  facet normal 0 -1 0
    outer loop
      vertex 45.11 54 0
      vertex 65.29 54 1.6
      vertex 45.11 54 1.6
    endloop
  endfacet
  facet normal 0 -1 -0
    outer loop
      vertex 65.29 54 1.6
      vertex 45.11 54 0
      vertex 65.29 54 0
    endloop
  endfacet
  facet normal 1 0 0
    outer loop
      vertex 67.79 107.26 3.2
      vertex 67.79 54 1.6
      vertex 67.79 107.26 1.6
    endloop
  endfacet
  facet normal 1 0 0
    outer loop
      vertex 67.79 54 1.6
      vertex 67.79 2.25 1.6
      vertex 67.79 54 0
    endloop
  endfacet
  facet normal 1 -0 0
    outer loop
      vertex 67.79 -0.25 3.2
      vertex 67.79 54 1.6
      vertex 67.79 107.26 3.2
    endloop
  endfacet
  facet normal 1 0 0
    outer loop
      vertex 67.79 54 1.6
      vertex 67.79 -0.25 3.2
      vertex 67.79 2.25 1.6
    endloop
  endfacet
  facet normal 1 0 0
    outer loop
      vertex 67.79 2.25 1.6
      vertex 67.79 -0.25 3.2
      vertex 67.79 -0.25 1.6
    endloop
  endfacet
  facet normal 1 0 0
    outer loop
      vertex 67.79 54 0
      vertex 67.79 2.25 1.6
      vertex 67.79 2.25 0
    endloop
  endfacet
  facet normal -1 0 0
    outer loop
      vertex 87.97 54 0
      vertex 87.97 2.25 0
      vertex 87.97 54 1.6
    endloop
  endfacet
  facet normal -1 0 0
    outer loop
      vertex 87.97 54 1.6
      vertex 87.97 107.26 3.2
      vertex 87.97 107.26 1.6
    endloop
  endfacet
  facet normal -1 0 0
    outer loop
      vertex 87.97 2.25 1.6
      vertex 87.97 54 1.6
      vertex 87.97 2.25 0
    endloop
  endfacet
  facet normal -1 0 0
    outer loop
      vertex 87.97 -0.25 3.2
      vertex 87.97 54 1.6
      vertex 87.97 2.25 1.6
    endloop
  endfacet
  facet normal -1 0 0
    outer loop
      vertex 87.97 -0.25 3.2
      vertex 87.97 2.25 1.6
      vertex 87.97 -0.25 1.6
    endloop
  endfacet
  facet normal -1 0 0
    outer loop
      vertex 87.97 54 1.6
      vertex 87.97 -0.25 3.2
      vertex 87.97 107.26 3.2
    endloop
  endfacet
  facet normal 0 -1 0
    outer loop
      vertex 67.79 107.26 1.6
      vertex 87.97 107.26 3.2
      vertex 67.79 107.26 3.2
    endloop
  endfacet
  facet normal 0 -1 -0
    outer loop
      vertex 87.97 107.26 3.2
      vertex 67.79 107.26 1.6
      vertex 87.97 107.26 1.6
    endloop
  endfacet
  facet normal 0 1 -0
    outer loop
      vertex 85.47 -0.25 0
      vertex 70.29 -0.25 1.6
      vertex 85.47 -0.25 1.6
    endloop
  endfacet
  facet normal 0 1 0
    outer loop
      vertex 70.29 -0.25 1.6
      vertex 85.47 -0.25 0
      vertex 70.29 -0.25 0
    endloop
  endfacet
  facet normal 0 1 0
    outer loop
      vertex 85.47 -0.25 1.6
      vertex 87.97 -0.25 3.2
      vertex 87.97 -0.25 1.6
    endloop
  endfacet
  facet normal 0 1 0
    outer loop
      vertex 87.97 -0.25 3.2
      vertex 85.47 -0.25 1.6
      vertex 67.79 -0.25 3.2
    endloop
  endfacet
  facet normal 0 1 -0
    outer loop
      vertex 70.29 -0.25 1.6
      vertex 67.79 -0.25 3.2
      vertex 85.47 -0.25 1.6
    endloop
  endfacet
  facet normal 0 1 0
    outer loop
      vertex 67.79 -0.25 3.2
      vertex 70.29 -0.25 1.6
      vertex 67.79 -0.25 1.6
    endloop
  endfacet
  facet normal -0 0 1
    outer loop
      vertex 67.79 2.25 1.6
      vertex 70.29 -0.25 1.6
      vertex 70.29 2.25 1.6
    endloop
  endfacet
  facet normal 0 0 1
    outer loop
      vertex 70.29 -0.25 1.6
      vertex 67.79 2.25 1.6
      vertex 67.79 -0.25 1.6
    endloop
  endfacet
  facet normal 1 -0 0
    outer loop
      vertex 70.29 -0.25 1.6
      vertex 70.29 2.25 0
      vertex 70.29 2.25 1.6
    endloop
  endfacet
  facet normal 1 0 0
    outer loop
      vertex 70.29 2.25 0
      vertex 70.29 -0.25 1.6
      vertex 70.29 -0.25 0
    endloop
  endfacet
  facet normal 0 1 -0
    outer loop
      vertex 70.29 2.25 0
      vertex 67.79 2.25 1.6
      vertex 70.29 2.25 1.6
    endloop
  endfacet
  facet normal 0 1 0
    outer loop
      vertex 67.79 2.25 1.6
      vertex 70.29 2.25 0
      vertex 67.79 2.25 0
    endloop
  endfacet
  facet normal -1 0 0
    outer loop
      vertex 85.47 -0.25 0
      vertex 85.47 2.25 1.6
      vertex 85.47 2.25 0
    endloop
  endfacet
  facet normal -1 -0 0
    outer loop
      vertex 85.47 2.25 1.6
      vertex 85.47 -0.25 0
      vertex 85.47 -0.25 1.6
    endloop
  endfacet
  facet normal -0 0 1
    outer loop
      vertex 85.47 2.25 1.6
      vertex 87.97 -0.25 1.6
      vertex 87.97 2.25 1.6
    endloop
  endfacet
  facet normal 0 0 1
    outer loop
      vertex 87.97 -0.25 1.6
      vertex 85.47 2.25 1.6
      vertex 85.47 -0.25 1.6
    endloop
  endfacet
  facet normal 0 1 -0
    outer loop
      vertex 87.97 2.25 0
      vertex 85.47 2.25 1.6
      vertex 87.97 2.25 1.6
    endloop
  endfacet
  facet normal 0 1 0
    outer loop
      vertex 85.47 2.25 1.6
      vertex 87.97 2.25 0
      vertex 85.47 2.25 0
    endloop
  endfacet
  facet normal -0 0 1
    outer loop
      vertex 67.79 107.26 1.6
      vertex 87.97 54 1.6
      vertex 87.97 107.26 1.6
    endloop
  endfacet
  facet normal 0 0 1
    outer loop
      vertex 87.97 54 1.6
      vertex 67.79 107.26 1.6
      vertex 67.79 54 1.6
    endloop
  endfacet
  facet normal 0 -1 0
    outer loop
      vertex 67.79 54 0
      vertex 87.97 54 1.6
      vertex 67.79 54 1.6
    endloop
  endfacet
  facet normal 0 -1 -0
    outer loop
      vertex 87.97 54 1.6
      vertex 67.79 54 0
      vertex 87.97 54 0
    endloop
  endfacet
  facet normal 1 0 0
    outer loop
      vertex 90.47 107.26 3.2
      vertex 90.47 54 1.6
      vertex 90.47 107.26 1.6
    endloop
  endfacet
  facet normal 1 0 0
    outer loop
      vertex 90.47 54 1.6
      vertex 90.47 2.25 1.6
      vertex 90.47 54 0
    endloop
  endfacet
  facet normal 1 -0 0
    outer loop
      vertex 90.47 -0.25 3.2
      vertex 90.47 54 1.6
      vertex 90.47 107.26 3.2
    endloop
  endfacet
  facet normal 1 0 0
    outer loop
      vertex 90.47 54 1.6
      vertex 90.47 -0.25 3.2
      vertex 90.47 2.25 1.6
    endloop
  endfacet
  facet normal 1 0 0
    outer loop
      vertex 90.47 2.25 1.6
      vertex 90.47 -0.25 3.2
      vertex 90.47 -0.25 1.6
    endloop
  endfacet
  facet normal 1 0 0
    outer loop
      vertex 90.47 54 0
      vertex 90.47 2.25 1.6
      vertex 90.47 2.25 0
    endloop
  endfacet
  facet normal -1 0 0
    outer loop
      vertex 110.65 54 0
      vertex 110.65 2.25 0
      vertex 110.65 54 1.6
    endloop
  endfacet
  facet normal -1 0 0
    outer loop
      vertex 110.65 54 1.6
      vertex 110.65 107.26 3.2
      vertex 110.65 107.26 1.6
    endloop
  endfacet
  facet normal -1 0 0
    outer loop
      vertex 110.65 2.25 1.6
      vertex 110.65 54 1.6
      vertex 110.65 2.25 0
    endloop
  endfacet
  facet normal -1 0 0
    outer loop
      vertex 110.65 -0.25 3.2
      vertex 110.65 54 1.6
      vertex 110.65 2.25 1.6
    endloop
  endfacet
  facet normal -1 0 0
    outer loop
      vertex 110.65 -0.25 3.2
      vertex 110.65 2.25 1.6
      vertex 110.65 -0.25 1.6
    endloop
  endfacet
  facet normal -1 0 0
    outer loop
      vertex 110.65 54 1.6
      vertex 110.65 -0.25 3.2
      vertex 110.65 107.26 3.2
    endloop
  endfacet
  facet normal 0 1 -0
    outer loop
      vertex 108.15 -0.25 0
      vertex 92.97 -0.25 1.6
      vertex 108.15 -0.25 1.6
    endloop
  endfacet
  facet normal 0 1 0
    outer loop
      vertex 92.97 -0.25 1.6
      vertex 108.15 -0.25 0
      vertex 92.97 -0.25 0
    endloop
  endfacet
  facet normal 0 1 0
    outer loop
      vertex 108.15 -0.25 1.6
      vertex 110.65 -0.25 3.2
      vertex 110.65 -0.25 1.6
    endloop
  endfacet
  facet normal 0 1 0
    outer loop
      vertex 110.65 -0.25 3.2
      vertex 108.15 -0.25 1.6
      vertex 90.47 -0.25 3.2
    endloop
  endfacet
  facet normal 0 1 -0
    outer loop
      vertex 92.97 -0.25 1.6
      vertex 90.47 -0.25 3.2
      vertex 108.15 -0.25 1.6
    endloop
  endfacet
  facet normal 0 1 0
    outer loop
      vertex 90.47 -0.25 3.2
      vertex 92.97 -0.25 1.6
      vertex 90.47 -0.25 1.6
    endloop
  endfacet
  facet normal 0 -1 0
    outer loop
      vertex 90.47 107.26 1.6
      vertex 110.65 107.26 3.2
      vertex 90.47 107.26 3.2
    endloop
  endfacet
  facet normal 0 -1 -0
    outer loop
      vertex 110.65 107.26 3.2
      vertex 90.47 107.26 1.6
      vertex 110.65 107.26 1.6
    endloop
  endfacet
  facet normal -0 0 1
    outer loop
      vertex 90.47 2.25 1.6
      vertex 92.97 -0.25 1.6
      vertex 92.97 2.25 1.6
    endloop
  endfacet
  facet normal 0 0 1
    outer loop
      vertex 92.97 -0.25 1.6
      vertex 90.47 2.25 1.6
      vertex 90.47 -0.25 1.6
    endloop
  endfacet
  facet normal 1 -0 0
    outer loop
      vertex 92.97 -0.25 1.6
      vertex 92.97 2.25 0
      vertex 92.97 2.25 1.6
    endloop
  endfacet
  facet normal 1 0 0
    outer loop
      vertex 92.97 2.25 0
      vertex 92.97 -0.25 1.6
      vertex 92.97 -0.25 0
    endloop
  endfacet
  facet normal 0 1 -0
    outer loop
      vertex 92.97 2.25 0
      vertex 90.47 2.25 1.6
      vertex 92.97 2.25 1.6
    endloop
  endfacet
  facet normal 0 1 0
    outer loop
      vertex 90.47 2.25 1.6
      vertex 92.97 2.25 0
      vertex 90.47 2.25 0
    endloop
  endfacet
  facet normal -1 0 0
    outer loop
      vertex 108.15 -0.25 0
      vertex 108.15 2.25 1.6
      vertex 108.15 2.25 0
    endloop
  endfacet
  facet normal -1 -0 0
    outer loop
      vertex 108.15 2.25 1.6
      vertex 108.15 -0.25 0
      vertex 108.15 -0.25 1.6
    endloop
  endfacet
  facet normal -0 0 1
    outer loop
      vertex 108.15 2.25 1.6
      vertex 110.65 -0.25 1.6
      vertex 110.65 2.25 1.6
    endloop
  endfacet
  facet normal 0 0 1
    outer loop
      vertex 110.65 -0.25 1.6
      vertex 108.15 2.25 1.6
      vertex 108.15 -0.25 1.6
    endloop
  endfacet
  facet normal 0 1 -0
    outer loop
      vertex 110.65 2.25 0
      vertex 108.15 2.25 1.6
      vertex 110.65 2.25 1.6
    endloop
  endfacet
  facet normal 0 1 0
    outer loop
      vertex 108.15 2.25 1.6
      vertex 110.65 2.25 0
      vertex 108.15 2.25 0
    endloop
  endfacet
  facet normal -0 0 1
    outer loop
      vertex 90.47 107.26 1.6
      vertex 110.65 54 1.6
      vertex 110.65 107.26 1.6
    endloop
  endfacet
  facet normal 0 0 1
    outer loop
      vertex 110.65 54 1.6
      vertex 90.47 107.26 1.6
      vertex 90.47 54 1.6
    endloop
  endfacet
  facet normal 0 -1 0
    outer loop
      vertex 90.47 54 0
      vertex 110.65 54 1.6
      vertex 90.47 54 1.6
    endloop
  endfacet
  facet normal 0 -1 -0
    outer loop
      vertex 110.65 54 1.6
      vertex 90.47 54 0
      vertex 110.65 54 0
    endloop
  endfacet
  facet normal 1 0 0
    outer loop
      vertex 113.15 107.26 3.2
      vertex 113.15 54 1.6
      vertex 113.15 107.26 1.6
    endloop
  endfacet
  facet normal 1 0 0
    outer loop
      vertex 113.15 54 1.6
      vertex 113.15 2.25 1.6
      vertex 113.15 54 0
    endloop
  endfacet
  facet normal 1 -0 0
    outer loop
      vertex 113.15 -0.25 3.2
      vertex 113.15 54 1.6
      vertex 113.15 107.26 3.2
    endloop
  endfacet
  facet normal 1 0 0
    outer loop
      vertex 113.15 54 1.6
      vertex 113.15 -0.25 3.2
      vertex 113.15 2.25 1.6
    endloop
  endfacet
  facet normal 1 0 0
    outer loop
      vertex 113.15 2.25 1.6
      vertex 113.15 -0.25 3.2
      vertex 113.15 -0.25 1.6
    endloop
  endfacet
  facet normal 1 0 0
    outer loop
      vertex 113.15 54 0
      vertex 113.15 2.25 1.6
      vertex 113.15 2.25 0
    endloop
  endfacet
  facet normal -1 0 0
    outer loop
      vertex 133.33 54 0
      vertex 133.33 2.25 0
      vertex 133.33 54 1.6
    endloop
  endfacet
  facet normal -1 0 0
    outer loop
      vertex 133.33 54 1.6
      vertex 133.33 107.26 3.2
      vertex 133.33 107.26 1.6
    endloop
  endfacet
  facet normal -1 0 0
    outer loop
      vertex 133.33 2.25 1.6
      vertex 133.33 54 1.6
      vertex 133.33 2.25 0
    endloop
  endfacet
  facet normal -1 0 0
    outer loop
      vertex 133.33 -0.25 3.2
      vertex 133.33 54 1.6
      vertex 133.33 2.25 1.6
    endloop
  endfacet
  facet normal -1 0 0
    outer loop
      vertex 133.33 -0.25 3.2
      vertex 133.33 2.25 1.6
      vertex 133.33 -0.25 1.6
    endloop
  endfacet
  facet normal -1 0 0
    outer loop
      vertex 133.33 54 1.6
      vertex 133.33 -0.25 3.2
      vertex 133.33 107.26 3.2
    endloop
  endfacet
  facet normal 0 1 -0
    outer loop
      vertex 130.83 -0.25 0
      vertex 115.65 -0.25 1.6
      vertex 130.83 -0.25 1.6
    endloop
  endfacet
  facet normal 0 1 0
    outer loop
      vertex 115.65 -0.25 1.6
      vertex 130.83 -0.25 0
      vertex 115.65 -0.25 0
    endloop
  endfacet
  facet normal 0 1 0
    outer loop
      vertex 130.83 -0.25 1.6
      vertex 133.33 -0.25 3.2
      vertex 133.33 -0.25 1.6
    endloop
  endfacet
  facet normal 0 1 0
    outer loop
      vertex 133.33 -0.25 3.2
      vertex 130.83 -0.25 1.6
      vertex 113.15 -0.25 3.2
    endloop
  endfacet
  facet normal 0 1 -0
    outer loop
      vertex 115.65 -0.25 1.6
      vertex 113.15 -0.25 3.2
      vertex 130.83 -0.25 1.6
    endloop
  endfacet
  facet normal 0 1 0
    outer loop
      vertex 113.15 -0.25 3.2
      vertex 115.65 -0.25 1.6
      vertex 113.15 -0.25 1.6
    endloop
  endfacet
  facet normal 0 -1 0
    outer loop
      vertex 113.15 107.26 1.6
      vertex 133.33 107.26 3.2
      vertex 113.15 107.26 3.2
    endloop
  endfacet
  facet normal 0 -1 -0
    outer loop
      vertex 133.33 107.26 3.2
      vertex 113.15 107.26 1.6
      vertex 133.33 107.26 1.6
    endloop
  endfacet
  facet normal -0 0 1
    outer loop
      vertex 113.15 2.25 1.6
      vertex 115.65 -0.25 1.6
      vertex 115.65 2.25 1.6
    endloop
  endfacet
  facet normal 0 0 1
    outer loop
      vertex 115.65 -0.25 1.6
      vertex 113.15 2.25 1.6
      vertex 113.15 -0.25 1.6
    endloop
  endfacet
  facet normal 1 -0 0
    outer loop
      vertex 115.65 -0.25 1.6
      vertex 115.65 2.25 0
      vertex 115.65 2.25 1.6
    endloop
  endfacet
  facet normal 1 0 0
    outer loop
      vertex 115.65 2.25 0
      vertex 115.65 -0.25 1.6
      vertex 115.65 -0.25 0
    endloop
  endfacet
  facet normal 0 1 -0
    outer loop
      vertex 115.65 2.25 0
      vertex 113.15 2.25 1.6
      vertex 115.65 2.25 1.6
    endloop
  endfacet
  facet normal 0 1 0
    outer loop
      vertex 113.15 2.25 1.6
      vertex 115.65 2.25 0
      vertex 113.15 2.25 0
    endloop
  endfacet
  facet normal -1 0 0
    outer loop
      vertex 130.83 -0.25 0
      vertex 130.83 2.25 1.6
      vertex 130.83 2.25 0
    endloop
  endfacet
  facet normal -1 -0 0
    outer loop
      vertex 130.83 2.25 1.6
      vertex 130.83 -0.25 0
      vertex 130.83 -0.25 1.6
    endloop
  endfacet
  facet normal -0 0 1
    outer loop
      vertex 130.83 2.25 1.6
      vertex 133.33 -0.25 1.6
      vertex 133.33 2.25 1.6
    endloop
  endfacet
  facet normal 0 0 1
    outer loop
      vertex 133.33 -0.25 1.6
      vertex 130.83 2.25 1.6
      vertex 130.83 -0.25 1.6
    endloop
  endfacet
  facet normal 0 1 -0
    outer loop
      vertex 133.33 2.25 0
      vertex 130.83 2.25 1.6
      vertex 133.33 2.25 1.6
    endloop
  endfacet
  facet normal 0 1 0
    outer loop
      vertex 130.83 2.25 1.6
      vertex 133.33 2.25 0
      vertex 130.83 2.25 0
    endloop
  endfacet
  facet normal -0 0 1
    outer loop
      vertex 113.15 107.26 1.6
      vertex 133.33 54 1.6
      vertex 133.33 107.26 1.6
    endloop
  endfacet
  facet normal 0 0 1
    outer loop
      vertex 133.33 54 1.6
      vertex 113.15 107.26 1.6
      vertex 113.15 54 1.6
    endloop
  endfacet
  facet normal 0 -1 0
    outer loop
      vertex 113.15 54 0
      vertex 133.33 54 1.6
      vertex 113.15 54 1.6
    endloop
  endfacet
  facet normal 0 -1 -0
    outer loop
      vertex 133.33 54 1.6
      vertex 113.15 54 0
      vertex 133.33 54 0
    endloop
  endfacet
  facet normal 1 0 0
    outer loop
      vertex 135.83 107.26 3.2
      vertex 135.83 54 1.6
      vertex 135.83 107.26 1.6
    endloop
  endfacet
  facet normal 1 0 0
    outer loop
      vertex 135.83 54 1.6
      vertex 135.83 2.25 1.6
      vertex 135.83 54 0
    endloop
  endfacet
  facet normal 1 -0 0
    outer loop
      vertex 135.83 -0.25 3.2
      vertex 135.83 54 1.6
      vertex 135.83 107.26 3.2
    endloop
  endfacet
  facet normal 1 0 0
    outer loop
      vertex 135.83 54 1.6
      vertex 135.83 -0.25 3.2
      vertex 135.83 2.25 1.6
    endloop
  endfacet
  facet normal 1 0 0
    outer loop
      vertex 135.83 2.25 1.6
      vertex 135.83 -0.25 3.2
      vertex 135.83 -0.25 1.6
    endloop
  endfacet
  facet normal 1 0 0
    outer loop
      vertex 135.83 54 0
      vertex 135.83 2.25 1.6
      vertex 135.83 2.25 0
    endloop
  endfacet
  facet normal -1 0 0
    outer loop
      vertex 156.01 54 0
      vertex 156.01 2.25 0
      vertex 156.01 54 1.6
    endloop
  endfacet
  facet normal -1 0 0
    outer loop
      vertex 156.01 54 1.6
      vertex 156.01 107.26 3.2
      vertex 156.01 107.26 1.6
    endloop
  endfacet
  facet normal -1 0 0
    outer loop
      vertex 156.01 2.25 1.6
      vertex 156.01 54 1.6
      vertex 156.01 2.25 0
    endloop
  endfacet
  facet normal -1 0 0
    outer loop
      vertex 156.01 -0.25 3.2
      vertex 156.01 54 1.6
      vertex 156.01 2.25 1.6
    endloop
  endfacet
  facet normal -1 0 0
    outer loop
      vertex 156.01 -0.25 3.2
      vertex 156.01 2.25 1.6
      vertex 156.01 -0.25 1.6
    endloop
  endfacet
  facet normal -1 0 0
    outer loop
      vertex 156.01 54 1.6
      vertex 156.01 -0.25 3.2
      vertex 156.01 107.26 3.2
    endloop
  endfacet
  facet normal 0 -1 0
    outer loop
      vertex 135.83 107.26 1.6
      vertex 156.01 107.26 3.2
      vertex 135.83 107.26 3.2
    endloop
  endfacet
  facet normal 0 -1 -0
    outer loop
      vertex 156.01 107.26 3.2
      vertex 135.83 107.26 1.6
      vertex 156.01 107.26 1.6
    endloop
  endfacet
  facet normal 0 1 -0
    outer loop
      vertex 153.51 -0.25 0
      vertex 138.33 -0.25 1.6
      vertex 153.51 -0.25 1.6
    endloop
  endfacet
  facet normal 0 1 0
    outer loop
      vertex 138.33 -0.25 1.6
      vertex 153.51 -0.25 0
      vertex 138.33 -0.25 0
    endloop
  endfacet
  facet normal 0 1 0
    outer loop
      vertex 153.51 -0.25 1.6
      vertex 156.01 -0.25 3.2
      vertex 156.01 -0.25 1.6
    endloop
  endfacet
  facet normal 0 1 0
    outer loop
      vertex 156.01 -0.25 3.2
      vertex 153.51 -0.25 1.6
      vertex 135.83 -0.25 3.2
    endloop
  endfacet
  facet normal 0 1 -0
    outer loop
      vertex 138.33 -0.25 1.6
      vertex 135.83 -0.25 3.2
      vertex 153.51 -0.25 1.6
    endloop
  endfacet
  facet normal 0 1 0
    outer loop
      vertex 135.83 -0.25 3.2
      vertex 138.33 -0.25 1.6
      vertex 135.83 -0.25 1.6
    endloop
  endfacet
  facet normal -0 0 1
    outer loop
      vertex 135.83 2.25 1.6
      vertex 138.33 -0.25 1.6
      vertex 138.33 2.25 1.6
    endloop
  endfacet
  facet normal 0 0 1
    outer loop
      vertex 138.33 -0.25 1.6
      vertex 135.83 2.25 1.6
      vertex 135.83 -0.25 1.6
    endloop
  endfacet
  facet normal 1 -0 0
    outer loop
      vertex 138.33 -0.25 1.6
      vertex 138.33 2.25 0
      vertex 138.33 2.25 1.6
    endloop
  endfacet
  facet normal 1 0 0
    outer loop
      vertex 138.33 2.25 0
      vertex 138.33 -0.25 1.6
      vertex 138.33 -0.25 0
    endloop
  endfacet
  facet normal 0 1 -0
    outer loop
      vertex 138.33 2.25 0
      vertex 135.83 2.25 1.6
      vertex 138.33 2.25 1.6
    endloop
  endfacet
  facet normal 0 1 0
    outer loop
      vertex 135.83 2.25 1.6
      vertex 138.33 2.25 0
      vertex 135.83 2.25 0
    endloop
  endfacet
  facet normal -1 0 0
    outer loop
      vertex 153.51 -0.25 0
      vertex 153.51 2.25 1.6
      vertex 153.51 2.25 0
    endloop
  endfacet
  facet normal -1 -0 0
    outer loop
      vertex 153.51 2.25 1.6
      vertex 153.51 -0.25 0
      vertex 153.51 -0.25 1.6
    endloop
  endfacet
  facet normal -0 0 1
    outer loop
      vertex 153.51 2.25 1.6
      vertex 156.01 -0.25 1.6
      vertex 156.01 2.25 1.6
    endloop
  endfacet
  facet normal 0 0 1
    outer loop
      vertex 156.01 -0.25 1.6
      vertex 153.51 2.25 1.6
      vertex 153.51 -0.25 1.6
    endloop
  endfacet
  facet normal 0 1 -0
    outer loop
      vertex 156.01 2.25 0
      vertex 153.51 2.25 1.6
      vertex 156.01 2.25 1.6
    endloop
  endfacet
  facet normal 0 1 0
    outer loop
      vertex 153.51 2.25 1.6
      vertex 156.01 2.25 0
      vertex 153.51 2.25 0
    endloop
  endfacet
  facet normal -0 0 1
    outer loop
      vertex 135.83 107.26 1.6
      vertex 156.01 54 1.6
      vertex 156.01 107.26 1.6
    endloop
  endfacet
  facet normal 0 0 1
    outer loop
      vertex 156.01 54 1.6
      vertex 135.83 107.26 1.6
      vertex 135.83 54 1.6
    endloop
  endfacet
  facet normal 0 -1 0
    outer loop
      vertex 135.83 54 0
      vertex 156.01 54 1.6
      vertex 135.83 54 1.6
    endloop
  endfacet
  facet normal 0 -1 -0
    outer loop
      vertex 156.01 54 1.6
      vertex 135.83 54 0
      vertex 156.01 54 0
    endloop
  endfacet
  facet normal 1 -0 0
    outer loop
      vertex 180.94 -2.5 3.2
      vertex 180.94 109.51 0
      vertex 180.94 109.51 3.2
    endloop
  endfacet
  facet normal 1 0 0
    outer loop
      vertex 180.94 109.51 0
      vertex 180.94 -2.5 3.2
      vertex 180.94 -2.5 0
    endloop
  endfacet
  facet normal 1 0 0
    outer loop
      vertex 158.51 107.26 3.2
      vertex 158.51 54 1.6
      vertex 158.51 107.26 1.6
    endloop
  endfacet
  facet normal 1 0 0
    outer loop
      vertex 158.51 54 1.6
      vertex 158.51 2.25 1.6
      vertex 158.51 54 0
    endloop
  endfacet
  facet normal 1 -0 0
    outer loop
      vertex 158.51 -0.25 3.2
      vertex 158.51 54 1.6
      vertex 158.51 107.26 3.2
    endloop
  endfacet
  facet normal 1 0 0
    outer loop
      vertex 158.51 54 1.6
      vertex 158.51 -0.25 3.2
      vertex 158.51 2.25 1.6
    endloop
  endfacet
  facet normal 1 0 0
    outer loop
      vertex 158.51 2.25 1.6
      vertex 158.51 -0.25 3.2
      vertex 158.51 -0.25 1.6
    endloop
  endfacet
  facet normal 1 0 0
    outer loop
      vertex 158.51 54 0
      vertex 158.51 2.25 1.6
      vertex 158.51 2.25 0
    endloop
  endfacet
  facet normal -1 0 0
    outer loop
      vertex 178.69 54 0
      vertex 178.69 2.25 0
      vertex 178.69 54 1.6
    endloop
  endfacet
  facet normal -1 0 0
    outer loop
      vertex 178.69 54 1.6
      vertex 178.69 107.26 3.2
      vertex 178.69 107.26 1.6
    endloop
  endfacet
  facet normal -1 0 0
    outer loop
      vertex 178.69 2.25 1.6
      vertex 178.69 54 1.6
      vertex 178.69 2.25 0
    endloop
  endfacet
  facet normal -1 0 0
    outer loop
      vertex 178.69 -0.25 3.2
      vertex 178.69 54 1.6
      vertex 178.69 2.25 1.6
    endloop
  endfacet
  facet normal -1 0 0
    outer loop
      vertex 178.69 -0.25 3.2
      vertex 178.69 2.25 1.6
      vertex 178.69 -0.25 1.6
    endloop
  endfacet
  facet normal -1 0 0
    outer loop
      vertex 178.69 54 1.6
      vertex 178.69 -0.25 3.2
      vertex 178.69 107.26 3.2
    endloop
  endfacet
  facet normal 0 -1 0
    outer loop
      vertex 158.51 107.26 1.6
      vertex 178.69 107.26 3.2
      vertex 158.51 107.26 3.2
    endloop
  endfacet
  facet normal 0 -1 -0
    outer loop
      vertex 178.69 107.26 3.2
      vertex 158.51 107.26 1.6
      vertex 178.69 107.26 1.6
    endloop
  endfacet
  facet normal 0 1 -0
    outer loop
      vertex 176.19 -0.25 0
      vertex 161.01 -0.25 1.6
      vertex 176.19 -0.25 1.6
    endloop
  endfacet
  facet normal 0 1 0
    outer loop
      vertex 161.01 -0.25 1.6
      vertex 176.19 -0.25 0
      vertex 161.01 -0.25 0
    endloop
  endfacet
  facet normal 0 1 0
    outer loop
      vertex 176.19 -0.25 1.6
      vertex 178.69 -0.25 3.2
      vertex 178.69 -0.25 1.6
    endloop
  endfacet
  facet normal 0 1 0
    outer loop
      vertex 178.69 -0.25 3.2
      vertex 176.19 -0.25 1.6
      vertex 158.51 -0.25 3.2
    endloop
  endfacet
  facet normal 0 1 -0
    outer loop
      vertex 161.01 -0.25 1.6
      vertex 158.51 -0.25 3.2
      vertex 176.19 -0.25 1.6
    endloop
  endfacet
  facet normal 0 1 0
    outer loop
      vertex 158.51 -0.25 3.2
      vertex 161.01 -0.25 1.6
      vertex 158.51 -0.25 1.6
    endloop
  endfacet
  facet normal -0 0 1
    outer loop
      vertex 158.51 2.25 1.6
      vertex 161.01 -0.25 1.6
      vertex 161.01 2.25 1.6
    endloop
  endfacet
  facet normal 0 0 1
    outer loop
      vertex 161.01 -0.25 1.6
      vertex 158.51 2.25 1.6
      vertex 158.51 -0.25 1.6
    endloop
  endfacet
  facet normal 1 -0 0
    outer loop
      vertex 161.01 -0.25 1.6
      vertex 161.01 2.25 0
      vertex 161.01 2.25 1.6
    endloop
  endfacet
  facet normal 1 0 0
    outer loop
      vertex 161.01 2.25 0
      vertex 161.01 -0.25 1.6
      vertex 161.01 -0.25 0
    endloop
  endfacet
  facet normal 0 1 -0
    outer loop
      vertex 161.01 2.25 0
      vertex 158.51 2.25 1.6
      vertex 161.01 2.25 1.6
    endloop
  endfacet
  facet normal 0 1 0
    outer loop
      vertex 158.51 2.25 1.6
      vertex 161.01 2.25 0
      vertex 158.51 2.25 0
    endloop
  endfacet
  facet normal -1 0 0
    outer loop
      vertex 176.19 -0.25 0
      vertex 176.19 2.25 1.6
      vertex 176.19 2.25 0
    endloop
  endfacet
  facet normal -1 -0 0
    outer loop
      vertex 176.19 2.25 1.6
      vertex 176.19 -0.25 0
      vertex 176.19 -0.25 1.6
    endloop
  endfacet
  facet normal -0 0 1
    outer loop
      vertex 176.19 2.25 1.6
      vertex 178.69 -0.25 1.6
      vertex 178.69 2.25 1.6
    endloop
  endfacet
  facet normal 0 0 1
    outer loop
      vertex 178.69 -0.25 1.6
      vertex 176.19 2.25 1.6
      vertex 176.19 -0.25 1.6
    endloop
  endfacet
  facet normal 0 1 -0
    outer loop
      vertex 178.69 2.25 0
      vertex 176.19 2.25 1.6
      vertex 178.69 2.25 1.6
    endloop
  endfacet
  facet normal 0 1 0
    outer loop
      vertex 176.19 2.25 1.6
      vertex 178.69 2.25 0
      vertex 176.19 2.25 0
    endloop
  endfacet
  facet normal -0 0 1
    outer loop
      vertex 158.51 107.26 1.6
      vertex 178.69 54 1.6
      vertex 178.69 107.26 1.6
    endloop
  endfacet
  facet normal 0 0 1
    outer loop
      vertex 178.69 54 1.6
      vertex 158.51 107.26 1.6
      vertex 158.51 54 1.6
    endloop
  endfacet
  facet normal 0 -1 0
    outer loop
      vertex 158.51 54 0
      vertex 178.69 54 1.6
      vertex 158.51 54 1.6
    endloop
  endfacet
  facet normal 0 -1 -0
    outer loop
      vertex 178.69 54 1.6
      vertex 158.51 54 0
      vertex 178.69 54 0
    endloop
  endfacet
endsolid OpenSCAD_Model
