solid OpenSCAD_Model
  facet normal -1 0 0
    outer loop
      vertex 0 0 5
      vertex 0 80 22
      vertex 0 80 5
    endloop
  endfacet
  facet normal -1 -0 0
    outer loop
      vertex 0 80 22
      vertex 0 0 5
      vertex 0 0 22
    endloop
  endfacet
  facet normal -0 0 1
    outer loop
      vertex 0 80 22
      vertex 5 0 22
      vertex 5 80 22
    endloop
  endfacet
  facet normal 0 0 1
    outer loop
      vertex 5 0 22
      vertex 0 80 22
      vertex 0 0 22
    endloop
  endfacet
  facet normal -0 0 1
    outer loop
      vertex 25.6 80 22
      vertex 30.6 0 22
      vertex 30.6 80 22
    endloop
  endfacet
  facet normal 0 0 1
    outer loop
      vertex 30.6 0 22
      vertex 25.6 80 22
      vertex 25.6 0 22
    endloop
  endfacet
  facet normal 1 -0 0
    outer loop
      vertex 30.6 0 22
      vertex 30.6 80 5
      vertex 30.6 80 22
    endloop
  endfacet
  facet normal 1 0 0
    outer loop
      vertex 30.6 80 5
      vertex 30.6 0 22
      vertex 30.6 0 5
    endloop
  endfacet
  facet normal 0 1 -0
    outer loop
      vertex 30.6 80 5
      vertex 25.6 80 22
      vertex 30.6 80 22
    endloop
  endfacet
  facet normal 0 1 0
    outer loop
      vertex 25.6 80 22
      vertex 30.6 80 5
      vertex 25.6 80 5
    endloop
  endfacet
  facet normal 0 1 -0
    outer loop
      vertex 5 80 5
      vertex 0 80 22
      vertex 5 80 22
    endloop
  endfacet
  facet normal 0 1 0
    outer loop
      vertex 0 80 22
      vertex 5 80 5
      vertex 0 80 5
    endloop
  endfacet
  facet normal -0 0 1
    outer loop
      vertex -15 95 5
      vertex 5 91.505 5
      vertex 5 95 5
    endloop
  endfacet
  facet normal 0 0 1
    outer loop
      vertex 5 91.505 5
      vertex 0 80 5
      vertex 5 80 5
    endloop
  endfacet
  facet normal 0 0 1
    outer loop
      vertex 0 80 5
      vertex -15 95 5
      vertex 0 0 5
    endloop
  endfacet
  facet normal 0 0 1
    outer loop
      vertex 5 91.505 5
      vertex -15 95 5
      vertex 0 80 5
    endloop
  endfacet
  facet normal -0 0 1
    outer loop
      vertex 0 0 5
      vertex 5 -11.505 5
      vertex 5 0 5
    endloop
  endfacet
  facet normal 0 0 1
    outer loop
      vertex -15 -15 5
      vertex 5 -11.505 5
      vertex 0 0 5
    endloop
  endfacet
  facet normal 0 0 1
    outer loop
      vertex 5 -11.505 5
      vertex -15 -15 5
      vertex 5 -15 5
    endloop
  endfacet
  facet normal 0 0 1
    outer loop
      vertex -15 -15 5
      vertex 0 0 5
      vertex -15 95 5
    endloop
  endfacet
  facet normal 0 0 1
    outer loop
      vertex 45.6 95 5
      vertex 30.6 80 5
      vertex 45.6 -15 5
    endloop
  endfacet
  facet normal 0 0 1
    outer loop
      vertex 25.6 91.505 5
      vertex 45.6 95 5
      vertex 25.6 95 5
    endloop
  endfacet
  facet normal 0 0 1
    outer loop
      vertex 45.6 95 5
      vertex 25.6 91.505 5
      vertex 30.6 80 5
    endloop
  endfacet
  facet normal 0 0 1
    outer loop
      vertex 30.6 80 5
      vertex 25.6 91.505 5
      vertex 25.6 80 5
    endloop
  endfacet
  facet normal -0 0 1
    outer loop
      vertex 30.6 0 5
      vertex 45.6 -15 5
      vertex 30.6 80 5
    endloop
  endfacet
  facet normal 0 0 1
    outer loop
      vertex 25.6 -11.505 5
      vertex 30.6 0 5
      vertex 25.6 0 5
    endloop
  endfacet
  facet normal 0 0 1
    outer loop
      vertex 30.6 0 5
      vertex 25.6 -11.505 5
      vertex 45.6 -15 5
    endloop
  endfacet
  facet normal 0 0 1
    outer loop
      vertex 45.6 -15 5
      vertex 25.6 -11.505 5
      vertex 25.6 -15 5
    endloop
  endfacet
  facet normal 0 -1 0
    outer loop
      vertex 0 0 5
      vertex 5 0 22
      vertex 0 0 22
    endloop
  endfacet
  facet normal 0 -1 -0
    outer loop
      vertex 5 0 22
      vertex 0 0 5
      vertex 5 0 5
    endloop
  endfacet
  facet normal 0 -1 0
    outer loop
      vertex 25.6 0 5
      vertex 30.6 0 22
      vertex 25.6 0 22
    endloop
  endfacet
  facet normal 0 -1 -0
    outer loop
      vertex 30.6 0 22
      vertex 25.6 0 5
      vertex 30.6 0 5
    endloop
  endfacet
  facet normal 1 0 0
    outer loop
      vertex 5 80 22
      vertex 5 0 22
      vertex 5 80 5
    endloop
  endfacet
  facet normal 1 -0 0
    outer loop
      vertex 5 80 5
      vertex 5 91.505 0
      vertex 5 91.505 5
    endloop
  endfacet
  facet normal 1 0 0
    outer loop
      vertex 5 0 5
      vertex 5 80 5
      vertex 5 0 22
    endloop
  endfacet
  facet normal 1 0 0
    outer loop
      vertex 5 80 5
      vertex 5 0 5
      vertex 5 91.505 0
    endloop
  endfacet
  facet normal 1 0 0
    outer loop
      vertex 5 -11.505 0
      vertex 5 0 5
      vertex 5 -11.505 5
    endloop
  endfacet
  facet normal 1 0 0
    outer loop
      vertex 5 0 5
      vertex 5 -11.505 0
      vertex 5 91.505 0
    endloop
  endfacet
  facet normal -1 0 0
    outer loop
      vertex 25.6 91.505 0
      vertex 25.6 80 5
      vertex 25.6 91.505 5
    endloop
  endfacet
  facet normal -1 0 0
    outer loop
      vertex 25.6 80 5
      vertex 25.6 0 5
      vertex 25.6 80 22
    endloop
  endfacet
  facet normal -1 0 0
    outer loop
      vertex 25.6 91.505 0
      vertex 25.6 0 5
      vertex 25.6 80 5
    endloop
  endfacet
  facet normal -1 0 0
    outer loop
      vertex 25.6 -11.505 0
      vertex 25.6 0 5
      vertex 25.6 91.505 0
    endloop
  endfacet
  facet normal -1 -0 0
    outer loop
      vertex 25.6 0 5
      vertex 25.6 -11.505 0
      vertex 25.6 -11.505 5
    endloop
  endfacet
  facet normal -1 -0 0
    outer loop
      vertex 25.6 80 22
      vertex 25.6 0 5
      vertex 25.6 0 22
    endloop
  endfacet
  facet normal -1 0 0
    outer loop
      vertex -15 -15 0
      vertex -15 95 5
      vertex -15 95 0
    endloop
  endfacet
  facet normal -1 -0 0
    outer loop
      vertex -15 95 5
      vertex -15 -15 0
      vertex -15 -15 5
    endloop
  endfacet
  facet normal 1 -0 0
    outer loop
      vertex 45.6 -15 5
      vertex 45.6 95 0
      vertex 45.6 95 5
    endloop
  endfacet
  facet normal 1 0 0
    outer loop
      vertex 45.6 95 0
      vertex 45.6 -15 5
      vertex 45.6 -15 0
    endloop
  endfacet
  facet normal 0 1 -0
    outer loop
      vertex 45.6 95 0
      vertex 25.6 95 5
      vertex 45.6 95 5
    endloop
  endfacet
  facet normal 0 1 0
    outer loop
      vertex 25.6 95 5
      vertex 45.6 95 0
      vertex 5 95 5
    endloop
  endfacet
  facet normal 0 1 0
    outer loop
      vertex -15 95 0
      vertex 5 95 5
      vertex 45.6 95 0
    endloop
  endfacet
  facet normal 0 1 0
    outer loop
      vertex 5 95 5
      vertex -15 95 0
      vertex -15 95 5
    endloop
  endfacet
  facet normal 0 1 -0
    outer loop
      vertex 25.6 95 5
      vertex 5 95 11
      vertex 25.6 95 11
    endloop
  endfacet
  facet normal 0 1 0
    outer loop
      vertex 5 95 11
      vertex 25.6 95 5
      vertex 5 95 5
    endloop
  endfacet
  facet normal 0 0 -1
    outer loop
      vertex 45.6 -15 0
      vertex 25.6 -11.505 0
      vertex 45.6 95 0
    endloop
  endfacet
  facet normal 0 0 -1
    outer loop
      vertex 45.6 -15 0
      vertex 5 -11.505 0
      vertex 25.6 -11.505 0
    endloop
  endfacet
  facet normal -0 0 -1
    outer loop
      vertex 5 -11.505 0
      vertex -15 -15 0
      vertex 5 91.505 0
    endloop
  endfacet
  facet normal 0 0 -1
    outer loop
      vertex -15 -15 0
      vertex 5 -11.505 0
      vertex 45.6 -15 0
    endloop
  endfacet
  facet normal 0 0 -1
    outer loop
      vertex 25.6 91.505 0
      vertex 45.6 95 0
      vertex 25.6 -11.505 0
    endloop
  endfacet
  facet normal 0 0 -1
    outer loop
      vertex 5 91.505 0
      vertex 45.6 95 0
      vertex 25.6 91.505 0
    endloop
  endfacet
  facet normal 0 0 -1
    outer loop
      vertex 5 91.505 0
      vertex -15 95 0
      vertex 45.6 95 0
    endloop
  endfacet
  facet normal 0 0 -1
    outer loop
      vertex -15 95 0
      vertex 5 91.505 0
      vertex -15 -15 0
    endloop
  endfacet
  facet normal 0 -1 0
    outer loop
      vertex -15 -15 0
      vertex 5 -15 5
      vertex -15 -15 5
    endloop
  endfacet
  facet normal 0 -1 -0
    outer loop
      vertex 5 -15 5
      vertex -15 -15 0
      vertex 25.6 -15 5
    endloop
  endfacet
  facet normal 0 -1 0
    outer loop
      vertex 45.6 -15 0
      vertex 25.6 -15 5
      vertex -15 -15 0
    endloop
  endfacet
  facet normal 0 -1 0
    outer loop
      vertex 25.6 -15 5
      vertex 45.6 -15 0
      vertex 45.6 -15 5
    endloop
  endfacet
  facet normal 0 -1 0
    outer loop
      vertex 5 -15 5
      vertex 25.6 -15 11
      vertex 5 -15 11
    endloop
  endfacet
  facet normal 0 -1 -0
    outer loop
      vertex 25.6 -15 11
      vertex 5 -15 5
      vertex 25.6 -15 5
    endloop
  endfacet
  facet normal 0 1 -0
    outer loop
      vertex 25.6 -11.505 0
      vertex 5 -11.505 5
      vertex 25.6 -11.505 5
    endloop
  endfacet
  facet normal 0 1 0
    outer loop
      vertex 5 -11.505 5
      vertex 25.6 -11.505 0
      vertex 5 -11.505 0
    endloop
  endfacet
  facet normal 0 -1 0
    outer loop
      vertex 5 91.505 0
      vertex 25.6 91.505 5
      vertex 5 91.505 5
    endloop
  endfacet
  facet normal 0 -1 -0
    outer loop
      vertex 25.6 91.505 5
      vertex 5 91.505 0
      vertex 25.6 91.505 0
    endloop
  endfacet
  facet normal -1 0 0
    outer loop
      vertex 5 -15 5
      vertex 5 -11.505 11
      vertex 5 -11.505 5
    endloop
  endfacet
  facet normal -1 -0 0
    outer loop
      vertex 5 -11.505 11
      vertex 5 -15 5
      vertex 5 -15 11
    endloop
  endfacet
  facet normal -0 0 1
    outer loop
      vertex 5 -11.505 11
      vertex 25.6 -15 11
      vertex 25.6 -11.505 11
    endloop
  endfacet
  facet normal 0 0 1
    outer loop
      vertex 25.6 -15 11
      vertex 5 -11.505 11
      vertex 5 -15 11
    endloop
  endfacet
  facet normal 1 -0 0
    outer loop
      vertex 25.6 -15 11
      vertex 25.6 -11.505 5
      vertex 25.6 -11.505 11
    endloop
  endfacet
  facet normal 1 0 0
    outer loop
      vertex 25.6 -11.505 5
      vertex 25.6 -15 11
      vertex 25.6 -15 5
    endloop
  endfacet
  facet normal 0 1 -0
    outer loop
      vertex 25.6 -11.505 5
      vertex 5 -11.505 11
      vertex 25.6 -11.505 11
    endloop
  endfacet
  facet normal 0 1 0
    outer loop
      vertex 5 -11.505 11
      vertex 25.6 -11.505 5
      vertex 5 -11.505 5
    endloop
  endfacet
  facet normal -1 0 0
    outer loop
      vertex 5 91.505 5
      vertex 5 95 11
      vertex 5 95 5
    endloop
  endfacet
  facet normal -1 -0 0
    outer loop
      vertex 5 95 11
      vertex 5 91.505 5
      vertex 5 91.505 11
    endloop
  endfacet
  facet normal -0 0 1
    outer loop
      vertex 5 95 11
      vertex 25.6 91.505 11
      vertex 25.6 95 11
    endloop
  endfacet
  facet normal 0 0 1
    outer loop
      vertex 25.6 91.505 11
      vertex 5 95 11
      vertex 5 91.505 11
    endloop
  endfacet
  facet normal 1 -0 0
    outer loop
      vertex 25.6 91.505 11
      vertex 25.6 95 5
      vertex 25.6 95 11
    endloop
  endfacet
  facet normal 1 0 0
    outer loop
      vertex 25.6 95 5
      vertex 25.6 91.505 11
      vertex 25.6 91.505 5
    endloop
  endfacet
  facet normal 0 -1 0
    outer loop
      vertex 5 91.505 5
      vertex 25.6 91.505 11
      vertex 5 91.505 11
    endloop
  endfacet
  facet normal 0 -1 -0
    outer loop
      vertex 25.6 91.505 11
      vertex 5 91.505 5
      vertex 25.6 91.505 5
    endloop
  endfacet
endsolid OpenSCAD_Model
