solid OpenSCAD_Model
  facet normal -1 0 0
    outer loop
      vertex 0 0 5
      vertex 0 80 20
      vertex 0 80 5
    endloop
  endfacet
  facet normal -1 -0 0
    outer loop
      vertex 0 80 20
      vertex 0 0 5
      vertex 0 0 20
    endloop
  endfacet
  facet normal -0 0 1
    outer loop
      vertex 0 80 20
      vertex 5 0 20
      vertex 5 80 20
    endloop
  endfacet
  facet normal 0 0 1
    outer loop
      vertex 5 0 20
      vertex 0 80 20
      vertex 0 0 20
    endloop
  endfacet
  facet normal -0 0 1
    outer loop
      vertex 26.4 80 20
      vertex 31.4 0 20
      vertex 31.4 80 20
    endloop
  endfacet
  facet normal 0 0 1
    outer loop
      vertex 31.4 0 20
      vertex 26.4 80 20
      vertex 26.4 0 20
    endloop
  endfacet
  facet normal 1 -0 0
    outer loop
      vertex 31.4 0 20
      vertex 31.4 80 5
      vertex 31.4 80 20
    endloop
  endfacet
  facet normal 1 0 0
    outer loop
      vertex 31.4 80 5
      vertex 31.4 0 20
      vertex 31.4 0 5
    endloop
  endfacet
  facet normal -0 0 1
    outer loop
      vertex -15 95 5
      vertex 5 91.005 5
      vertex 5 95 5
    endloop
  endfacet
  facet normal 0 0 1
    outer loop
      vertex 5 91.005 5
      vertex 0 80 5
      vertex 5 80 5
    endloop
  endfacet
  facet normal 0 0 1
    outer loop
      vertex 0 80 5
      vertex -15 95 5
      vertex 0 0 5
    endloop
  endfacet
  facet normal 0 0 1
    outer loop
      vertex 5 91.005 5
      vertex -15 95 5
      vertex 0 80 5
    endloop
  endfacet
  facet normal -0 0 1
    outer loop
      vertex 0 0 5
      vertex 5 -11.005 5
      vertex 5 0 5
    endloop
  endfacet
  facet normal 0 0 1
    outer loop
      vertex -15 -15 5
      vertex 5 -11.005 5
      vertex 0 0 5
    endloop
  endfacet
  facet normal 0 0 1
    outer loop
      vertex 5 -11.005 5
      vertex -15 -15 5
      vertex 5 -15 5
    endloop
  endfacet
  facet normal 0 0 1
    outer loop
      vertex -15 -15 5
      vertex 0 0 5
      vertex -15 95 5
    endloop
  endfacet
  facet normal 0 0 1
    outer loop
      vertex 46.4 95 5
      vertex 31.4 80 5
      vertex 46.4 -15 5
    endloop
  endfacet
  facet normal 0 0 1
    outer loop
      vertex 26.4 91.005 5
      vertex 46.4 95 5
      vertex 26.4 95 5
    endloop
  endfacet
  facet normal 0 0 1
    outer loop
      vertex 46.4 95 5
      vertex 26.4 91.005 5
      vertex 31.4 80 5
    endloop
  endfacet
  facet normal 0 0 1
    outer loop
      vertex 31.4 80 5
      vertex 26.4 91.005 5
      vertex 26.4 80 5
    endloop
  endfacet
  facet normal -0 0 1
    outer loop
      vertex 31.4 0 5
      vertex 46.4 -15 5
      vertex 31.4 80 5
    endloop
  endfacet
  facet normal 0 0 1
    outer loop
      vertex 26.4 -11.005 5
      vertex 31.4 0 5
      vertex 26.4 0 5
    endloop
  endfacet
  facet normal 0 0 1
    outer loop
      vertex 31.4 0 5
      vertex 26.4 -11.005 5
      vertex 46.4 -15 5
    endloop
  endfacet
  facet normal 0 0 1
    outer loop
      vertex 46.4 -15 5
      vertex 26.4 -11.005 5
      vertex 26.4 -15 5
    endloop
  endfacet
  facet normal 0 -1 0
    outer loop
      vertex 0 0 5
      vertex 5 0 20
      vertex 0 0 20
    endloop
  endfacet
  facet normal 0 -1 -0
    outer loop
      vertex 5 0 20
      vertex 0 0 5
      vertex 5 0 5
    endloop
  endfacet
  facet normal 0 -1 0
    outer loop
      vertex 26.4 0 5
      vertex 31.4 0 20
      vertex 26.4 0 20
    endloop
  endfacet
  facet normal 0 -1 -0
    outer loop
      vertex 31.4 0 20
      vertex 26.4 0 5
      vertex 31.4 0 5
    endloop
  endfacet
  facet normal 0 1 -0
    outer loop
      vertex 31.4 80 5
      vertex 26.4 80 20
      vertex 31.4 80 20
    endloop
  endfacet
  facet normal 0 1 0
    outer loop
      vertex 26.4 80 20
      vertex 31.4 80 5
      vertex 26.4 80 5
    endloop
  endfacet
  facet normal 0 1 -0
    outer loop
      vertex 5 80 5
      vertex 0 80 20
      vertex 5 80 20
    endloop
  endfacet
  facet normal 0 1 0
    outer loop
      vertex 0 80 20
      vertex 5 80 5
      vertex 0 80 5
    endloop
  endfacet
  facet normal 1 0 0
    outer loop
      vertex 5 80 20
      vertex 5 0 20
      vertex 5 80 5
    endloop
  endfacet
  facet normal 1 -0 0
    outer loop
      vertex 5 80 5
      vertex 5 91.005 0
      vertex 5 91.005 5
    endloop
  endfacet
  facet normal 1 0 0
    outer loop
      vertex 5 0 5
      vertex 5 80 5
      vertex 5 0 20
    endloop
  endfacet
  facet normal 1 0 0
    outer loop
      vertex 5 80 5
      vertex 5 0 5
      vertex 5 91.005 0
    endloop
  endfacet
  facet normal 1 0 0
    outer loop
      vertex 5 -11.005 0
      vertex 5 0 5
      vertex 5 -11.005 5
    endloop
  endfacet
  facet normal 1 0 0
    outer loop
      vertex 5 0 5
      vertex 5 -11.005 0
      vertex 5 91.005 0
    endloop
  endfacet
  facet normal -1 0 0
    outer loop
      vertex 26.4 91.005 0
      vertex 26.4 80 5
      vertex 26.4 91.005 5
    endloop
  endfacet
  facet normal -1 0 0
    outer loop
      vertex 26.4 80 5
      vertex 26.4 0 5
      vertex 26.4 80 20
    endloop
  endfacet
  facet normal -1 0 0
    outer loop
      vertex 26.4 91.005 0
      vertex 26.4 0 5
      vertex 26.4 80 5
    endloop
  endfacet
  facet normal -1 0 0
    outer loop
      vertex 26.4 -11.005 0
      vertex 26.4 0 5
      vertex 26.4 91.005 0
    endloop
  endfacet
  facet normal -1 -0 0
    outer loop
      vertex 26.4 0 5
      vertex 26.4 -11.005 0
      vertex 26.4 -11.005 5
    endloop
  endfacet
  facet normal -1 -0 0
    outer loop
      vertex 26.4 80 20
      vertex 26.4 0 5
      vertex 26.4 0 20
    endloop
  endfacet
  facet normal -1 0 0
    outer loop
      vertex -15 -15 0
      vertex -15 95 5
      vertex -15 95 0
    endloop
  endfacet
  facet normal -1 -0 0
    outer loop
      vertex -15 95 5
      vertex -15 -15 0
      vertex -15 -15 5
    endloop
  endfacet
  facet normal 1 -0 0
    outer loop
      vertex 46.4 -15 5
      vertex 46.4 95 0
      vertex 46.4 95 5
    endloop
  endfacet
  facet normal 1 0 0
    outer loop
      vertex 46.4 95 0
      vertex 46.4 -15 5
      vertex 46.4 -15 0
    endloop
  endfacet
  facet normal 0 1 -0
    outer loop
      vertex 46.4 95 0
      vertex 26.4 95 5
      vertex 46.4 95 5
    endloop
  endfacet
  facet normal 0 1 0
    outer loop
      vertex 26.4 95 5
      vertex 46.4 95 0
      vertex 5 95 5
    endloop
  endfacet
  facet normal 0 1 0
    outer loop
      vertex -15 95 0
      vertex 5 95 5
      vertex 46.4 95 0
    endloop
  endfacet
  facet normal 0 1 0
    outer loop
      vertex 5 95 5
      vertex -15 95 0
      vertex -15 95 5
    endloop
  endfacet
  facet normal 0 1 -0
    outer loop
      vertex 26.4 95 5
      vertex 5 95 8
      vertex 26.4 95 8
    endloop
  endfacet
  facet normal 0 1 0
    outer loop
      vertex 5 95 8
      vertex 26.4 95 5
      vertex 5 95 5
    endloop
  endfacet
  facet normal 0 0 -1
    outer loop
      vertex 46.4 -15 0
      vertex 26.4 -11.005 0
      vertex 46.4 95 0
    endloop
  endfacet
  facet normal 0 0 -1
    outer loop
      vertex 46.4 -15 0
      vertex 5 -11.005 0
      vertex 26.4 -11.005 0
    endloop
  endfacet
  facet normal -0 0 -1
    outer loop
      vertex 5 -11.005 0
      vertex -15 -15 0
      vertex 5 91.005 0
    endloop
  endfacet
  facet normal 0 0 -1
    outer loop
      vertex -15 -15 0
      vertex 5 -11.005 0
      vertex 46.4 -15 0
    endloop
  endfacet
  facet normal 0 0 -1
    outer loop
      vertex 26.4 91.005 0
      vertex 46.4 95 0
      vertex 26.4 -11.005 0
    endloop
  endfacet
  facet normal 0 0 -1
    outer loop
      vertex 5 91.005 0
      vertex 46.4 95 0
      vertex 26.4 91.005 0
    endloop
  endfacet
  facet normal 0 0 -1
    outer loop
      vertex 5 91.005 0
      vertex -15 95 0
      vertex 46.4 95 0
    endloop
  endfacet
  facet normal 0 0 -1
    outer loop
      vertex -15 95 0
      vertex 5 91.005 0
      vertex -15 -15 0
    endloop
  endfacet
  facet normal 0 -1 0
    outer loop
      vertex -15 -15 0
      vertex 5 -15 5
      vertex -15 -15 5
    endloop
  endfacet
  facet normal 0 -1 -0
    outer loop
      vertex 5 -15 5
      vertex -15 -15 0
      vertex 26.4 -15 5
    endloop
  endfacet
  facet normal 0 -1 0
    outer loop
      vertex 46.4 -15 0
      vertex 26.4 -15 5
      vertex -15 -15 0
    endloop
  endfacet
  facet normal 0 -1 0
    outer loop
      vertex 26.4 -15 5
      vertex 46.4 -15 0
      vertex 46.4 -15 5
    endloop
  endfacet
  facet normal 0 -1 0
    outer loop
      vertex 5 -15 5
      vertex 26.4 -15 8
      vertex 5 -15 8
    endloop
  endfacet
  facet normal 0 -1 -0
    outer loop
      vertex 26.4 -15 8
      vertex 5 -15 5
      vertex 26.4 -15 5
    endloop
  endfacet
  facet normal 0 1 -0
    outer loop
      vertex 26.4 -11.005 0
      vertex 5 -11.005 5
      vertex 26.4 -11.005 5
    endloop
  endfacet
  facet normal 0 1 0
    outer loop
      vertex 5 -11.005 5
      vertex 26.4 -11.005 0
      vertex 5 -11.005 0
    endloop
  endfacet
  facet normal 0 -1 0
    outer loop
      vertex 5 91.005 0
      vertex 26.4 91.005 5
      vertex 5 91.005 5
    endloop
  endfacet
  facet normal 0 -1 -0
    outer loop
      vertex 26.4 91.005 5
      vertex 5 91.005 0
      vertex 26.4 91.005 0
    endloop
  endfacet
  facet normal -1 0 0
    outer loop
      vertex 5 -15 5
      vertex 5 -11.005 8
      vertex 5 -11.005 5
    endloop
  endfacet
  facet normal -1 -0 0
    outer loop
      vertex 5 -11.005 8
      vertex 5 -15 5
      vertex 5 -15 8
    endloop
  endfacet
  facet normal -0 0 1
    outer loop
      vertex 5 -11.005 8
      vertex 26.4 -15 8
      vertex 26.4 -11.005 8
    endloop
  endfacet
  facet normal 0 0 1
    outer loop
      vertex 26.4 -15 8
      vertex 5 -11.005 8
      vertex 5 -15 8
    endloop
  endfacet
  facet normal 1 -0 0
    outer loop
      vertex 26.4 -15 8
      vertex 26.4 -11.005 5
      vertex 26.4 -11.005 8
    endloop
  endfacet
  facet normal 1 0 0
    outer loop
      vertex 26.4 -11.005 5
      vertex 26.4 -15 8
      vertex 26.4 -15 5
    endloop
  endfacet
  facet normal 0 1 -0
    outer loop
      vertex 26.4 -11.005 5
      vertex 5 -11.005 8
      vertex 26.4 -11.005 8
    endloop
  endfacet
  facet normal 0 1 0
    outer loop
      vertex 5 -11.005 8
      vertex 26.4 -11.005 5
      vertex 5 -11.005 5
    endloop
  endfacet
  facet normal -1 0 0
    outer loop
      vertex 5 91.005 5
      vertex 5 95 8
      vertex 5 95 5
    endloop
  endfacet
  facet normal -1 -0 0
    outer loop
      vertex 5 95 8
      vertex 5 91.005 5
      vertex 5 91.005 8
    endloop
  endfacet
  facet normal -0 0 1
    outer loop
      vertex 5 95 8
      vertex 26.4 91.005 8
      vertex 26.4 95 8
    endloop
  endfacet
  facet normal 0 0 1
    outer loop
      vertex 26.4 91.005 8
      vertex 5 95 8
      vertex 5 91.005 8
    endloop
  endfacet
  facet normal 1 -0 0
    outer loop
      vertex 26.4 91.005 8
      vertex 26.4 95 5
      vertex 26.4 95 8
    endloop
  endfacet
  facet normal 1 0 0
    outer loop
      vertex 26.4 95 5
      vertex 26.4 91.005 8
      vertex 26.4 91.005 5
    endloop
  endfacet
  facet normal 0 -1 0
    outer loop
      vertex 5 91.005 5
      vertex 26.4 91.005 8
      vertex 5 91.005 8
    endloop
  endfacet
  facet normal 0 -1 -0
    outer loop
      vertex 26.4 91.005 8
      vertex 5 91.005 5
      vertex 26.4 91.005 5
    endloop
  endfacet
endsolid OpenSCAD_Model
